<?xml version="1.0" encoding="utf-8"?>
<!-- Generator: Adobe Illustrator 15.1.0, SVG Export Plug-In . SVG Version: 6.00 Build 0)  -->
<!DOCTYPE svg PUBLIC "-//W3C//DTD SVG 1.1//EN" "http://www.w3.org/Graphics/SVG/1.1/DTD/svg11.dtd">
<svg version="1.1" id="Calque_1" xmlns="http://www.w3.org/2000/svg" xmlns:xlink="http://www.w3.org/1999/xlink" x="0px" y="0px"
	 width="841.89px" height="595.28px" viewBox="0 0 841.89 595.28" enable-background="new 0 0 841.89 595.28" xml:space="preserve">
<g id="nzwuBh_1_">
	<g>
		<g id="XMLID_3_">
			<g>
				<path fill="#FFFFFF" d="M308.119,132.749c0.523,0,0.786,1.498-0.015,1.411c-0.16,0.582,0.597,0.247,0.48,0.785
					c-0.32,0.451-0.378,1.193-0.945,1.396c0.786,0.625,0.247,1.92,0.16,2.356c0.363-0.044,0.669-0.334,0.785,0.16
					c0,0.305,0,0.625,0,0.931c-0.204,0.218-0.742,0.102-0.945,0.32c-0.015,0.582,0.669,0.466,0.465,1.251
					c-0.625,0.48-0.174,1.6-0.771,2.342c0.175,1.688,1.149,3.782,0.306,5.019c0.989,2.851,1.353,5.367,2.982,7.52
					c0,0.523,0,1.033,0,1.556c0.349,0.131,0.495-0.713,0.771-0.146c0.116,0.523-0.625,0.189-0.466,0.771
					c0.917,0.873,1.76,1.804,2.196,3.142c0.931-0.102,1.091,0.567,1.251,1.251c1.033,0.32,1.833,0.887,2.822,1.251
					c1.28-0.378,2.56-0.771,3.593-1.411c-0.146-0.974,0.655-1.033,1.251-1.25c0.204-1.047,0.422-2.095,1.266-2.502
					c-0.422-1.382,0.218-2.196,1.251-2.822c0.174-1.382,1.367-2.982,2.342-4.073c2.473,0.305,3.389,3.36,5.018,5.003
					c0.829-0.043,1.236,0.334,1.251,1.105c0.756,0.073,0.873,0.786,1.556,0.931c0.422,0,0.844,0,1.266,0
					c-0.247,0.931,1.324,0.029,1.251,0.785c0.669-0.378,1.265-0.814,1.876-1.25c0.131,0.334,0.378,0.553,0.931,0.465
					c-0.015-0.945,0.8-1.077,1.571-1.251c-0.727-0.96,0.102-2.444,0.466-3.287c-0.189-0.422-0.597-0.393-0.306-0.931
					c-1.716-0.8-4.043-0.975-6.575-0.945c-0.043-0.902-1.323-0.553-1.731-1.091c0.015-0.306,0.524-0.117,0.48-0.48
					c-0.814-0.698-1.672-1.353-2.196-2.342c0.887-0.291,0.334-1.6,0-2.037c0.756-0.538,0.684-3.36,0-3.913
					c0.204-0.378,0.262-0.887,0.466-1.251c-0.655-1.935-0.146-4.087-2.037-5.178c0.015-1.469-1.294-1.615-1.716-2.662
					c-3.462-0.582-2.167,4.669-3.913,6.269c0.087,1.411-0.437,1.6,0,2.662c-0.233,0.291-1.033,0.015-1.251,0.32
					c0,0.625,0,1.251,0,1.876c-0.756,0.349-1.425,0.771-1.266,2.037c-0.422,0.291-0.814,0.64-1.251,0.931
					c0.393,0.858-0.146,1.294-0.785,1.251c-0.48,2.022-2.618,2.4-3.127,4.393c-0.975-0.291-0.814,0.539-1.556,0.466
					c-2.124-1.382-2.08-3.564-2.356-7.04c1.003-0.175,0.262-1.688,0-2.037c0.844-1.396,0.276-4.218,1.251-5.483
					c-0.044-0.364-0.539-0.291-0.466-0.786c0.625-1.309,1.368-3.563,0.466-4.698c0.262-0.218,0.495-0.436,0.785-0.625
					c-0.029-1.498-0.131-3.054,0.786-3.593c-0.218-0.465-0.422-0.945-0.32-1.73c0.363,0.058,0.611-0.029,0.785-0.16
					c0.16-0.684-0.523-0.509-0.465-1.091c0.189-0.538,0.873-0.597,0.931-1.251c-0.509-1.411,0.873-2.517,0-4.073
					c0.597-0.16,0.248,0.582,0.786,0.465c-0.553-1.076-0.567-2.356,0.48-2.967c-0.364-0.596-0.684-1.076,0-1.571
					c-0.858-0.465-0.102-0.684,0-1.411c-0.422-0.087-1.091,0.844-1.266,0c0.218-0.305,1.033-0.014,0.786-0.785
					c-0.538-0.16-1.28-0.306-0.786-1.091c-1.033-0.276-1.25-1.353-2.342-1.571c-0.523,1.004-1.164,0.931-2.196,1.411
					c0,0.48,0,0.945,0,1.411c-0.204,0.16-0.567,0.16-0.785,0.32c0.407,1.076-0.48,0.989-0.771,1.716
					c0.48,0.698-0.029,3.2-0.48,4.393c-0.015,1.178-0.175,2.328-0.786,3.288c0.917,0.756-1.236,2.124-0.305,3.593
					c-0.698,0.363-0.567,2.094-0.16,2.662C308.381,131.455,308.73,132.575,308.119,132.749z M747.174,46c0,58.662,0,117.338,0,176
					c-193.833,0-387.549,0-581.396,0c0-24.276,0-48.538,0-72.814c1.193,1.222,0.233,2.589,1.251,3.767
					c-1.716,2.007,1.658,4.291,0,6.575c-0.087,0.553,0.553,0.378,0.465,0.931c-0.247,0.015-0.116,0.407-0.465,0.32
					c0.465,0.698,1.266,2.138,0.465,3.127c0.538,0.262,0.16,1.411,0.786,1.571c0.305,2.836,0.407,3.229,0,5.949
					c1.207,0.698,0.567,4.233,1.251,5.949c0.014,0.291,0.523,0.102,0.465,0.465c-0.611,1.527,0.64,2.487,1.105,3.447
					c-0.32,1.935,0.495,2.735,0.465,4.378c0.291,0.189,0.538,0.422,0.786,0.64c-0.451,1.862,1.353,1.745,0.785,3.287
					c0.887,1.149,1.324,2.734,2.196,3.913c-0.378-0.073,0.073,0.713-0.48,0.465c0.276,1.28,1.368,1.775,2.037,2.662
					c-0.189,0.975,0.349,1.207,0.785,1.571c0.582,2.706,2.487,4.087,3.447,6.415c1.658,0.596,2.356,2.124,3.127,3.607
					c0.364-0.058,0.596,0.015,0.786,0.146c0.611,1.644,2.094,2.4,3.127,3.607c0.131-0.334,0.393-0.553,0.946-0.465
					c-0.117,0.48,0.16,0.567,0.16,0.931c0.582-0.248,1.12,0.291,1.091,1.105c0.363,0,0.727,0,1.091,0
					c0.495,1.178,2.312,1.018,2.822,2.182c0.378-0.087,0.712-0.218,1.251-0.146c0.218,0.189,0.102,0.727,0.32,0.931
					c0.48,0.116,0.567-0.16,0.931-0.16c0.218,0.204,0.102,0.742,0.32,0.945c0.538,0.087,1.483-0.233,1.571,0.32
					c-0.334,0.087-0.596,0.233-0.48,0.771c0.975,0.131,1.905,0.291,2.356,0.946c1.789,0.058,2.72,1.382,4.378,0.32
					c0.146,0.276,0.437,0.393,0.32,0.931c0.567,0,1.149,0,1.716,0c1.047,1.455,2.211,0.248,3.447,0
					c-0.131,0.451,0.218,0.408,0.16,0.786c0.756-0.146,1.12,0.116,1.411,0.465c0.422-1.164,1.004,0.334,2.022,0
					c0.276-0.087,0-0.742,0.32-0.785c0.873,0.523,3.346,0.465,4.233,0c0.945,0.975,2.065-0.218,2.807-0.466
					c0.306,0.015,0.116,0.524,0.48,0.466c0.189-0.946,2.226-0.058,2.502-0.931c0.495-0.073,0.407,0.422,0.785,0.465
					c0.262-0.087-0.014-0.742,0.306-0.785c0.684,0,1.367,0,2.037,0c0.494-0.291,0.465-1.105,1.105-1.251
					c0.582-0.015,0.465,0.684,1.25,0.465c0.597-0.48,0.989-1.192,2.342-0.931c-0.014-0.393-0.029-0.756,0.32-0.786
					c1.12,0.814,1.891-0.305,2.501,0.465c0.015-0.727,0.349-1.483,1.717-1.25c-0.16-1.164,0.523-0.742,1.105-0.931
					c1.018-0.364,1.149-1.091,1.716-0.32c0.305-0.597,0.989-0.8,1.876-0.786c1.658-1.294,3.957-2.487,4.698-4.218
					c0.989,0.524,1.338-0.698,1.731,0c1.338-0.48,1.527-2.124,3.127-2.356c-0.218-1.687,1.716-1.862,2.502-2.967
					c0.102,0.32,0.247,0.582,0.785,0.466c0.451-0.349-0.451-1.368,0.32-1.571c0.32,0.044,0.305,0.422,0.625,0.48
					c-0.204-0.625,0.451-0.378,0.465-0.785c-0.684,0.058-0.655-1.746-0.16-1.876c0.248,0.218,0.146,0.8,0.16,1.251
					c0.232,0.218,1.251-0.334,1.251,0.465c0.451-0.174,0.567-0.684,1.411-0.465c-0.029-0.451-0.64-0.713,0.16-0.786
					c0.116-0.538-0.64-0.204-0.48-0.785c0.698-0.16,0.523,0.523,1.105,0.465c0.407-1.047,0.771-2.138,1.411-2.967
					c-0.146-0.378-0.64-0.422-0.48-1.105c0.16,0,0.189-0.116,0.32-0.146c0.931-0.058,0.698,1.077,1.716,0.931
					c0.436-0.684-0.771-1.338-0.306-2.037c0.48-0.116,0.306,0.437,0.786,0.32c0.131-0.8-0.334-2.21,0.305-2.501
					c1.964,1.6,4.087,1.367,5.804-0.32c-0.756-1.949,1.789-0.611,1.716-1.876c-0.349-0.349-0.523,0.276-0.945,0.305
					c-0.364-0.407-0.975-0.582-1.091-1.251c0.364-0.102,0.422-0.509,0.785-0.625c0.248,0.218,0.495,0.451,0.786,0.625
					c0.495-0.582,0.349-1.847,1.557-1.716c-0.335-1.018-0.655-2.065-1.251-2.822c0.073-0.189,0.174-0.349,0.32-0.465
					c0.684-0.218,0.567,0.364,0.931,0.465c0.043-0.538,0.829-0.32,0.945-0.785c-0.48-0.044-1.222,0.174-1.251-0.306
					c0-0.218,0-0.422,0-0.625c1.571,0.465,1.135-1.062,2.182-1.105c-0.393,0.917,0.975,1.033,1.105,1.876
					c0.582,0.116,0.655,0.116,1.251,0c-0.553-0.32-0.771-2.327-0.16-2.807c0.408-0.044,0.669,0.058,0.625,0.465
					c0.146,0.509-0.509,0.218-0.465,0.625c0.204,0.218,0.684,0.16,1.091,0.16c0.117-0.887,0.539-1.44,1.731-1.25
					c0.087-0.233-0.189-0.815,0.146-0.786c0.786-0.204,0.669,0.48,1.266,0.465c0.305-0.305,0.364-0.625,0.146-1.091
					c0.349-0.422,0.523-0.043,0.945-0.32c-0.276-0.858,0.465-1.731,1.251-2.037c-0.015,0.669-0.567,0.8,0,1.251
					c1.382-0.786,0.771-2.662,2.356-3.127c-0.48-0.043-1.222,0.175-1.266-0.305c0.917-0.844,1.469-1.178,2.822-1.411
					c0.276-0.102-0.015-0.742,0.32-0.785c0.8,0.116,1.193-0.276,1.717,0c0.363-0.16-0.073-1.12,0.32-1.251
					c0.393,0.232,0.523,0.625,1.091,0.305c-0.349-1.12,0.713-1.134,0.32-1.876c0.655-0.117,1.077-0.48,1.717-0.625
					c-0.102-1.033,0.189-1.688,1.25-1.571c0.262-0.989,0.829-1.672,2.037-1.716c0.204-0.684-0.742-0.64-0.306-1.091
					c0.844-0.218,0.655,0.596,1.396,0.465c0.087-0.232,0.248-0.378,0.48-0.465c0.116-0.48-0.437-0.305-0.32-0.785
					c0.378-0.146,0.422-0.625,1.105-0.466c0.334-0.334-0.146-0.509,0.146-0.785c1.323,0.116,1.192-1.222,2.356-1.251
					c0.408-2.255-1.469-2.196-2.662-2.822c-0.247,0.378-0.567,0.684-0.945,0.931c-0.276,0.015-0.48-0.029-0.625-0.146
					c-0.814,1.164-1.527,2.429-3.447,2.502c0.131,1.062-0.524,1.353-1.557,1.251c-0.16,1.062-0.916,1.92-2.036,1.571
					c-1.018,1.324-1.688,3.011-3.767,3.287c-0.16,0.582,0.596,0.248,0.48,0.786c-0.509,0.495-0.466-0.334-0.946-0.32
					c-0.276,0.611-0.393,0.669-0.465,1.251c-0.829-0.248-0.684,0.48-0.945,0.785c-1.018-0.015-0.931,0.742-1.091,1.251
					c-0.262,0-0.524,0-0.786,0c-0.16,0.422-0.349,0.8-0.465,1.251c-1.906,0.393-2.284,2.996-4.698,2.356
					c-0.465,0.611,0.8,0.567,0.785,1.251c-1.018-0.117-1.876,1.178-2.981,0.931c-0.509,1.527,0.087,3.214-1.091,4.073
					c-1.644-0.378-1.862,0.655-2.982,0.786c0.043,1.149-0.437,1.76-0.786,2.501c-0.349,0.044-0.582-0.029-0.625-0.305
					c-0.015-0.64,0.625-0.625,0.48-1.411c-0.975,0.407-2.88,0.407-2.036,1.716c-1.018,0.189-0.858,1.557-2.356,1.251
					c0.058,0.364-0.029,0.611-0.16,0.786c-1.804,0.204-2.516,2.254-3.913,2.356c-1.178,1.542-2.88,1.804-3.913,3.287
					c-0.422,0-0.829,0-1.251,0c-0.814,1.44-2.095,2.385-3.447,3.287c-0.116,0.393,0.684,0.64,0.16,0.946
					c-0.48,0-0.611-0.334-0.946-0.48c-1.556,0.684-2.036,1.629-3.287,2.501c-0.917,0.655-1.949,0.771-2.342,1.571
					c-0.32,0-0.625,0-0.945,0c-0.422,1.876-2.967,1.629-3.913,2.981c-0.611,0.073-0.771-0.291-1.411-0.16
					c-0.233,0.393-0.524,0.727-0.625,1.251c-2.269,0.698-3.316,2.632-6.415,2.501c-1.164,1.309-2.706,1.702-4.538,2.037
					c-0.131,0.538,0.625,0.204,0.465,0.785c-0.538,0.233-1.193-0.102-1.731-0.305c-0.437,0.393-0.989,0.669-1.396,1.091
					c-0.305-0.073-0.291-0.451-0.785-0.32c-1.295,0.843-2.808,1.876-4.393,1.571c-0.684,0.495-0.902,1.222-1.716,0.465
					c-1.324,1.222-4.465,0.495-6.429,0.786c-0.073,0.232,0.189,0.814-0.145,0.785c-0.539,0.015-0.582-0.465-0.786-0.785
					c-1.149,0-2.298,0-3.447,0c-0.306,0.102,0.102,0.931-0.465,0.785c-0.378-0.204-0.48-0.669-0.946-0.785
					c-0.567,0.116-0.669,0.684-1.556,0.465c-0.276-0.189-0.015-0.931-0.48-0.931c-1.396,0.204-3.418-0.349-4.698-0.785
					c-0.306,0.058-0.116,0.611-0.625,0.465c-1.978-1.207-2.604-2.997-5.629-3.287c-0.218-0.204-0.16-0.684-0.16-1.091
					c-2.356-0.524-2.618-3.127-4.538-4.073c0.029-1.135-0.204-1.993-0.625-2.662c-0.175,0.146-0.058,0.582-0.48,0.465
					c-0.451-1.367-1.818-2.065-2.182-3.913c0.014-0.291,0.509-0.102,0.465-0.465c-1.164-0.073-0.553-0.989-1.716-1.105
					c0.146-0.465,0.756-0.48,0.771-1.091c-0.363,0-0.727,0-1.091,0c-0.087-1.164-0.8-1.716-1.411-2.342
					c0.509-1.222-0.756-1.935-0.931-2.982c-0.043,0.393-0.523,0.698-0.64,0.16c0.029-0.291,0.523-0.117,0.48-0.466
					c-0.64-0.058-0.582-1.425-0.32-1.891c-1.382-1.338-1.367-3.302-1.716-5.469c-0.291-0.291-0.727-0.422-0.945-0.786
					c0.146-0.276,0.64-0.204,0.48-0.785c-1.731-1.731-1.571-7.025-2.822-9.236c-0.087-0.553,0.553-0.393,0.465-0.945
					c-0.727-1.411-0.48-3.796-1.716-4.698c-0.073-0.48,0.422-0.407,0.465-0.786c-0.189-0.073-0.364-0.16-0.465-0.306
					c0.189-0.276,0.32-0.611,0.771-0.625c-1.615-2.066-0.466-5.935-2.037-7.986c-0.116-1.396,0.64-1.76,0.48-2.822
					c-0.015-0.291-0.523-0.102-0.48-0.465c0.058-0.378,0.553-0.291,0.48-0.786c-0.363-0.32-0.785-0.567-0.945-1.091
					c0-1.047,0.582-1.513,0.945-2.196c0.102-1.28-0.378-4.291,0.466-5.324c-0.291-0.495-0.728,0.102-0.946-0.465
					c0.087-0.553-0.247-1.513,0.48-1.411c-0.116-0.785-1.033-0.756-0.945-1.73c0.146-0.728,0.742-0.015,0.945-0.625
					c-0.247-0.378-0.843-0.408-1.251-0.625c0.975-0.539,0.015-3.215,0.625-4.073c0.378,0.087,0.334,0.611,0.931,0.48
					c0.174-2.051,1.003-4.742-0.306-6.109c0.48,0.015,0.684-0.247,1.251-0.48c-0.698-0.64-0.407-1.469,0-2.182
					c-1.804-0.262-0.291-1.804,0.786-1.876c0.116-0.538-0.64-0.204-0.48-0.785c0.465-0.073,0.727-0.335,0.785-0.786
					c-0.422-0.306-0.785-0.669-1.091-1.091c0.204-0.276,0.32-0.625,0.786-0.64c-0.291-1.222,0.596-1.28,0.785-2.036
					c-0.931-0.218-0.829-1.469-1.265-2.182c0.015-0.465,0.742-0.204,0.945-0.48c0.116-0.465-0.16-0.567-0.16-0.931
					c0.597-0.349,0.771-0.625,1.411-0.625c0.043-0.786-0.625-0.844-0.931-1.251c0.437-1.353,0.16-2.604,0.931-3.447
					c-0.829-0.844-0.204-2.313,0.785-2.662c0.087-0.96-0.407-2.618,0.32-3.287c0.407,0,0.334,0.495,0.771,0.465
					c0.305-0.363-0.189-0.902,0.16-1.411c-0.204-0.16-0.582-0.146-0.625-0.465c0.233-0.087,0.393-0.233,0.625-0.32
					c-0.262-1.687-0.32-3.272,1.251-3.913c-0.364-0.465-0.058-1.615-0.16-2.342c0.509-0.073,0.509-0.655,0.945-0.786
					c0.087-0.553-0.553-0.393-0.465-0.945c1.949-0.233,1.993-3.884,1.25-5.469c0.276-0.771,0.888-0.495,1.251-0.945
					c-0.189-0.073-0.349-0.16-0.465-0.32c1.294-0.728,0.96-3.098,2.502-3.593c0.087-0.509-0.102-0.728-0.16-1.091
					c0.393,0.014,0.756,0.014,0.945-0.16c0.539-1.44,0.102-3.854,1.251-4.698c-0.276-0.043-0.363-0.276-0.32-0.625
					c0.713-0.073,0.873-0.698,0.785-1.571c0.917,0.232,0.815-0.538,0.786-1.251c0.262,0,0.523,0,0.786,0
					c-0.611-2.385,1.44-2.109,1.251-4.073c0.582,0.015,0.465-0.669,1.25-0.465c0-0.262,0-0.524,0-0.786c0.262,0,0.524,0,0.786,0
					c0.465-1.993,1.353-3.549,2.822-4.538c0-0.48,0-0.945,0-1.411c1.571-0.465,1.222-2.851,2.967-3.127
					c0.116-0.786,0.131-1.658,1.105-1.571c-0.043-0.451-0.029-0.858,0.465-0.786c0.117-0.48-0.436-0.306-0.32-0.786
					c0.334-0.334,0.771-0.596,1.571-0.465c0.611-0.858,1.105-1.818,2.342-2.036c0.16-1.047,1.266-1.135,2.196-1.411
					c-0.043-1.193,0.437-1.862,0.786-2.662c-1.236-0.539-1.571-1.979-2.036-3.288c-1.426-0.087-1.513-1.513-2.502-2.036
					c-1.077,0.276-0.96-0.189-1.731-0.465c-1.338,0.218-2.531-0.029-3.593-0.786C380.018,46,563.61,46,747.174,46z M746.548,109.098
					c-0.058-3.171,0.801-5.455,0.466-8.917c-0.509-0.131-0.814-0.436-0.945-0.945c0.116-0.786,0.916,0.087,0.945-0.786
					c-1.251-1.411-2.604,0.931-3.753,0.946c0,0.567,0,1.149,0,1.716c-1.192,0.495-0.713,2.633-2.356,2.662
					c-0.116,0.48,0.437,0.306,0.32,0.786c-0.335,0.349-0.509-0.131-0.785,0.16c0,0.363,0,0.727,0,1.091
					c-0.698,0.262-0.35,1.12-1.251,1.411c-0.51,2.808-2.662,3.055-3.913,5.164c-0.262,0-0.523,0-0.785,0
					c-0.131,0.815-0.466,1.426-0.785,2.037c-0.306,0-0.204-0.422-0.626-0.306c-0.044,1.673-0.756,2.691-2.821,2.342
					c0,0.422-0.495,0.349-0.466,0.786c-0.073,0.625,0.844,0.8,0.306,1.411c-0.407,0.044-0.116-0.611-0.626-0.465
					c-0.334,0.233-0.363,0.786-0.931,0.786c-0.015-0.625-0.8-0.465-1.411-0.48c-0.072,0.553-0.538,0.727-0.625,1.251
					c0.465,0.058,1.222-0.175,1.251,0.32c-0.422-0.131-0.814,0.975-0.16,0.931c-0.015-0.844,0.785-0.873,1.73-0.771
					c0.073-0.495-0.494-0.364-0.319-0.946c1.251,0.248,2.152-0.611,3.287-0.945c0.116-0.465-0.16-0.567-0.16-0.931
					c0.218,0,0.349-0.073,0.479-0.16c0.582-0.16,0.248,0.596,0.771,0.465c0.363-0.465-0.204-1.062-0.306-1.556
					c0.16,0,0.189-0.131,0.306-0.16c0.669-0.131,0.349,0.698,0.64,0.945c1.382,0.233,1.353-0.945,2.182-1.265
					c1.367,1.425,2.095-1.644,4.394-0.771c0.232-0.393,0.625-0.625,0.931-0.945c2.138,0.407,2.807-1.426,3.767-2.662
					C745.108,109.957,745.748,109.447,746.548,109.098z M726.024,120.997c0-0.408,0.088-0.917-0.306-0.931
					c-0.028,0.175-0.247,0.175-0.465,0.16C725.297,120.691,725.676,120.851,726.024,120.997z M725.254,122.567
					c0-0.262,0-0.524,0-0.786c-0.917,0.116-1.048,0.131-1.411-0.465c-0.684,0.523,0.16,0.844,0.306,1.411
					C724.526,122.669,724.745,122.48,725.254,122.567z M721.807,123.818c0.043-0.509,0.741-0.888,0.465-1.251
					c-0.159,0-0.305,0-0.465,0C721.588,122.684,721.123,123.818,721.807,123.818z M720.701,122.727
					c0.232,1.585-0.567,2.124-0.306,3.127C722.024,125.767,720.585,122.596,720.701,122.727z M714.912,126.8
					c0.218-0.204,0.276-0.945-0.16-0.945C714.548,126.058,714.49,126.8,714.912,126.8z M703.959,132.429
					c0.48,0.073,0.495-0.334,0.466-0.771c-0.16,0-0.32,0-0.466,0C703.959,131.905,703.959,132.167,703.959,132.429z
					 M701.923,131.658c0.262,0,0.523,0,0.771,0c-0.116-0.407-0.203-0.844-0.771-0.786
					C701.617,131.164,701.908,131.266,701.923,131.658z M701.442,133.214c0-0.363,0-0.727,0-1.091c-0.262,0-0.523,0-0.771,0
					c0.015,0.451-0.087,1.018,0.146,1.251C701.123,133.404,701.166,133.2,701.442,133.214z M661.21,143.556
					c-0.044-0.305,0.175-0.349,0.146-0.625c-0.175-0.189-0.553-0.189-0.931-0.16C660.309,143.396,660.57,143.658,661.21,143.556z
					 M656.352,143.236c-0.654-0.407-0.654,0.247-1.251,0.32c0-0.421,0-0.843,0-1.25c-1.978-0.131-1.425,3.258,0,3.287
					c0.306-0.844-1.178-1.266,0-1.571c0,0.262,0,0.523,0,0.785C655.727,144.487,656.352,144.182,656.352,143.236z M648.992,149.971
					c-0.131-2.167,2.182-2.734,1.091-5.323c-0.029,0.232-0.378,0.145-0.626,0.16c-0.116,0.814-0.931,0.946-1.251,1.557
					c-0.305-0.669-0.494-1.484-0.931-2.037c-0.523,0-1.047,0-1.57,0c0.159,1.716-2.444,0.175-3.288,0
					c-1.265,1.193-2.443-0.174-3.287-0.771c-1.062,0.262-1.076,0.989-2.356,0.771c-1.062,1.44-2.342-1.149-3.433-0.305
					c-0.087,0.232,0.175,0.814-0.16,0.785c-1.091-0.204-1.992-1.527-2.981-0.48c-1.353-1.076-2.88,0.524-4.073-0.305
					c-0.203,0-0.145,0.276-0.305,0.305c-0.35-0.654-1.964-1.251-2.502-0.305c-0.654-1.12-1.804-0.786-2.662-1.716
					c-0.102,0.465-0.349,0.8-0.945,0.771c-0.567,0-0.131-1.018-0.466-1.25c-1.018,0.218-1.847-0.64-3.447-0.306
					c-0.072-0.669-0.741-0.728-0.945-1.251c-0.582-0.058-0.407,0.625-1.091,0.465c0.015-0.582-0.684-0.48-0.466-1.251
					c-1.41,0.306-1.629-0.567-2.821-0.48c-0.015-0.814-0.247-1.149,0-1.876c-0.523-0.204-1.236-0.233-1.251-0.931
					c0.291-0.596,0.291-0.669,0-1.251c1.033-3.171,5.469-3.68,6.734-6.109c0.364,0.043,0.291,0.538,0.771,0.465
					c0.45-0.465-0.364-0.538-0.146-1.251c1.687,0.218,2.036-4.058,4.072-2.501c0.582-1.455,1.338-2.735,2.808-3.288
					c0-1.149,1.091-1.164,0.945-2.036c0.451,0.16,0.8,0.436,1.571,0.305c0-0.785,0-1.556,0-2.342
					c-1.542-0.232-0.975,1.644-2.517,1.411c0.262,0.422-0.204,0.8,0.16,1.251c-0.742,0.029-0.873,0.684-1.717,0.625
					c0.015,0.378,0.029,0.756-0.32,0.785c-0.567,0-1.148,0-1.716,0c-0.291,0.844-0.931,1.353-1.731,1.716
					c-0.232,0.597,0.698,0.029,0.48,0.625c-0.451,0.465-0.276-0.393-0.785-0.305c-0.655,0.174-1.062,0.596-0.946,1.556
					c-1.076-0.102-1.483,1.44-3.127,1.251c-0.858,1.338-2.08,2.298-4.072,2.516c-0.51,1.222-3.607,2.502-4.233,0.931
					c-0.188-0.495,0.32-2.226,0.48-2.502c0.131-0.247,0.654-0.378,0.771-0.625c0.146-0.291-0.087-0.8,0-0.945
					c0.728-1.12,2.255-1.469,2.196-2.662c1.63-0.102,1.149-1.557,2.356-1.876c-0.146-0.16-0.582-0.044-0.479-0.465
					c0.465-0.117,0.494-0.669,1.251-0.48c0-0.248,0-0.509,0-0.771c0.887,0.247,0.713-0.538,0.945-0.946
					c0.422-0.014,0.319,0.262,0.625,0c0.073-0.901,1.586-1.978,2.502-2.036c-0.044-0.582-0.829-0.422-0.771-1.091
					c0.334-0.349,0.625,0.146,1.251,0c0.916-0.684,1.454-1.527,2.342-2.196c0.102-0.073,0.232,0.204,0.319,0.16
					c0.975-0.582,1.382-2.312,2.662-2.196c0.087-0.218-0.189-0.814,0.146-0.785c2.021-0.015,2.036-2.037,4.553-1.557
					c0.218-0.364,0.538-0.611,0.771-0.945c0.248,0.538,1.048,0.523,1.892,0.465c0.16-0.582-0.597-0.247-0.48-0.771
					c0.219,0,0.35-0.087,0.48-0.16c1.148,0.785,1.091,2.225,1.251,4.218c1.425-0.334,0.988-2.545,2.036-3.287
					c-0.175-1.207,0.232-2.138,0-2.967c-0.059-0.218-0.451-0.407-0.48-0.625c-0.015-0.174,0.466-0.582,0.48-0.785
					c0-0.073-0.495-0.553-0.48-0.786c0.044-0.451,0.538-0.218,0.48-0.625c-0.059-0.334-0.742-0.538-0.48-1.091
					c-1.817-0.16-2.283-0.625-3.912,0c-0.379,0.305,0.262,0.669-0.306,0.785c-0.276-0.204-0.626-0.334-0.626-0.785
					c-0.697,0.712-2.108,0.698-2.661,1.556c-1.586-0.887-2.065,1.731-4.233,1.251c-0.028,0.48,0.582,0.538,0.16,0.945
					c-1.294-0.712-1.513,1.499-2.981,0.625c-0.087,0.32-0.232,0.597-0.785,0.466c-0.262,0.102,0.015,0.742-0.306,0.785
					c-1.31,0.306-1.527,1.716-3.128,1.731c0.189,1.396-1.309,1.105-2.036,1.557c0.103,0.887-0.582,1.003-0.625,1.73
					c-0.306-0.073-0.131-0.611-0.626-0.48c-0.16,0.48-0.494,0.771-0.64,1.266c-2.226-0.262-1.6,2.356-3.433,2.502
					c-0.451,2.938-3.2,3.578-3.287,6.88c-0.262,0-0.524,0-0.786,0c0.742,1.44-1.192,1.804-0.945,3.927
					c-0.785,0.713-1.469,2.298-0.465,3.127c0.087-0.32,0.305-0.655,0.625-0.32c-0.597,0.611-0.873,1.542-1.411,2.197
					c1.527,0.873-0.989,1.76,0,2.662c-0.494-0.029-1.148-0.364-1.57,0c-0.116,0.48,0.538,0.189,0.319,0.786
					c-1.498,0.189-2.152,1.469-3.752,1.091c-0.306,0.174-0.219,0.727-0.48,0.945c-1.673,0.116-2.283,0.727-4.218,0.786
					c-0.233,0.451,0.174,0.582-0.32,0.771c-0.684,0.175-0.509-0.523-1.091-0.465c-0.567,0.844-2.662,0.16-2.982,1.251
					c-1.003-0.611-1.73,0.306-2.821,0.48c-0.262-0.364-0.858-0.393-1.091-0.786c-0.654,0.495-1.251,0.175-1.877,0.786
					c-0.276-0.146-0.203-0.64-0.785-0.48c-0.262,0.204,0,0.945-0.465,0.945c-0.276-0.291-0.422-0.727-0.786-0.945
					c-0.349,0.567-3.112,0.829-3.753-0.306c-0.247,0.625-0.596,0.175-1.105,0.466c-0.712-1.047-1.963-1.542-3.287-1.251
					c-0.64-1.498-3.287-0.989-3.127-3.287c-0.873,0.247-0.713-0.539-0.945-0.946c-2.677-0.654-1.396-5.265-3.593-6.415
					c0.437-0.975-0.684-0.873-0.785-1.716c0.334,0.015,0.494-0.131,0.465-0.48c-0.218-0.465-0.728-0.625-0.931-1.091
					c0.567-2.778-0.975-4.742-2.036-6.734c0.349-1.208-0.698-1.906-0.786-3.127c-0.232-0.087-0.814,0.174-0.785-0.16
					c0.698-0.495,0.509-1.804,0-2.356c0.451-0.232-0.276-1.207,0.466-1.716c-0.189-0.538-0.858-0.596-0.932-1.251
					c0.553-0.334,0.495-1.28,0.466-2.196c-0.232-0.232-0.8-0.131-1.251-0.16c0.044-0.364-0.029-0.597-0.16-0.771
					c-1.032-0.306-1.047,0.669-1.716,0.305c-0.233,0.407-0.073,1.193-0.945,0.946c0.131,1.265-0.932,1.498,0,2.342
					c-1.339,0.858-0.858,3.534-1.717,4.858c0.32,0.087,0.582,0.248,0.466,0.786c-0.888,0.814-0.015,3.549-1.251,4.698
					c-0.116,0.523,0.625,0.189,0.465,0.771c-1.047,1.003-0.771,1.993-0.785,3.607c-0.393,0.204-0.479-0.073-0.625,0.16
					c0.581,0.334-0.466,0.349-0.306,0.786c-0.219,0.843,0.596,0.654,0.465,1.411c-0.436,0.349-0.756,0.8-1.25,1.091
					c-0.306,2.88-0.422,5.178-1.731,7.2c0.189,0.073,0.363,0.174,0.48,0.32c-0.059,0.364-0.553,0.291-0.48,0.771
					c1.047,0.495,0.175,1.833-0.306,2.196c0.393,1.716,0.626,2.618,0.786,4.538c0.566,0.218,0.931,0.64,0.785,1.571
					c0.479,0.349,1.062,0.596,1.557,0.945c0.45-0.48,0.553-0.684,0.625-1.266c2.139-0.407,1.571-3.462,2.356-4.844
					c-0.582-1.192,1.019-2.385,0.466-4.538c0.262,0,0.523,0,0.785,0c-0.044-0.582-0.698-0.567-0.466-1.411
					c0.189-0.218,0.728-0.102,0.932-0.32c0-0.523,0-1.047,0-1.556c0.45-0.073,0.712-0.334,0.785-0.786
					c-0.291-0.073-0.945,0.204-0.785-0.32c0.494-0.422,0.566-0.669,1.41-0.465c0.276-0.204,0-0.931,0.466-0.946
					c0.509,0.073,1.353-0.204,1.411,0.32c-0.32,0.087-0.538,0.305-0.626,0.625c0.684-0.117,0.814,0.334,0.945,0.785
					c-1.367,1.527,0.96,3.462,0.466,4.844c1.091,0.16,1.251,2.342,1.251,4.073c0.232,0.451,1.019,0.349,1.251,0.786
					c-0.262,1.149,0.087,1.44,0.32,2.501c1.047,0.204,1.396,1.12,1.716,2.037c0.276,0.305,0.466-0.175,0.785,0.16
					c-0.087,1.134,1.149,0.945,0.786,2.356c0.479,0.117,0.305-0.436,0.785-0.32c0.146,0.378,0.625,0.422,0.466,1.091
					c0.975,0.334,2.094,0.509,2.196,1.731c3.083-0.189,3.781,1.411,6.734,1.557c0.218-0.553,1.338-0.218,2.036-0.306
					c0.814-0.698,1.92-1.062,2.968-0.786c1.541-0.654,3.418-0.96,5.323-1.251c0.785-0.771,1.629-0.829,2.822-0.945
					c0.393-0.931,1.353-1.498,1.41-2.342c1.906-0.262,3.143-1.935,4.698-2.036c0.015-0.989,0.742-0.946,1.411-0.946
					c0.073-0.48-0.378-0.64,0.146-0.771c0.276,0.131,0.204,0.625,0.785,0.465c0.597-1.411,2.342-1.527,3.447-2.037
					c0.276,0.669,0.96,0.917,2.037,0.786c0.203,0.625,1.047,0.625,0.945,1.556c0.64-0.014,1.483,0.437,1.251,1.731
					c0.363,0.16,0.727,0.306,0.785,0.786c0.509,0,1.032,0,1.557,0c0,0.364,0,0.727,0,1.091c1.454,0.567,2.676,1.12,3.447,2.662
					c0.45,0.291,1.338,0.073,1.876,0.32c0.087,0.029,0.015,0.422,0.16,0.465c0.378,0.087,1.207-0.16,1.716,0
					c0.175,0.058,0.335,0.451,0.48,0.465c0.479,0.073,1.135-0.32,1.557-0.16c0.625,0.247,0.596,0.916,0.945,0.945
					c0.131,0.015,0.538-0.873,0.625-0.32c0.015,0.436-0.262,0.32,0,0.625c0.698,0.131,1.033-0.102,1.411-0.306
					c0.538,0.291,0.902,0.756,1.717,0.786c0.465-0.451-0.394-0.276-0.306-0.786c0.814,0.015,0.582,0.625,1.251,0.786
					c0.756,0.16,1.6-0.539,1.876-0.48c0.626,0.145,0.378,1.105,1.091,0.945c0.698,0.16,0.523-0.524,1.105-0.465
					c0.204,1.076,0.786-0.102,1.411,0c1.571,1.091,5.367-1.309,7.2,0c0-0.422-0.088-0.931,0.306-0.946
					c0.393,0.291,1.309,0.058,1.57,0.466c1.804,0.189,0.306-2.924,1.251-3.593c0.35,1.164,1.222,1.803,0.945,3.593
					c0.262,0,0.523,0,0.786,0c-0.989-3.127,3.359-2.167,3.593-0.771c1.294-0.684,1.396-2.575,1.876-4.073
					c0.785,0.247,0.509-0.553,1.105-0.48c0,0.785-0.16,1.731,0.466,1.891c-0.32,0.262-0.524,0.625-0.626,1.091
					c-0.669-0.102-0.814,0.335-1.091,0.625c0.8-0.014,0.072,1.499,0.931,1.411c0.597,0.233,0.029-0.698,0.626-0.465
					c0.378-0.073-0.088,0.712,0.479,0.465c0.611-0.276,1.164-0.611,1.717-0.945c0.131-0.495-0.523-0.204-0.466-0.625
					C647.959,149.171,648.643,150.276,648.992,149.971z M538.286,143.556c0.393,0.015,0.757,0.029,0.786-0.32
					c-0.713-0.015-0.407-1.047-0.466-1.716c-0.713-0.029-0.64-0.829-1.251-0.945c-0.669,0.393-2.051,0.174-2.356-0.306
					c-1.818,0.131-1.527-0.887-3.287-0.786c-0.363-0.843-1.192-1.207-1.717-1.876c0.175-0.975-0.363-1.222-0.785-1.571
					c0-0.305,0.422-0.204,0.306-0.625c-0.232-0.306-0.654,0.276-0.785-0.32c0.058-1.251-0.233-2.851,0.479-3.433
					c-0.756-1.6-0.437-2.342-1.251-3.767c0.175-0.451,0.684-0.567,0.466-1.411c-0.204-0.218-0.742-0.087-0.945-0.306
					c-0.219-1.454-1.048-2.298-0.786-4.232c-0.814-0.16-1.469-0.509-1.251-1.716c-0.712-0.48-1.629-0.771-2.036-1.571
					c-2.269,0.393-2.865,2.458-4.378,3.607c-0.116,0.48,0.437,0.291,0.32,0.771c-1.411-0.146-1.033,1.498-2.037,1.731
					c0,0.364,0,0.727,0,1.091c-1.891,1.774-3.33,3.985-4.698,6.269c-0.64-0.218-0.494,0.334-0.945,0.306
					c-0.479,0.422,0.641,0.538,0.16,0.945c-1.163-0.218-0.975,0.902-1.251,1.571c-1.439-0.232-1.309,0.8-1.73,1.251
					c-0.276-0.146-0.204-0.64-0.786-0.48c-0.102,0.48-0.305,0.844-0.625,1.105c0.901,0.32-0.698,1.862-1.091,1.876
					c-0.684,0.029-3.346-3.098-1.717-4.233c0.029-0.814-0.015-1.556-0.159-2.182c0.349-0.437,0.523-0.043,0.931-0.32
					c-0.888-1.353-0.116-2.895,0.479-4.073c-0.188-0.335-0.669-0.378-0.479-1.091c0.276-0.291,0.465,0.189,0.785-0.16
					c0.218-0.64-0.335-0.495-0.306-0.946c1.091-0.829,0.35-3.505,1.557-4.218c-0.931-1.019-0.131-2.75,0.48-3.607
					c-0.539-1.891,0.553-2.88,0-4.698c0.262,0,0.523,0,0.785,0c-1.338-0.771,0.596-2.517-0.48-2.967
					c0.088-0.495,0.742-0.422,0.786-0.945c-0.248-0.829-1.019-2.095-0.306-2.502c-0.654-0.451-1.483-0.713-1.266-2.036
					c-1.426-0.756-1.644,0.771-2.808,0.785c0,0.625,0,1.251,0,1.876c-0.334,0.349-0.975,0.378-1.265,0.786
					c0.334,0.291,0.829,0.421,0.785,1.091c-0.713,2.24-1.571,3.782-1.251,6.415c-0.262,0-0.523,0-0.785,0
					c-0.117,0.538,0.64,0.204,0.479,0.785c-0.349-0.029-0.509,0.131-0.479,0.48c0.072,1.818-0.335,2.226-1.251,2.967
					c0.188,1.542-0.844,1.862-1.251,2.822c0.087,0.378,0.61,0.335,0.465,0.946c-0.422,0.349-0.756,0.8-1.251,1.091
					c-0.131,0.495,0.524,0.218,0.48,0.625c-0.669,0.232-0.494,1.28-1.266,1.411c-0.291,2.226,0.247,3.622,1.266,4.539
					c-1.483,2.036,0.698,5.192-0.48,7.04c0.917,0.596,0.379,2.662,1.251,3.287c0.059,0.422-0.596,0.131-0.465,0.64
					c0.771,0.814,0.567,2.996,0.945,3.752c1.222,0.087,1.135,1.469,1.557,2.342c1.41,0.422,3.171,0.8,4.393,0.945
					c0.203-1.105,1.323-1.934,1.876-2.196c-0.232-0.029-0.146-0.378-0.16-0.625c0.989,0,1.033-0.945,2.037-0.931
					c0.131-0.756-0.146-1.105-0.306-1.571c0.363-0.044,0.291-0.539,0.771-0.466c0.059,0.466-0.175,1.208,0.32,1.251
					c0.087-0.232,0.247-0.378,0.465-0.48c-0.131-0.567-0.654-0.931-0.305-1.556c2.036-0.873,3.563-4.16,4.844-5.789
					c0-0.378,0-0.742,0-1.105c2.196-1.251,2.211-4.669,4.072-6.255c-0.116-1.745,2.88-2.283,3.768-1.105
					c-0.044,0.32-0.422,0.305-0.48,0.625c1.353,1.004,0.684,3.157,1.731,4.539c0.028,0.349-0.131,0.509-0.466,0.48
					c0.189,0.538,0.538,0.916,0.771,1.411c-1.018,2.327,0.757,4.422,0.48,7.04c0.087,0.276,0.742-0.015,0.771,0.32
					c-0.015,2.211,1.542,2.4,1.731,3.913c0.582,0.16,0.247-0.597,0.785-0.48c0.32,0.043,0.306,0.422,0.466,0.64
					c-0.306,0.204-0.611,0.422-0.466,1.091c0.523,0.087,0.306-0.364,0.626-0.466c1.032-0.349,2.764,0.451,2.967,0.466
					c1.557,0.087,1.323-0.669,2.517,0c0-0.524-0.829-0.698-0.32-1.251c0.582-0.058,0.407,0.625,1.091,0.465
					c0.204-0.625-0.509-0.32-0.306-0.945c0.655-0.349,0.553-0.189,1.251,0c-0.102-1.236,0.814-1.004,1.251-1.396
					C538.301,144.182,538.141,144.196,538.286,143.556z M494.286,145.593c0-1.309,1.077-2.502-0.16-3.287
					c-1.323,0.029-2.923-0.218-3.592,0.465c-0.422,0.043-0.132-0.611-0.626-0.465c-0.291,0.232,0.029,1.062-0.625,0.931
					c-0.276-0.146-0.407-0.437-0.32-0.931c-1.236,0.901-2.88,1.396-5.164,1.25c-0.276,0.087,0.015,0.742-0.319,0.771
					c-1.28-0.727-4.888,0.858-6.255-0.465c-0.553-0.087-0.393,0.553-0.945,0.465c-0.407-0.32-0.757-0.698-1.411-0.771
					c-0.306,0.829-1.949,0.335-2.967,0.466c0.043-0.989-1.077-0.8-1.105-1.716c-0.932-0.015-1.251-0.64-1.557-1.266
					c-0.989,0.146-1.571-0.073-2.036-0.771c-0.175-0.596,0.581-0.247,0.465-0.786c-0.247-3.622,1.688-4.625,1.571-7.52
					c-0.059-0.408,0.597-0.117,0.466-0.625c-0.335-0.189-0.698-0.335-0.786-0.786c0.378-0.291,0.393-0.975,0.786-1.251
					c-0.306-0.378-0.67,0.262-0.786-0.305c0.044-0.32,0.422-0.32,0.466-0.64c-0.582-0.771-1.905-1.455-1.251-2.967
					c-1.804-1.164-2.356-3.578-4.218-4.698c0.145-1.033-0.291-1.498-0.48-2.196c-0.814,0.116-1.135,0.742-1.557,1.251
					c0.829,0.262,0.669-0.466,1.251-0.466c0,0.946-0.945,0.931-1.251,1.571c0.437,0.451,0.669,0.494,1.251,0.146
					c-0.146,0.509,0.407,0.334,0.466,0.64c-0.728,0.349-0.276,1.906-0.931,2.342c1.222,0.975,0.509,1.455,0.146,2.356
					c-0.263,0.64-0.219,1.906-0.466,2.342c-0.306,0.538-1.135,0.829-1.251,1.091c0.378,3.52-3.2,3.069-3.753,5.644
					c-0.61,0.014-0.625,0.64-1.105,0.785c-0.262,0-0.523,0-0.785,0c-0.32,0.291-0.48,0.771-0.626,1.251
					c-3.709,1.396-5.92,4.306-10.167,5.164c0.393-0.073,0.728,0.713,0.306,0.945c-0.538,0.117-0.204-0.64-0.785-0.48
					c-1.411,0.684-2.721,1.455-4.073,2.197c-0.378-0.087-0.334-0.611-0.931-0.466c-1.295,0.349-2.124,1.091-4.232,1.251
					c-0.16-0.146-0.044-0.582-0.466-0.465c-1.091,0.015-1.629,0.189-2.356-0.32c-0.232,0.174-0.32,0.509-0.771,0.465
					c-0.437-0.349-0.103-0.509-0.16-1.251c-0.335-0.334-0.975-0.378-1.251-0.786c-0.16-2.08,0.029-3.825,1.251-4.538
					c-0.146-0.16-0.582-0.043-0.48-0.465c0.655-0.858,0.873-2.269,2.036-2.982c0.233-2.226,1.979-2.924,2.982-4.378
					c0.072-0.495-0.276-0.553-0.16-1.091c0.888-0.48,2.24-1.134,2.036-2.196c1.818-0.844,2.313-3.666,4.233-3.913
					c0.058-0.669,0.247-1.208,0.625-1.571c1.586,0.276,2.327-0.276,2.342-1.571c0.64-0.204,0.494,0.349,0.945,0.32
					c1.004-0.495,1.091-2.444,2.502-2.037c0.276-0.087-0.015-0.742,0.32-0.785c1.861,0.407,2.123-0.786,3.127-1.251
					c0.582-0.058,0.407,0.64,1.091,0.465c0.611-0.015,0.626-0.625,1.105-0.771c0.873,0.684,2.356-0.218,3.593-0.16
					c0.844,1.149,2.284,1.455,3.607,1.411c-0.059,0.364,0.029,0.597,0.16,0.786c0.306,0,0.625,0,0.931,0
					c0.116-0.553,0.146-1.077,0.945-1.266c-0.072-0.451-0.334-0.712-0.785-0.771c-0.087,0.218,0.189,0.8-0.16,0.771
					c-0.684-0.131-0.8-0.611-0.625-1.251c-0.553-0.087-0.379,0.553-0.932,0.48c0-0.422,0-0.843,0-1.265
					c-1.701-0.117-2.53-1.12-3.927-1.557c-0.189,0.175-0.276,0.451-0.771,0.306c-0.305-0.218-0.45-0.596-0.945-0.625
					c-0.975,0.858-3.912-0.262-4.698,0.786c-0.596-0.306-0.844,0.029-1.57-0.16c-0.451,0.698-1.979,0.32-2.502,0.945
					c-0.437,0.131-0.407-0.218-0.785-0.16c-0.771,0.786-1.615,1.513-3.434,1.251c-0.146,1.164-0.756,2.167-1.265,2.196
					c0.043,0-0.263-0.407-0.146-0.465c-0.684,0.334-0.945,1.149-2.037,1.251c0.044,0.902-0.654,1.455-1.41,1.091
					c-0.088,0.946-1.28,1.208-1.731,2.196c-0.306,0-0.625,0-0.931,0c-0.015,2.065-2.139,2.037-2.662,3.607
					c-1.178,0.378-1.818,1.309-1.876,2.807c-0.189,0.131-0.422,0.204-0.785,0.16c-0.553,1.382-0.96,1.964-2.037,2.822
					c-0.146,0.495,0.51,0.218,0.466,0.625c-0.466,0.102-0.523,0.625-0.466,1.251c-0.203,0.218-0.741,0.102-0.945,0.32
					c0.247,0.829-0.858,1.353-0.931,2.342c-1.513,0.073-1.644,1.527-2.196,2.662c-0.059,0.116-0.407,0.073-0.466,0.16
					c-0.843,1.208-0.319,2.822-0.479,4.698c0.349,0.393,0.931,0.539,0.945,1.251c-0.16,0-0.189,0.131-0.32,0.16
					c-0.232-0.073-0.131-0.495-0.625-0.32c0.509,1.12,0.814,2.138,1.266,2.981c-1.499,1.906,2.196,2.778,1.716,4.698
					c0.232,0.437,1.019,0.334,1.251,0.771c-0.349,0.073-0.059,0.771-0.16,1.105c0.713,0.073,1.164,0.407,0.945,1.411
					c0.786,0.262,0.786-0.742,1.251-0.32c0.073,0.495-0.276,0.553-0.16,1.091c0.626,0.204,0.32-0.509,0.946-0.305
					c0,0.363,0,0.727,0,1.091c0.479,0.116,0.29-0.422,0.785-0.306c0.131,0.291,0.451,0.989,0.931,1.251
					c0.363,0.204,1.629,0.073,2.196,0.306c0.48,0.204-0.015,0.422,0.466,0.48c0.829,0.102,1.804,0.174,2.356-0.48
					c0.291,1.251,1.338-0.625,1.41,0.48c1.208-0.625,2.299-1.367,3.434-2.037c0.596,0.117,0.014,0.539,0.319,0.786
					c0.945-0.786,2.022-1.425,2.662-2.517c1.367,0.102,2.065-1.774,4.072-1.556c0.335-0.509,0.698-0.975,1.717-0.786
					c0.713-1.891,3.637-1.134,3.768-3.287c1.236,0.175,1.032-1.324,2.182-0.786c0.276-0.247,0.393-0.654,0.32-1.25
					c1.323,0.058,1.469-1.979,2.821-0.946c0.378-0.553,1.076-0.814,0.466-1.556c0.523,0.043,1.353-0.218,1.251,0.465
					c1.439-0.931,2.792-0.073,2.821,1.571c1.862-0.146,1.076,2.356,2.662,2.502c0.306-0.073,0.116-0.611,0.625-0.465
					c0.495,0.756,0.902,1.6,2.037,1.716c-0.059,0.364,0.028,0.596,0.159,0.786c1.615,0.102,1.906,0.654,3.128,1.25
					c1.542-0.189,2.604,0.117,3.287,0.786c1.382-1.105,4.407,0.276,5.164-1.251c0.727,0,1.469,0,2.196,0
					c0.218-0.567,0.64-0.931,1.57-0.785c0.262-1.513,2.386-1.164,2.808-2.502c0.306,0.015,0.116,0.509,0.479,0.465
					c0.35-0.654,0.597-1.091,1.557-0.786c0.363-0.16-0.072-1.12,0.32-1.25c2.414-0.029,3.724-1.178,4.538-2.822
					C493.967,145.273,493.864,145.694,494.286,145.593z M415.523,147.629c0.422,0,0.843,0,1.251,0
					c-0.466-0.48-0.553-1.323-0.466-2.356c-0.902,0.174-0.742-0.713-1.716-0.466c-0.436,0.8-1.483,0.029-1.731,0.931
					c-1.192-0.669-1.76,0.509-2.967,0.32c0.015,0.393,0.029,0.756-0.32,0.786c-0.364-0.058-0.291-0.553-0.786-0.48
					c-0.232,1.12-1.978,0.727-2.662,1.411c-0.437-0.232-0.669-0.785-1.251-0.465c-0.087,0.233,0.189,0.814-0.16,0.786
					c-1.469,0.451-3.142,0.422-4.698,0.785c-0.029,0-0.131,0.422-0.306,0.465c-0.786,0.218-1.193-0.349-1.876-0.465
					c-1.149-0.204-2.56,0.117-3.142-0.785c-0.495-0.073-1.353,0.204-1.396-0.32c0.727-0.916-0.989-1.687,0-2.342
					c0.771,1.105,1.353-0.887,1.556-1.571c0.611-0.131,0.567,0.378,0.946,0.465c0.393-0.96,0.975-1.731,1.251-2.807
					c1.033,0.087,1.091-0.786,1.716-1.105c-0.291-2.007,1.527-1.92,2.036-3.127c0.044-0.407-0.596-0.116-0.465-0.625
					c0.698-0.305,1.091-0.887,2.036-0.945c0.146-0.611-0.873-0.058-0.785-0.625c-0.087-0.931,0.189-1.483,1.091-1.411
					c0.029-0.48-0.48-0.437-0.306-1.091c0.175-0.131,0.422-0.204,0.786-0.16c0.306-1.164-1.076-2.851,0.931-2.967
					c-0.32-0.48,0.248-0.945-0.145-1.411c-0.713-0.232-0.48,0.451-1.105,0.306c-0.073-0.291,0.218-0.931-0.306-0.771
					c0.102,0.96-0.582,1.178-0.48,2.502c-0.727-0.16-0.887,0.262-1.251,0.465c0,0.625,0,1.251,0,1.876
					c-1.193,0.422-1.193,2.051-2.502,2.356c-0.014,2.124-2.225,2.051-2.501,3.913c-1.295-0.029-1.44,1.396-2.196,2.036
					c-1.019,0.873-2.517,1.309-3.753,2.037c-0.102,0.422-0.073,0.975-0.32,1.251c-1.615,0.218-2.356,0.349-4.073,0.465
					c-0.96-0.858-1.833-1.818-1.557-3.913c0.713-0.931,1.077-1.92,0.771-3.288c0.465-0.262,0.334-1.134,0.945-1.251
					c0.015-1.033-0.218-2.312,0.786-2.356c0.16-0.582-0.582-0.248-0.465-0.771c0.756,0.029,0.232-1.222,1.251-0.945
					c-0.204-1.862,1.033-2.037,1.091-3.288c0.625,0.378,0.378-0.247,0.945-0.32c-0.451-2.211,1.135-2.4,1.251-4.058
					c1.003,0.32,0.553-0.8,1.091-0.946c0.306,0.059,0.131,0.611,0.625,0.466c-0.364-0.829,0.218-0.698,0.786-0.931
					c0.087-0.975,0.654-1.44,1.571-1.571c0.015-0.975,0.611-1.367,1.716-1.251c-0.029-0.393-0.029-0.756,0.32-0.786
					c1.353,0.306,1.484-0.596,2.182-0.785c1.105-0.276,2.109,0.174,2.516-0.465c-0.029,0.393-0.029,0.756,0.146,0.945
					c1.004-0.204,0.204-1.44,1.251-1.731c-0.64-1.28-2.298-1.556-2.967-2.822c-1.629-0.262-1.935,0.785-3.607,0.48
					c-0.291,0.015-0.102,0.509-0.465,0.465c-0.407,0.044-0.116-0.611-0.625-0.465c-0.189,0.233-0.654,0.174-0.625,0.625
					c0.233,0.276,0.655-0.146,0.786,0.465c-0.422,0.407-0.931,0-1.251-0.16c-1.062,1.047-2.647,1.644-3.607,3.142
					c-0.422,0-0.829,0-1.251,0c-0.189,0.437-0.16,1.091-0.945,0.931c0,0.364,0,0.728,0,1.091c-0.262,0-0.523,0-0.786,0
					c-0.829,1.513-1.483,3.214-3.287,3.767c-0.102,1.338-0.844,1.105-0.771,2.662c-1.294,0.044-0.553,1.208-1.731,1.411
					c-0.116,0.538,0.64,0.189,0.466,0.785c-0.539-0.029-0.509,0.524-0.931,0.625c-0.029,0.64,0.378,0.96-0.32,1.091
					c-0.131,0.509,0.523,0.218,0.48,0.625c-0.437,0.087-0.509,0.538-0.945,0.625c-0.059,0.539,0.698,0.248,0.465,0.946
					c-0.349,0.262-0.669,0.582-0.931,0.931c-0.058,0.684,0.597,0.669,0.466,1.411c-0.495,0.102-0.48-0.291-0.786,0
					c-0.393,0.873,0.422,1.265,0.48,2.036c0.102,1.833-1.251,3.68,0.306,5.164c0,0.524,0,1.047,0,1.571
					c1.25,1.047-0.32,2.909-0.16,4.378c-0.175-0.174-0.553-0.174-0.931-0.146c-0.363,0.437,0.189,0.887-0.32,1.251
					c-0.306,0-0.625,0-0.931,0c-0.276,0.204-0.014,0.931-0.48,0.931c-1.978-0.858-2.792,2.618-4.843,1.571
					c-0.451,0.232-0.349,1.018-0.786,1.251c-0.945-1.077-4.306,1.134-5.018,0.32c-0.742,2.167-3.462,0.233-4.698,1.251
					c-1.091-0.218-1.673-0.945-3.127-0.786c-0.146-0.64-0.727-0.843-1.571-0.785c-0.218-0.204-0.087-0.742-0.305-0.931
					c-2.328,0.087-1.44-2.953-1.876-4.553c-0.073-0.204-0.451-0.436-0.48-0.625c0-0.102,0.509-0.189,0.48-0.625
					c-0.044-0.509-0.495-0.407-0.48-0.625c0.014-0.058,0.422-0.393,0.48-0.625c0.174-0.8-0.073-2.007,0.465-2.196
					c-0.756-1.164-0.087-2.691,0.786-3.593c0.116-0.48-0.16-0.567-0.16-0.945c0.509,0,0.378-0.669,0.945-0.625
					c0.189-2.778,1.105-4.131,2.342-5.629c0.117-0.48-0.422-0.306-0.305-0.786c0.174-0.131,0.407-0.204,0.771-0.16
					c-0.189-1.237,0.815-1.28,0.48-2.662c0.843-0.131,1.222-0.756,1.716-1.251c0.058-0.378-0.291-0.334-0.16-0.785
					c0.873-0.437,0.989-1.149,0.945-2.197c1.455,0.262,0.625-1.774,2.342-1.25c0.058-0.466-0.174-1.208,0.32-1.251
					c0.276,0.146,0.204,0.64,0.785,0.465c0.334-0.218-0.102-1.236,0.466-1.251c0.204,0,0.421,0,0.625,0c0,0.262,0,0.524,0,0.786
					c0.451,0.029,0.306-0.524,0.946-0.306c-0.437,0.771,0.64,0.887,0.305,2.037c0.728,0,1.469,0,2.196,0
					c0.073-0.713,0.408-1.164,1.411-0.946c0.437-1.556,1.498-1.716,1.716-3.287c0.364,0.043,0.611-0.029,0.786-0.16
					c0.16-0.582-0.582-0.247-0.466-0.785c0.044-0.218,0.335-0.175,0.466-0.306c-0.334-1.585,1.6-3.069,0.32-4.393
					c0.262,0.015,0.393-0.116,0.465-0.306c-1.047-1.003-0.814-3.258-1.731-4.393c0.029-0.291,0.524-0.102,0.48-0.465
					c-0.334-0.131-0.553-0.378-0.48-0.931c-0.378,0.015-0.756,0.029-0.771-0.32c-0.437-2.444-2.793-0.131-4.233-1.411
					c-0.887,0.553-1.746,1.178-2.982,1.731c0.015,1.353-1.6,1.105-1.251,2.808c-1.629,0.363-2.196,3.491-4.218,4.393
					c0.363,0.873-0.393,1.047-0.48,1.876c-1.585,0.422-1.818,1.25-1.876,3.127c-1.484,0.814-1.135,3.462-2.822,4.073
					c0.727,0.8-1.033,1.294,0,2.196c-0.582,0.16-0.495-0.334-0.771-0.465c-0.218,0.582-0.102,1.047-0.16,2.022
					c-1.658,0.625-0.553,3.098-2.036,3.767c-0.059,0.524,0.698,0.248,0.465,0.931c-1.135,1.542-1.455,3.883-1.251,6.734
					c-0.698,0.087-0.437,1.135-0.945,1.411c0.276,0.145,0.553,0.291,0.48,0.785c-0.989,3.927,1.192,8.306,0.785,11.738
					c0.742,0.873,0.989,2.254,1.251,3.607c0.393,0.276,0.742-0.16,0.931,0.465c0.015,0.276-0.029,0.495-0.146,0.625
					c2.109,1.658,2.211,4.437,4.844,5.644c0.073-0.189,0.174-0.349,0.32-0.465c0.596,0.262,0.814,0.742,0.786,1.251
					c0.931,0.247,2.152,0.232,2.342,1.251c0.785-1.077,1.585,0.538,2.356-0.466c1.178,1.208,3.637-0.015,4.378-0.785
					c0.306,0,0.204,0.422,0.625,0.305c0.8-1.192,2.836-1.134,3.607-2.342c-0.248-0.015-0.553,0.015-0.48-0.32
					c1.527-0.116,2.531-1.149,2.662-2.182c0.786,0.262,0.553-0.509,0.786-0.785c0.8,0.073,0.945-0.524,1.571-0.625
					c-0.306-0.116-0.698-0.523-0.16-0.625c0.291,0.015,0.116,0.509,0.465,0.465c-0.174-1.28,1.426-0.771,2.197-1.091
					c-0.102-0.945,0.043-1.629,0.625-1.891c0.291,0.029,0.117,0.524,0.466,0.48c1.018-2.007,3.622-0.815,5.483-0.786
					c-0.043,0.364,0.029,0.596,0.16,0.786c0.465,0,0.945,0,1.411,0c0.131,0.174,0.204,0.421,0.16,0.771
					c1.411,0.204,3.04,0.189,3.593,1.266c0.829-0.058,1.629-0.073,1.876,0.465c0.902-1.236,2.109,0.509,3.287,0.465
					c0.48-0.407-0.625-0.523-0.146-0.931c0.364,0,0.728,0,1.091,0c0,0.262,0,0.509,0,0.771c0.815,0.232,0.771-0.364,1.251-0.465
					c0.291,0.131,0.437,0.407,0.786,0.465c0.742-0.393,1.338-0.945,2.196-1.251c0.407-0.043,0.116,0.611,0.625,0.48
					c0.553,0.029,0.669-0.378,0.931-0.625c-0.218-0.146-0.596-0.131-0.465-0.64c0.524,0,1.047,0,1.571,0
					c0.306-0.232-0.276-0.654,0.306-0.771c0.378,0.043,0.291,0.538,0.786,0.465c0.523-0.465,0.698-1.28,1.731-1.251
					c0.102-0.465,0.305-0.844,0.625-1.105c-0.189-0.073-0.363-0.16-0.48-0.306c0.146-0.276,0.349-0.48,0.625-0.625
					c0.276,0.131,0.407,0.437,0.946,0.306c0.102-0.582-0.291-1.644,0.465-1.556c0.364,0.436-0.334,1.033,0.32,1.25
					c0.204-0.363,0.625-0.523,0.466-1.25c1.454-0.495,1.847-2.138,3.607-2.037c0.175-0.873,0.669-1.411,1.411-1.731
					C416.119,147.876,415.363,148.211,415.523,147.629z"/>
				<path d="M747.014,100.182c0.335,3.462-0.523,5.746-0.466,8.917c-0.8,0.349-1.439,0.858-1.251,2.196
					c-0.96,1.236-1.629,3.069-3.767,2.662c-0.306,0.32-0.698,0.553-0.931,0.945c-2.299-0.873-3.026,2.196-4.394,0.771
					c-0.829,0.32-0.8,1.498-2.182,1.265c-0.291-0.247,0.029-1.076-0.64-0.945c-0.116,0.029-0.146,0.16-0.306,0.16
					c0.102,0.495,0.669,1.091,0.306,1.556c-0.523,0.131-0.189-0.625-0.771-0.465c-0.131,0.087-0.262,0.16-0.479,0.16
					c0,0.363,0.276,0.465,0.16,0.931c-1.135,0.334-2.036,1.193-3.287,0.945c-0.175,0.582,0.393,0.451,0.319,0.946
					c-0.945-0.102-1.745-0.073-1.73,0.771c-0.654,0.043-0.262-1.062,0.16-0.931c-0.029-0.495-0.786-0.262-1.251-0.32
					c0.087-0.524,0.553-0.698,0.625-1.251c0.611,0.015,1.396-0.146,1.411,0.48c0.567,0,0.597-0.553,0.931-0.786
					c0.51-0.146,0.219,0.509,0.626,0.465c0.538-0.611-0.379-0.785-0.306-1.411c-0.029-0.437,0.466-0.364,0.466-0.786
					c2.065,0.349,2.777-0.669,2.821-2.342c0.422-0.116,0.32,0.306,0.626,0.306c0.319-0.611,0.654-1.222,0.785-2.037
					c0.262,0,0.523,0,0.785,0c1.251-2.109,3.403-2.356,3.913-5.164c0.901-0.291,0.553-1.149,1.251-1.411c0-0.364,0-0.728,0-1.091
					c0.276-0.291,0.45,0.189,0.785-0.16c0.116-0.48-0.437-0.306-0.32-0.786c1.644-0.029,1.164-2.167,2.356-2.662
					c0-0.567,0-1.149,0-1.716c1.149-0.015,2.502-2.356,3.753-0.946c-0.029,0.873-0.829,0-0.945,0.786
					C746.199,99.746,746.505,100.051,747.014,100.182z M731.043,118.189c0-0.422,0.087-0.931-0.32-0.945
					C730.49,117.491,730.446,118.32,731.043,118.189z"/>
				<path fill="#FFFFFF" d="M730.723,117.244c0.407,0.015,0.32,0.523,0.32,0.945C730.446,118.32,730.49,117.491,730.723,117.244z"/>
				<path d="M725.719,120.065c0.394,0.015,0.306,0.523,0.306,0.931c-0.349-0.146-0.728-0.306-0.771-0.771
					C725.472,120.24,725.69,120.24,725.719,120.065z"/>
				<path d="M725.254,121.782c0,0.262,0,0.524,0,0.786c-0.509-0.087-0.728,0.102-1.105,0.16c-0.146-0.567-0.989-0.887-0.306-1.411
					C724.206,121.913,724.337,121.898,725.254,121.782z"/>
				<path d="M722.271,122.567c0.276,0.363-0.422,0.742-0.465,1.251c-0.684,0-0.219-1.135,0-1.251
					C721.967,122.567,722.112,122.567,722.271,122.567z"/>
				<path d="M720.396,125.854c-0.262-1.003,0.538-1.542,0.306-3.127C720.585,122.596,722.024,125.767,720.396,125.854z"/>
				<path d="M714.752,125.854c0.437,0,0.378,0.742,0.16,0.945C714.49,126.8,714.548,126.058,714.752,125.854z"/>
				<path d="M704.425,131.658c0.029,0.437,0.015,0.844-0.466,0.771c0-0.262,0-0.524,0-0.771
					C704.104,131.658,704.265,131.658,704.425,131.658z"/>
				<path d="M702.693,131.658c-0.247,0-0.509,0-0.771,0c-0.015-0.393-0.306-0.495,0-0.786
					C702.49,130.814,702.577,131.251,702.693,131.658z"/>
				<path d="M701.442,132.124c0,0.364,0,0.728,0,1.091c-0.276-0.014-0.319,0.189-0.625,0.16c-0.232-0.233-0.131-0.8-0.146-1.251
					C700.919,132.124,701.181,132.124,701.442,132.124z"/>
				<path d="M661.355,142.931c0.029,0.276-0.189,0.32-0.146,0.625c-0.64,0.102-0.901-0.16-0.785-0.785
					C660.803,142.742,661.181,142.742,661.355,142.931z"/>
				<path d="M655.101,143.556c0.597-0.073,0.597-0.727,1.251-0.32c0,0.945-0.625,1.251-1.251,1.571c0-0.262,0-0.523,0-0.785
					c-1.178,0.305,0.306,0.727,0,1.571c-1.425-0.029-1.978-3.418,0-3.287C655.101,142.713,655.101,143.135,655.101,143.556z"/>
				<path d="M650.083,144.647c1.091,2.589-1.222,3.156-1.091,5.323c-0.35,0.306-1.033-0.8-1.717-0.16
					c-0.058,0.422,0.597,0.131,0.466,0.625c-0.553,0.334-1.105,0.669-1.717,0.945c-0.567,0.247-0.102-0.538-0.479-0.465
					c-0.597-0.233-0.029,0.698-0.626,0.465c-0.858,0.087-0.131-1.425-0.931-1.411c0.276-0.291,0.422-0.727,1.091-0.625
					c0.102-0.465,0.306-0.829,0.626-1.091c-0.626-0.16-0.466-1.105-0.466-1.891c-0.597-0.073-0.32,0.727-1.105,0.48
					c-0.48,1.498-0.582,3.389-1.876,4.073c-0.233-1.396-4.582-2.356-3.593,0.771c-0.263,0-0.524,0-0.786,0
					c0.276-1.79-0.596-2.429-0.945-3.593c-0.945,0.669,0.553,3.782-1.251,3.593c-0.262-0.408-1.178-0.175-1.57-0.466
					c-0.394,0.015-0.306,0.524-0.306,0.946c-1.833-1.309-5.629,1.091-7.2,0c-0.625-0.102-1.207,1.076-1.411,0
					c-0.582-0.059-0.407,0.625-1.105,0.465c-0.713,0.16-0.465-0.8-1.091-0.945c-0.276-0.059-1.12,0.64-1.876,0.48
					c-0.669-0.16-0.437-0.771-1.251-0.786c-0.088,0.509,0.771,0.334,0.306,0.786c-0.814-0.029-1.179-0.495-1.717-0.786
					c-0.378,0.204-0.713,0.437-1.411,0.306c-0.262-0.306,0.015-0.189,0-0.625c-0.087-0.553-0.494,0.334-0.625,0.32
					c-0.35-0.029-0.32-0.698-0.945-0.945c-0.422-0.16-1.077,0.232-1.557,0.16c-0.146-0.014-0.306-0.407-0.48-0.465
					c-0.509-0.16-1.338,0.087-1.716,0c-0.146-0.043-0.073-0.437-0.16-0.465c-0.538-0.248-1.426-0.029-1.876-0.32
					c-0.771-1.542-1.993-2.094-3.447-2.662c0-0.364,0-0.727,0-1.091c-0.524,0-1.048,0-1.557,0c-0.059-0.48-0.422-0.625-0.785-0.786
					c0.232-1.294-0.611-1.745-1.251-1.731c0.102-0.931-0.742-0.931-0.945-1.556c-1.077,0.131-1.761-0.116-2.037-0.786
					c-1.105,0.509-2.851,0.625-3.447,2.037c-0.581,0.16-0.509-0.334-0.785-0.465c-0.523,0.131-0.072,0.291-0.146,0.771
					c-0.669,0-1.396-0.043-1.411,0.946c-1.556,0.102-2.792,1.774-4.698,2.036c-0.058,0.844-1.018,1.411-1.41,2.342
					c-1.193,0.117-2.037,0.175-2.822,0.945c-1.905,0.291-3.782,0.597-5.323,1.251c-1.048-0.276-2.153,0.087-2.968,0.786
					c-0.698,0.087-1.818-0.247-2.036,0.306c-2.953-0.146-3.651-1.746-6.734-1.557c-0.103-1.222-1.222-1.396-2.196-1.731
					c0.159-0.669-0.32-0.712-0.466-1.091c-0.48-0.116-0.306,0.437-0.785,0.32c0.363-1.411-0.873-1.222-0.786-2.356
					c-0.319-0.335-0.509,0.145-0.785-0.16c-0.32-0.917-0.669-1.833-1.716-2.037c-0.233-1.062-0.582-1.353-0.32-2.501
					c-0.232-0.437-1.019-0.334-1.251-0.786c0-1.731-0.16-3.913-1.251-4.073c0.494-1.382-1.833-3.316-0.466-4.844
					c-0.131-0.451-0.262-0.902-0.945-0.785c0.088-0.32,0.306-0.538,0.626-0.625c-0.059-0.524-0.902-0.248-1.411-0.32
					c-0.466,0.015-0.189,0.742-0.466,0.946c-0.844-0.204-0.916,0.043-1.41,0.465c-0.16,0.523,0.494,0.247,0.785,0.32
					c-0.073,0.451-0.335,0.713-0.785,0.786c0,0.509,0,1.033,0,1.556c-0.204,0.218-0.742,0.102-0.932,0.32
					c-0.232,0.844,0.422,0.829,0.466,1.411c-0.262,0-0.523,0-0.785,0c0.553,2.153-1.048,3.346-0.466,4.538
					c-0.785,1.382-0.218,4.437-2.356,4.844c-0.072,0.582-0.175,0.786-0.625,1.266c-0.495-0.349-1.077-0.596-1.557-0.945
					c0.146-0.931-0.219-1.353-0.785-1.571c-0.16-1.92-0.394-2.822-0.786-4.538c0.48-0.364,1.353-1.702,0.306-2.196
					c-0.072-0.48,0.422-0.407,0.48-0.771c-0.117-0.146-0.291-0.247-0.48-0.32c1.31-2.022,1.426-4.32,1.731-7.2
					c0.494-0.291,0.814-0.742,1.25-1.091c0.131-0.756-0.684-0.567-0.465-1.411c-0.16-0.437,0.887-0.451,0.306-0.786
					c0.146-0.233,0.232,0.043,0.625-0.16c0.015-1.614-0.262-2.604,0.785-3.607c0.16-0.582-0.581-0.248-0.465-0.771
					c1.236-1.149,0.363-3.884,1.251-4.698c0.116-0.538-0.146-0.698-0.466-0.786c0.858-1.324,0.378-4,1.717-4.858
					c-0.932-0.844,0.131-1.077,0-2.342c0.872,0.247,0.712-0.539,0.945-0.946c0.669,0.364,0.684-0.611,1.716-0.305
					c0.131,0.174,0.204,0.407,0.16,0.771c0.451,0.029,1.019-0.073,1.251,0.16c0.029,0.917,0.087,1.862-0.466,2.196
					c0.073,0.655,0.742,0.713,0.932,1.251c-0.742,0.509-0.015,1.484-0.466,1.716c0.509,0.553,0.698,1.862,0,2.356
					c-0.029,0.334,0.553,0.073,0.785,0.16c0.088,1.222,1.135,1.92,0.786,3.127c1.062,1.993,2.604,3.956,2.036,6.734
					c0.203,0.465,0.713,0.625,0.931,1.091c0.029,0.349-0.131,0.495-0.465,0.48c0.102,0.844,1.222,0.742,0.785,1.716
					c2.196,1.149,0.916,5.76,3.593,6.415c0.232,0.407,0.072,1.193,0.945,0.946c-0.16,2.298,2.487,1.789,3.127,3.287
					c1.324-0.291,2.575,0.204,3.287,1.251c0.51-0.291,0.858,0.16,1.105-0.466c0.641,1.135,3.404,0.873,3.753,0.306
					c0.364,0.218,0.51,0.655,0.786,0.945c0.465,0,0.203-0.742,0.465-0.945c0.582-0.16,0.509,0.334,0.785,0.48
					c0.626-0.611,1.223-0.291,1.877-0.786c0.232,0.393,0.829,0.422,1.091,0.786c1.091-0.174,1.818-1.091,2.821-0.48
					c0.32-1.091,2.415-0.407,2.982-1.251c0.582-0.058,0.407,0.64,1.091,0.465c0.494-0.189,0.087-0.32,0.32-0.771
					c1.935-0.059,2.545-0.669,4.218-0.786c0.262-0.218,0.175-0.771,0.48-0.945c1.6,0.378,2.254-0.902,3.752-1.091
					c0.219-0.597-0.436-0.306-0.319-0.786c0.422-0.364,1.076-0.029,1.57,0c-0.989-0.902,1.527-1.789,0-2.662
					c0.538-0.655,0.814-1.585,1.411-2.197c-0.32-0.334-0.538,0-0.625,0.32c-1.004-0.829-0.32-2.415,0.465-3.127
					c-0.247-2.124,1.688-2.487,0.945-3.927c0.262,0,0.524,0,0.786,0c0.087-3.302,2.836-3.942,3.287-6.88
					c1.833-0.146,1.207-2.764,3.433-2.502c0.146-0.495,0.479-0.786,0.64-1.266c0.495-0.131,0.32,0.407,0.626,0.48
					c0.043-0.727,0.728-0.843,0.625-1.73c0.728-0.451,2.226-0.16,2.036-1.557c1.601-0.015,1.818-1.425,3.128-1.731
					c0.32-0.043,0.044-0.684,0.306-0.785c0.553,0.131,0.698-0.146,0.785-0.466c1.469,0.873,1.688-1.338,2.981-0.625
					c0.422-0.407-0.188-0.465-0.16-0.945c2.168,0.48,2.647-2.138,4.233-1.251c0.553-0.858,1.964-0.844,2.661-1.556
					c0,0.451,0.35,0.582,0.626,0.785c0.567-0.116-0.073-0.48,0.306-0.785c1.629-0.625,2.095-0.16,3.912,0
					c-0.262,0.553,0.422,0.756,0.48,1.091c0.058,0.407-0.437,0.174-0.48,0.625c-0.015,0.233,0.48,0.713,0.48,0.786
					c-0.015,0.204-0.495,0.611-0.48,0.785c0.029,0.218,0.422,0.407,0.48,0.625c0.232,0.829-0.175,1.76,0,2.967
					c-1.048,0.742-0.611,2.953-2.036,3.287c-0.16-1.993-0.103-3.433-1.251-4.218c-0.131,0.073-0.262,0.16-0.48,0.16
					c-0.116,0.524,0.641,0.189,0.48,0.771c-0.844,0.058-1.644,0.073-1.892-0.465c-0.232,0.334-0.553,0.582-0.771,0.945
					c-2.517-0.48-2.531,1.542-4.553,1.557c-0.335-0.029-0.059,0.567-0.146,0.785c-1.28-0.116-1.688,1.615-2.662,2.196
					c-0.087,0.044-0.218-0.232-0.319-0.16c-0.888,0.669-1.426,1.513-2.342,2.196c-0.626,0.146-0.917-0.349-1.251,0
					c-0.059,0.669,0.727,0.509,0.771,1.091c-0.916,0.058-2.429,1.135-2.502,2.036c-0.306,0.262-0.203-0.014-0.625,0
					c-0.232,0.408-0.059,1.193-0.945,0.946c0,0.262,0,0.523,0,0.771c-0.757-0.189-0.786,0.363-1.251,0.48
					c-0.103,0.421,0.334,0.305,0.479,0.465c-1.207,0.32-0.727,1.774-2.356,1.876c0.059,1.192-1.469,1.542-2.196,2.662
					c-0.087,0.146,0.146,0.655,0,0.945c-0.116,0.248-0.64,0.378-0.771,0.625c-0.16,0.276-0.669,2.007-0.48,2.502
					c0.626,1.571,3.724,0.291,4.233-0.931c1.992-0.218,3.214-1.178,4.072-2.516c1.644,0.189,2.051-1.353,3.127-1.251
					c-0.116-0.96,0.291-1.382,0.946-1.556c0.509-0.087,0.334,0.771,0.785,0.305c0.218-0.596-0.713-0.029-0.48-0.625
					c0.801-0.363,1.44-0.873,1.731-1.716c0.567,0,1.148,0,1.716,0c0.35-0.029,0.335-0.407,0.32-0.785
					c0.844,0.058,0.975-0.597,1.717-0.625c-0.364-0.451,0.102-0.829-0.16-1.251c1.542,0.232,0.975-1.644,2.517-1.411
					c0,0.786,0,1.557,0,2.342c-0.771,0.131-1.12-0.146-1.571-0.305c0.146,0.873-0.945,0.887-0.945,2.036
					c-1.47,0.553-2.226,1.833-2.808,3.288c-2.036-1.557-2.386,2.72-4.072,2.501c-0.219,0.713,0.596,0.786,0.146,1.251
					c-0.48,0.073-0.407-0.422-0.771-0.465c-1.266,2.429-5.701,2.938-6.734,6.109c0.291,0.582,0.291,0.655,0,1.251
					c0.015,0.698,0.728,0.728,1.251,0.931c-0.247,0.727-0.015,1.062,0,1.876c1.192-0.087,1.411,0.786,2.821,0.48
					c-0.218,0.771,0.48,0.669,0.466,1.251c0.684,0.16,0.509-0.523,1.091-0.465c0.204,0.523,0.873,0.582,0.945,1.251
					c1.601-0.334,2.43,0.523,3.447,0.306c0.335,0.232-0.102,1.25,0.466,1.25c0.597,0.029,0.844-0.305,0.945-0.771
					c0.858,0.931,2.008,0.596,2.662,1.716c0.538-0.946,2.152-0.349,2.502,0.305c0.16-0.029,0.102-0.305,0.305-0.305
					c1.193,0.829,2.721-0.771,4.073,0.305c0.989-1.047,1.891,0.276,2.981,0.48c0.335,0.029,0.073-0.553,0.16-0.785
					c1.091-0.844,2.371,1.745,3.433,0.305c1.28,0.218,1.295-0.509,2.356-0.771c0.844,0.597,2.022,1.964,3.287,0.771
					c0.844,0.175,3.447,1.716,3.288,0c0.523,0,1.047,0,1.57,0c0.437,0.553,0.626,1.367,0.931,2.037
					c0.32-0.611,1.135-0.742,1.251-1.557C649.705,144.792,650.054,144.88,650.083,144.647z M649.457,147.003
					c-0.174-0.145-0.422-0.218-0.771-0.16c-0.218,0.218-0.335,1.236,0.146,1.251C649.094,147.774,649.341,147.455,649.457,147.003z
					 M648.206,148.254c-0.276-0.363-0.785-0.378-1.251-0.16C646.824,148.822,648.09,148.618,648.206,148.254z M640.381,148.095
					c0.073-0.495-0.334-0.509-0.785-0.466C639.392,148.24,639.959,148.095,640.381,148.095z M637.879,148.56
					c-0.247,0.48,1.019,0.48,0.786,0C638.621,148.196,637.967,148.473,637.879,148.56z M585.733,147.935
					c0.16,0.146,1.354,0.437,1.251-0.16C586.839,147.483,585.69,147.513,585.733,147.935z M562.402,130.873
					c-0.232,0.495,0.902,0.742,0.786,0.146C563.218,130.684,562.636,130.96,562.402,130.873z"/>
				<path fill="#FFFFFF" d="M648.687,146.844c0.349-0.058,0.597,0.015,0.771,0.16c-0.116,0.451-0.363,0.771-0.625,1.091
					C648.352,148.08,648.469,147.062,648.687,146.844z"/>
				<path fill="#FFFFFF" d="M646.955,148.095c0.466-0.218,0.975-0.204,1.251,0.16C648.09,148.618,646.824,148.822,646.955,148.095z"
					/>
				<path fill="#FFFFFF" d="M639.596,147.629c0.451-0.043,0.858-0.029,0.785,0.466C639.959,148.095,639.392,148.24,639.596,147.629z
					"/>
				<path fill="#FFFFFF" d="M638.665,148.56c0.232,0.48-1.033,0.48-0.786,0C637.967,148.473,638.621,148.196,638.665,148.56z"/>
				<path fill="#FFFFFF" d="M586.984,147.774c0.103,0.597-1.091,0.306-1.251,0.16C585.69,147.513,586.839,147.483,586.984,147.774z"
					/>
				<path fill="#FFFFFF" d="M563.188,131.018c0.116,0.597-1.019,0.349-0.786-0.146C562.636,130.96,563.218,130.684,563.188,131.018z
					"/>
				<path d="M539.072,143.236c-0.029,0.349-0.394,0.334-0.786,0.32c-0.146,0.64,0.015,0.625,0,1.411
					c-0.437,0.393-1.353,0.16-1.251,1.396c-0.698-0.189-0.596-0.349-1.251,0c-0.203,0.625,0.51,0.32,0.306,0.945
					c-0.684,0.16-0.509-0.523-1.091-0.465c-0.509,0.553,0.32,0.727,0.32,1.251c-1.193-0.669-0.96,0.087-2.517,0
					c-0.203-0.015-1.935-0.815-2.967-0.466c-0.32,0.102-0.103,0.553-0.626,0.466c-0.146-0.669,0.16-0.888,0.466-1.091
					c-0.16-0.218-0.146-0.596-0.466-0.64c-0.538-0.117-0.203,0.64-0.785,0.48c-0.189-1.513-1.746-1.702-1.731-3.913
					c-0.028-0.334-0.684-0.043-0.771-0.32c0.276-2.618-1.498-4.713-0.48-7.04c-0.232-0.495-0.581-0.873-0.771-1.411
					c0.335,0.029,0.494-0.131,0.466-0.48c-1.048-1.382-0.379-3.535-1.731-4.539c0.059-0.32,0.437-0.305,0.48-0.625
					c-0.888-1.178-3.884-0.64-3.768,1.105c-1.861,1.585-1.876,5.004-4.072,6.255c0,0.364,0,0.727,0,1.105
					c-1.28,1.629-2.808,4.916-4.844,5.789c-0.35,0.625,0.174,0.989,0.305,1.556c-0.218,0.102-0.378,0.248-0.465,0.48
					c-0.495-0.043-0.262-0.785-0.32-1.251c-0.479-0.073-0.407,0.422-0.771,0.466c0.16,0.465,0.437,0.814,0.306,1.571
					c-1.004-0.015-1.048,0.931-2.037,0.931c0.015,0.248-0.072,0.597,0.16,0.625c-0.553,0.262-1.673,1.091-1.876,2.196
					c-1.222-0.145-2.982-0.523-4.393-0.945c-0.422-0.873-0.335-2.254-1.557-2.342c-0.378-0.756-0.175-2.938-0.945-3.752
					c-0.131-0.509,0.523-0.218,0.465-0.64c-0.872-0.625-0.334-2.691-1.251-3.287c1.179-1.848-1.003-5.004,0.48-7.04
					c-1.019-0.917-1.557-2.313-1.266-4.539c0.771-0.131,0.597-1.178,1.266-1.411c0.044-0.407-0.611-0.131-0.48-0.625
					c0.495-0.291,0.829-0.742,1.251-1.091c0.146-0.611-0.378-0.567-0.465-0.946c0.407-0.96,1.439-1.28,1.251-2.822
					c0.916-0.742,1.323-1.149,1.251-2.967c-0.029-0.349,0.131-0.509,0.479-0.48c0.16-0.582-0.597-0.247-0.479-0.785
					c0.262,0,0.523,0,0.785,0c-0.32-2.633,0.538-4.175,1.251-6.415c0.044-0.669-0.451-0.8-0.785-1.091
					c0.29-0.408,0.931-0.437,1.265-0.786c0-0.625,0-1.251,0-1.876c1.164-0.015,1.382-1.542,2.808-0.785
					c-0.218,1.323,0.611,1.585,1.266,2.036c-0.713,0.407,0.058,1.673,0.306,2.502c-0.044,0.523-0.698,0.451-0.786,0.945
					c1.076,0.451-0.857,2.196,0.48,2.967c-0.262,0-0.523,0-0.785,0c0.553,1.818-0.539,2.807,0,4.698
					c-0.611,0.858-1.411,2.589-0.48,3.607c-1.207,0.712-0.466,3.389-1.557,4.218c-0.029,0.451,0.523,0.306,0.306,0.946
					c-0.32,0.349-0.509-0.131-0.785,0.16c-0.189,0.713,0.291,0.756,0.479,1.091c-0.596,1.178-1.367,2.72-0.479,4.073
					c-0.407,0.276-0.582-0.117-0.931,0.32c0.145,0.625,0.188,1.367,0.159,2.182c-1.629,1.135,1.033,4.262,1.717,4.233
					c0.393-0.015,1.992-1.557,1.091-1.876c0.32-0.262,0.523-0.625,0.625-1.105c0.582-0.16,0.51,0.334,0.786,0.48
					c0.422-0.451,0.291-1.483,1.73-1.251c0.276-0.669,0.088-1.789,1.251-1.571c0.48-0.407-0.64-0.523-0.16-0.945
					c0.451,0.029,0.306-0.524,0.945-0.306c1.368-2.284,2.808-4.495,4.698-6.269c0-0.364,0-0.727,0-1.091
					c1.004-0.233,0.626-1.876,2.037-1.731c0.116-0.48-0.437-0.291-0.32-0.771c1.513-1.149,2.109-3.214,4.378-3.607
					c0.407,0.8,1.324,1.091,2.036,1.571c-0.218,1.207,0.437,1.556,1.251,1.716c-0.262,1.935,0.567,2.778,0.786,4.232
					c0.203,0.218,0.741,0.087,0.945,0.306c0.218,0.844-0.291,0.96-0.466,1.411c0.814,1.425,0.495,2.167,1.251,3.767
					c-0.713,0.582-0.422,2.182-0.479,3.433c0.131,0.597,0.553,0.015,0.785,0.32c0.116,0.421-0.306,0.32-0.306,0.625
					c0.422,0.349,0.96,0.597,0.785,1.571c0.524,0.669,1.354,1.033,1.717,1.876c1.76-0.102,1.469,0.917,3.287,0.786
					c0.306,0.48,1.688,0.698,2.356,0.306c0.611,0.116,0.538,0.916,1.251,0.945C538.665,142.189,538.359,143.222,539.072,143.236z"/>
				<path d="M494.126,142.306c1.237,0.785,0.16,1.978,0.16,3.287c-0.422,0.102-0.319-0.32-0.625-0.32
					c-0.814,1.644-2.124,2.792-4.538,2.822c-0.393,0.131,0.043,1.091-0.32,1.25c-0.96-0.305-1.207,0.131-1.557,0.786
					c-0.363,0.043-0.174-0.451-0.479-0.465c-0.422,1.338-2.546,0.989-2.808,2.502c-0.931-0.146-1.353,0.218-1.57,0.785
					c-0.728,0-1.47,0-2.196,0c-0.757,1.527-3.782,0.146-5.164,1.251c-0.684-0.669-1.745-0.975-3.287-0.786
					c-1.222-0.596-1.513-1.149-3.128-1.25c-0.131-0.189-0.218-0.422-0.159-0.786c-1.135-0.116-1.542-0.96-2.037-1.716
					c-0.509-0.146-0.319,0.393-0.625,0.465c-1.586-0.146-0.8-2.647-2.662-2.502c-0.029-1.644-1.382-2.501-2.821-1.571
					c0.102-0.684-0.728-0.422-1.251-0.465c0.61,0.742-0.088,1.003-0.466,1.556c-1.353-1.033-1.498,1.004-2.821,0.946
					c0.072,0.596-0.044,1.003-0.32,1.25c-1.149-0.538-0.945,0.96-2.182,0.786c-0.131,2.153-3.055,1.396-3.768,3.287
					c-1.019-0.189-1.382,0.276-1.717,0.786c-2.007-0.218-2.705,1.658-4.072,1.556c-0.64,1.091-1.717,1.731-2.662,2.517
					c-0.306-0.247,0.276-0.669-0.319-0.786c-1.135,0.669-2.226,1.411-3.434,2.037c-0.072-1.105-1.119,0.771-1.41-0.48
					c-0.553,0.654-1.527,0.582-2.356,0.48c-0.48-0.058,0.015-0.276-0.466-0.48c-0.567-0.233-1.833-0.102-2.196-0.306
					c-0.479-0.262-0.8-0.96-0.931-1.251c-0.495-0.116-0.306,0.422-0.785,0.306c0-0.364,0-0.728,0-1.091
					c-0.626-0.204-0.32,0.509-0.946,0.305c-0.116-0.538,0.233-0.596,0.16-1.091c-0.465-0.422-0.465,0.582-1.251,0.32
					c0.219-1.004-0.232-1.338-0.945-1.411c0.102-0.334-0.188-1.033,0.16-1.105c-0.232-0.437-1.019-0.334-1.251-0.771
					c0.48-1.92-3.214-2.792-1.716-4.698c-0.451-0.843-0.757-1.862-1.266-2.981c0.494-0.175,0.393,0.247,0.625,0.32
					c0.131-0.029,0.16-0.16,0.32-0.16c-0.015-0.712-0.597-0.858-0.945-1.251c0.16-1.876-0.364-3.491,0.479-4.698
					c0.059-0.087,0.407-0.043,0.466-0.16c0.553-1.135,0.684-2.589,2.196-2.662c0.072-0.989,1.178-1.513,0.931-2.342
					c0.204-0.218,0.742-0.102,0.945-0.32c-0.058-0.625,0-1.149,0.466-1.251c0.044-0.407-0.611-0.131-0.466-0.625
					c1.077-0.858,1.484-1.44,2.037-2.822c0.363,0.043,0.596-0.029,0.785-0.16c0.058-1.498,0.698-2.429,1.876-2.807
					c0.523-1.571,2.647-1.542,2.662-3.607c0.306,0,0.625,0,0.931,0c0.451-0.989,1.644-1.25,1.731-2.196
					c0.756,0.364,1.454-0.189,1.41-1.091c1.092-0.102,1.354-0.917,2.037-1.251c-0.117,0.058,0.188,0.465,0.146,0.465
					c0.509-0.029,1.119-1.033,1.265-2.196c1.818,0.262,2.662-0.465,3.434-1.251c0.378-0.058,0.349,0.291,0.785,0.16
					c0.523-0.625,2.051-0.247,2.502-0.945c0.727,0.189,0.975-0.146,1.57,0.16c0.786-1.047,3.724,0.072,4.698-0.786
					c0.495,0.029,0.641,0.407,0.945,0.625c0.495,0.146,0.582-0.131,0.771-0.306c1.396,0.437,2.226,1.44,3.927,1.557
					c0,0.422,0,0.843,0,1.265c0.553,0.073,0.379-0.567,0.932-0.48c-0.175,0.64-0.059,1.12,0.625,1.251
					c0.35,0.029,0.073-0.553,0.16-0.771c0.451,0.059,0.713,0.32,0.785,0.771c-0.8,0.189-0.829,0.713-0.945,1.266
					c-0.306,0-0.625,0-0.931,0c-0.131-0.189-0.219-0.422-0.16-0.786c-1.323,0.044-2.764-0.262-3.607-1.411
					c-1.236-0.058-2.72,0.843-3.593,0.16c-0.479,0.146-0.494,0.756-1.105,0.771c-0.684,0.175-0.509-0.523-1.091-0.465
					c-1.004,0.465-1.266,1.658-3.127,1.251c-0.335,0.043-0.044,0.698-0.32,0.785c-1.411-0.407-1.498,1.542-2.502,2.037
					c-0.451,0.029-0.306-0.524-0.945-0.32c-0.015,1.294-0.756,1.847-2.342,1.571c-0.378,0.363-0.567,0.902-0.625,1.571
					c-1.92,0.247-2.415,3.069-4.233,3.913c0.204,1.062-1.148,1.716-2.036,2.196c-0.116,0.539,0.232,0.597,0.16,1.091
					c-1.004,1.454-2.749,2.152-2.982,4.378c-1.163,0.713-1.381,2.124-2.036,2.982c-0.102,0.422,0.335,0.305,0.48,0.465
					c-1.222,0.713-1.411,2.458-1.251,4.538c0.276,0.407,0.916,0.451,1.251,0.786c0.058,0.742-0.276,0.902,0.16,1.251
					c0.45,0.043,0.538-0.291,0.771-0.465c0.728,0.509,1.266,0.334,2.356,0.32c0.422-0.116,0.306,0.32,0.466,0.465
					c2.108-0.16,2.938-0.902,4.232-1.251c0.597-0.146,0.553,0.378,0.931,0.466c1.353-0.742,2.662-1.513,4.073-2.197
					c0.581-0.16,0.247,0.597,0.785,0.48c0.422-0.232,0.087-1.018-0.306-0.945c4.247-0.858,6.458-3.767,10.167-5.164
					c0.146-0.48,0.306-0.96,0.626-1.251c0.262,0,0.523,0,0.785,0c0.48-0.146,0.495-0.771,1.105-0.785
					c0.553-2.575,4.131-2.124,3.753-5.644c0.116-0.262,0.945-0.553,1.251-1.091c0.247-0.436,0.203-1.702,0.466-2.342
					c0.363-0.902,1.076-1.382-0.146-2.356c0.654-0.436,0.203-1.993,0.931-2.342c-0.059-0.305-0.611-0.131-0.466-0.64
					c-0.582,0.349-0.814,0.305-1.251-0.146c0.306-0.64,1.251-0.625,1.251-1.571c-0.582,0-0.422,0.728-1.251,0.466
					c0.422-0.509,0.742-1.135,1.557-1.251c0.189,0.698,0.625,1.164,0.48,2.196c1.861,1.12,2.414,3.535,4.218,4.698
					c-0.654,1.513,0.669,2.196,1.251,2.967c-0.044,0.32-0.422,0.32-0.466,0.64c0.116,0.567,0.48-0.073,0.786,0.305
					c-0.394,0.276-0.408,0.96-0.786,1.251c0.088,0.451,0.451,0.596,0.786,0.786c0.131,0.509-0.524,0.218-0.466,0.625
					c0.116,2.895-1.818,3.898-1.571,7.52c0.116,0.539-0.64,0.189-0.465,0.786c0.465,0.698,1.047,0.917,2.036,0.771
					c0.306,0.625,0.625,1.251,1.557,1.266c0.028,0.916,1.148,0.727,1.105,1.716c1.018-0.131,2.661,0.363,2.967-0.466
					c0.654,0.073,1.004,0.451,1.411,0.771c0.553,0.087,0.393-0.553,0.945-0.465c1.367,1.324,4.975-0.262,6.255,0.465
					c0.334-0.029,0.043-0.684,0.319-0.771c2.284,0.146,3.928-0.349,5.164-1.25c-0.087,0.494,0.044,0.785,0.32,0.931
					c0.654,0.131,0.334-0.698,0.625-0.931c0.494-0.146,0.204,0.509,0.626,0.465C491.203,142.087,492.803,142.334,494.126,142.306z"
					/>
				<path d="M416.774,147.629c-0.408,0-0.829,0-1.251,0c-0.16,0.582,0.596,0.248,0.48,0.771c-0.742,0.32-1.236,0.858-1.411,1.731
					c-1.76-0.102-2.153,1.542-3.607,2.037c0.16,0.727-0.262,0.887-0.466,1.25c-0.654-0.218,0.044-0.814-0.32-1.25
					c-0.756-0.087-0.364,0.974-0.465,1.556c-0.539,0.131-0.669-0.174-0.946-0.306c-0.276,0.146-0.48,0.349-0.625,0.625
					c0.117,0.146,0.291,0.233,0.48,0.306c-0.32,0.262-0.523,0.64-0.625,1.105c-1.033-0.029-1.208,0.786-1.731,1.251
					c-0.495,0.073-0.407-0.422-0.786-0.465c-0.582,0.116,0,0.538-0.306,0.771c-0.523,0-1.047,0-1.571,0
					c-0.131,0.509,0.248,0.495,0.465,0.64c-0.262,0.247-0.378,0.655-0.931,0.625c-0.509,0.131-0.218-0.523-0.625-0.48
					c-0.858,0.306-1.455,0.858-2.196,1.251c-0.349-0.058-0.495-0.334-0.786-0.465c-0.48,0.102-0.436,0.698-1.251,0.465
					c0-0.262,0-0.509,0-0.771c-0.363,0-0.727,0-1.091,0c-0.48,0.407,0.625,0.523,0.146,0.931c-1.178,0.044-2.385-1.702-3.287-0.465
					c-0.248-0.538-1.047-0.523-1.876-0.465c-0.553-1.076-2.182-1.062-3.593-1.266c0.043-0.349-0.029-0.596-0.16-0.771
					c-0.465,0-0.945,0-1.411,0c-0.131-0.189-0.204-0.422-0.16-0.786c-1.862-0.029-4.465-1.222-5.483,0.786
					c-0.349,0.043-0.175-0.451-0.466-0.48c-0.582,0.262-0.727,0.946-0.625,1.891c-0.771,0.32-2.371-0.189-2.197,1.091
					c-0.349,0.044-0.174-0.451-0.465-0.465c-0.538,0.102-0.146,0.509,0.16,0.625c-0.625,0.102-0.771,0.698-1.571,0.625
					c-0.233,0.276,0,1.047-0.786,0.785c-0.131,1.033-1.135,2.066-2.662,2.182c-0.073,0.334,0.232,0.305,0.48,0.32
					c-0.771,1.208-2.808,1.149-3.607,2.342c-0.422,0.117-0.32-0.305-0.625-0.305c-0.742,0.771-3.2,1.993-4.378,0.785
					c-0.771,1.004-1.571-0.611-2.356,0.466c-0.189-1.019-1.411-1.004-2.342-1.251c0.029-0.509-0.189-0.989-0.786-1.251
					c-0.146,0.116-0.247,0.276-0.32,0.465c-2.633-1.207-2.735-3.985-4.844-5.644c0.116-0.131,0.16-0.349,0.146-0.625
					c-0.189-0.625-0.538-0.189-0.931-0.465c-0.262-1.353-0.509-2.735-1.251-3.607c0.407-3.433-1.774-7.811-0.785-11.738
					c0.073-0.495-0.204-0.64-0.48-0.785c0.509-0.276,0.247-1.324,0.945-1.411c-0.204-2.851,0.116-5.193,1.251-6.734
					c0.233-0.684-0.524-0.407-0.465-0.931c1.483-0.669,0.378-3.142,2.036-3.767c0.058-0.975-0.058-1.44,0.16-2.022
					c0.276,0.131,0.189,0.625,0.771,0.465c-1.033-0.902,0.727-1.396,0-2.196c1.687-0.611,1.338-3.258,2.822-4.073
					c0.058-1.876,0.291-2.705,1.876-3.127c0.087-0.829,0.844-1.004,0.48-1.876c2.021-0.902,2.589-4.029,4.218-4.393
					c-0.349-1.702,1.266-1.455,1.251-2.808c1.236-0.553,2.095-1.178,2.982-1.731c1.44,1.28,3.796-1.033,4.233,1.411
					c0.014,0.349,0.393,0.334,0.771,0.32c-0.073,0.553,0.146,0.8,0.48,0.931c0.044,0.363-0.451,0.174-0.48,0.465
					c0.917,1.135,0.684,3.389,1.731,4.393c-0.073,0.189-0.204,0.32-0.465,0.306c1.28,1.324-0.654,2.807-0.32,4.393
					c-0.131,0.131-0.422,0.087-0.466,0.306c-0.116,0.538,0.625,0.204,0.466,0.785c-0.175,0.131-0.422,0.204-0.786,0.16
					c-0.218,1.571-1.28,1.731-1.716,3.287c-1.003-0.218-1.338,0.233-1.411,0.946c-0.727,0-1.469,0-2.196,0
					c0.334-1.149-0.742-1.266-0.305-2.037c-0.64-0.218-0.495,0.334-0.946,0.306c0-0.262,0-0.524,0-0.786c-0.204,0-0.421,0-0.625,0
					c-0.567,0.015-0.131,1.033-0.466,1.251c-0.582,0.174-0.509-0.32-0.785-0.465c-0.495,0.043-0.262,0.785-0.32,1.251
					c-1.716-0.524-0.887,1.513-2.342,1.25c0.044,1.047-0.073,1.76-0.945,2.197c-0.131,0.451,0.218,0.407,0.16,0.785
					c-0.495,0.495-0.873,1.12-1.716,1.251c0.334,1.382-0.669,1.425-0.48,2.662c-0.363-0.044-0.596,0.029-0.771,0.16
					c-0.117,0.48,0.422,0.306,0.305,0.786c-1.236,1.498-2.153,2.851-2.342,5.629c-0.567-0.043-0.436,0.625-0.945,0.625
					c0,0.378,0.276,0.465,0.16,0.945c-0.873,0.902-1.542,2.429-0.786,3.593c-0.538,0.189-0.291,1.396-0.465,2.196
					c-0.058,0.233-0.466,0.567-0.48,0.625c-0.015,0.218,0.436,0.117,0.48,0.625c0.029,0.437-0.48,0.524-0.48,0.625
					c0.029,0.189,0.407,0.422,0.48,0.625c0.436,1.6-0.451,4.64,1.876,4.553c0.218,0.189,0.087,0.728,0.305,0.931
					c0.844-0.058,1.425,0.146,1.571,0.785c1.455-0.16,2.037,0.567,3.127,0.786c1.236-1.018,3.957,0.917,4.698-1.251
					c0.712,0.814,4.073-1.396,5.018-0.32c0.437-0.233,0.334-1.019,0.786-1.251c2.051,1.047,2.865-2.429,4.843-1.571
					c0.466,0,0.204-0.728,0.48-0.931c0.306,0,0.625,0,0.931,0c0.509-0.364-0.043-0.814,0.32-1.251
					c0.378-0.029,0.756-0.029,0.931,0.146c-0.16-1.469,1.411-3.331,0.16-4.378c0-0.524,0-1.047,0-1.571
					c-1.557-1.483-0.204-3.331-0.306-5.164c-0.058-0.771-0.873-1.164-0.48-2.036c0.305-0.291,0.291,0.102,0.786,0
					c0.131-0.742-0.524-0.728-0.466-1.411c0.262-0.349,0.582-0.669,0.931-0.931c0.232-0.698-0.524-0.407-0.465-0.946
					c0.436-0.087,0.509-0.538,0.945-0.625c0.043-0.408-0.611-0.117-0.48-0.625c0.698-0.131,0.291-0.451,0.32-1.091
					c0.422-0.102,0.393-0.654,0.931-0.625c0.174-0.596-0.582-0.247-0.466-0.785c1.178-0.204,0.437-1.367,1.731-1.411
					c-0.073-1.556,0.669-1.323,0.771-2.662c1.804-0.553,2.458-2.254,3.287-3.767c0.262,0,0.524,0,0.786,0c0-0.364,0-0.728,0-1.091
					c0.786,0.16,0.756-0.494,0.945-0.931c0.422,0,0.829,0,1.251,0c0.96-1.498,2.545-2.095,3.607-3.142
					c0.32,0.16,0.829,0.567,1.251,0.16c-0.131-0.611-0.553-0.189-0.786-0.465c-0.029-0.451,0.437-0.393,0.625-0.625
					c0.509-0.146,0.218,0.509,0.625,0.465c0.364,0.044,0.174-0.451,0.465-0.465c1.673,0.305,1.979-0.742,3.607-0.48
					c0.669,1.266,2.327,1.542,2.967,2.822c-1.047,0.291-0.247,1.527-1.251,1.731c-0.174-0.189-0.174-0.553-0.146-0.945
					c-0.407,0.64-1.411,0.189-2.516,0.465c-0.698,0.189-0.829,1.091-2.182,0.785c-0.349,0.029-0.349,0.393-0.32,0.786
					c-1.105-0.116-1.702,0.276-1.716,1.251c-0.917,0.131-1.484,0.596-1.571,1.571c-0.567,0.233-1.149,0.102-0.786,0.931
					c-0.495,0.146-0.32-0.407-0.625-0.466c-0.538,0.146-0.087,1.266-1.091,0.946c-0.116,1.658-1.702,1.847-1.251,4.058
					c-0.567,0.073-0.32,0.698-0.945,0.32c-0.058,1.251-1.294,1.426-1.091,3.288c-1.019-0.276-0.495,0.974-1.251,0.945
					c-0.117,0.523,0.625,0.189,0.465,0.771c-1.004,0.043-0.771,1.323-0.786,2.356c-0.611,0.117-0.48,0.989-0.945,1.251
					c0.306,1.367-0.058,2.356-0.771,3.288c-0.276,2.094,0.597,3.054,1.557,3.913c1.716-0.116,2.458-0.247,4.073-0.465
					c0.247-0.276,0.218-0.829,0.32-1.251c1.236-0.728,2.734-1.164,3.753-2.037c0.756-0.64,0.901-2.065,2.196-2.036
					c0.276-1.862,2.487-1.789,2.501-3.913c1.309-0.306,1.309-1.935,2.502-2.356c0-0.625,0-1.251,0-1.876
					c0.364-0.204,0.524-0.625,1.251-0.465c-0.102-1.324,0.582-1.542,0.48-2.502c0.523-0.16,0.233,0.48,0.306,0.771
					c0.625,0.146,0.393-0.538,1.105-0.306c0.393,0.466-0.175,0.931,0.145,1.411c-2.007,0.116-0.625,1.804-0.931,2.967
					c-0.364-0.044-0.611,0.029-0.786,0.16c-0.174,0.655,0.335,0.611,0.306,1.091c-0.902-0.073-1.178,0.48-1.091,1.411
					c-0.087,0.567,0.931,0.015,0.785,0.625c-0.945,0.058-1.338,0.64-2.036,0.945c-0.131,0.509,0.509,0.218,0.465,0.625
					c-0.509,1.208-2.327,1.12-2.036,3.127c-0.625,0.32-0.684,1.193-1.716,1.105c-0.276,1.076-0.858,1.847-1.251,2.807
					c-0.378-0.087-0.334-0.596-0.946-0.465c-0.204,0.684-0.785,2.676-1.556,1.571c-0.989,0.655,0.727,1.426,0,2.342
					c0.043,0.524,0.902,0.248,1.396,0.32c0.582,0.902,1.993,0.582,3.142,0.785c0.684,0.117,1.091,0.684,1.876,0.465
					c0.174-0.043,0.276-0.465,0.306-0.465c1.556-0.363,3.229-0.334,4.698-0.785c0.349,0.029,0.073-0.553,0.16-0.786
					c0.582-0.32,0.814,0.233,1.251,0.465c0.684-0.684,2.429-0.291,2.662-1.411c0.495-0.073,0.422,0.422,0.786,0.48
					c0.349-0.029,0.334-0.393,0.32-0.786c1.208,0.189,1.775-0.989,2.967-0.32c0.248-0.902,1.295-0.131,1.731-0.931
					c0.975-0.247,0.814,0.64,1.716,0.466C416.221,146.306,416.308,147.149,416.774,147.629z M393.763,145.273
					c0.233-0.233,0.276-1.077-0.32-0.946C393.108,144.662,393.385,145.186,393.763,145.273z"/>
				<path fill="#FFFFFF" d="M393.443,144.327c0.596-0.131,0.553,0.713,0.32,0.946C393.385,145.186,393.108,144.662,393.443,144.327z
					"/>
				<path d="M341.777,153.578c-0.291,0.538,0.116,0.509,0.306,0.931c-0.364,0.843-1.193,2.327-0.466,3.287
					c-0.771,0.174-1.585,0.306-1.571,1.251c-0.553,0.087-0.8-0.131-0.931-0.465c-0.611,0.436-1.208,0.873-1.876,1.25
					c0.073-0.756-1.498,0.146-1.251-0.785c-0.422,0-0.844,0-1.266,0c-0.684-0.146-0.8-0.858-1.556-0.931
					c-0.015-0.771-0.422-1.149-1.251-1.105c-1.629-1.644-2.545-4.698-5.018-5.003c-0.975,1.091-2.167,2.691-2.342,4.073
					c-1.033,0.625-1.673,1.44-1.251,2.822c-0.844,0.407-1.062,1.455-1.266,2.502c-0.596,0.218-1.396,0.276-1.251,1.25
					c-1.033,0.64-2.312,1.033-3.593,1.411c-0.989-0.364-1.789-0.931-2.822-1.251c-0.16-0.684-0.32-1.353-1.251-1.251
					c-0.436-1.338-1.28-2.269-2.196-3.142c-0.16-0.582,0.582-0.248,0.466-0.771c-0.276-0.567-0.422,0.276-0.771,0.146
					c0-0.523,0-1.033,0-1.556c-1.629-2.153-1.993-4.669-2.982-7.52c0.844-1.237-0.131-3.331-0.306-5.019
					c0.597-0.742,0.146-1.862,0.771-2.342c0.204-0.785-0.48-0.669-0.465-1.251c0.204-0.218,0.742-0.102,0.945-0.32
					c0-0.306,0-0.625,0-0.931c-0.116-0.495-0.422-0.204-0.785-0.16c0.087-0.437,0.625-1.731-0.16-2.356
					c0.567-0.204,0.625-0.945,0.945-1.396c0.117-0.538-0.64-0.204-0.48-0.785c0.8,0.087,0.538-1.411,0.015-1.411
					c0.611-0.174,0.262-1.294,0.771-1.571c-0.407-0.567-0.538-2.298,0.16-2.662c-0.931-1.469,1.222-2.836,0.305-3.593
					c0.611-0.96,0.771-2.109,0.786-3.288c0.451-1.192,0.96-3.694,0.48-4.393c0.291-0.728,1.178-0.64,0.771-1.716
					c0.218-0.16,0.582-0.16,0.785-0.32c0-0.465,0-0.931,0-1.411c1.033-0.48,1.673-0.407,2.196-1.411
					c1.091,0.218,1.309,1.295,2.342,1.571c-0.494,0.785,0.248,0.931,0.786,1.091c0.247,0.771-0.567,0.48-0.786,0.785
					c0.175,0.844,0.844-0.087,1.266,0c-0.102,0.728-0.858,0.946,0,1.411c-0.684,0.495-0.364,0.975,0,1.571
					c-1.047,0.611-1.033,1.891-0.48,2.967c-0.538,0.116-0.189-0.625-0.786-0.465c0.873,1.556-0.509,2.662,0,4.073
					c-0.058,0.654-0.742,0.713-0.931,1.251c-0.058,0.582,0.625,0.407,0.465,1.091c-0.174,0.131-0.422,0.218-0.785,0.16
					c-0.102,0.785,0.102,1.265,0.32,1.73c-0.917,0.539-0.814,2.095-0.786,3.593c-0.291,0.189-0.523,0.407-0.785,0.625
					c0.902,1.135,0.16,3.389-0.466,4.698c-0.073,0.495,0.422,0.422,0.466,0.786c-0.975,1.265-0.407,4.087-1.251,5.483
					c0.262,0.349,1.003,1.862,0,2.037c0.276,3.476,0.232,5.658,2.356,7.04c0.742,0.073,0.582-0.756,1.556-0.466
					c0.509-1.993,2.647-2.371,3.127-4.393c0.64,0.043,1.178-0.393,0.785-1.251c0.437-0.291,0.829-0.64,1.251-0.931
					c-0.16-1.266,0.509-1.688,1.266-2.037c0-0.625,0-1.251,0-1.876c0.218-0.305,1.018-0.029,1.251-0.32
					c-0.437-1.062,0.087-1.251,0-2.662c1.745-1.6,0.451-6.851,3.913-6.269c0.422,1.047,1.731,1.192,1.716,2.662
					c1.891,1.091,1.382,3.244,2.037,5.178c-0.204,0.364-0.262,0.873-0.466,1.251c0.684,0.553,0.756,3.375,0,3.913
					c0.334,0.437,0.887,1.746,0,2.037c0.524,0.989,1.382,1.644,2.196,2.342c0.044,0.363-0.465,0.174-0.48,0.48
					c0.408,0.538,1.688,0.189,1.731,1.091C337.734,152.604,340.061,152.778,341.777,153.578z M312.498,150.917
					c0.887,0.189,0.684-0.902,0.16-0.946C312.657,150.334,312.381,150.437,312.498,150.917z"/>
				<path fill="#FFFFFF" d="M312.657,149.971c0.524,0.044,0.728,1.135-0.16,0.946C312.381,150.437,312.657,150.334,312.657,149.971z
					"/>
				<path d="M297.152,160.778c1.193,0.625,3.069,0.567,2.662,2.822c-1.164,0.029-1.033,1.367-2.356,1.251
					c-0.291,0.276,0.189,0.451-0.146,0.785c-0.684-0.16-0.728,0.32-1.105,0.466c-0.117,0.48,0.436,0.305,0.32,0.785
					c-0.232,0.087-0.393,0.233-0.48,0.465c-0.742,0.131-0.553-0.684-1.396-0.465c-0.436,0.451,0.509,0.407,0.306,1.091
					c-1.208,0.044-1.774,0.728-2.037,1.716c-1.062-0.116-1.353,0.539-1.25,1.571c-0.64,0.146-1.062,0.509-1.717,0.625
					c0.393,0.742-0.669,0.756-0.32,1.876c-0.567,0.32-0.698-0.073-1.091-0.305c-0.393,0.131,0.043,1.091-0.32,1.251
					c-0.524-0.276-0.917,0.116-1.717,0c-0.334,0.043-0.043,0.684-0.32,0.785c-1.353,0.233-1.905,0.567-2.822,1.411
					c0.043,0.48,0.786,0.262,1.266,0.305c-1.585,0.466-0.975,2.342-2.356,3.127c-0.567-0.451-0.015-0.582,0-1.251
					c-0.786,0.306-1.527,1.178-1.251,2.037c-0.422,0.276-0.596-0.102-0.945,0.32c0.218,0.465,0.16,0.786-0.146,1.091
					c-0.597,0.015-0.48-0.669-1.266-0.465c-0.334-0.029-0.058,0.553-0.146,0.786c-1.192-0.189-1.614,0.363-1.731,1.25
					c-0.407,0-0.887,0.059-1.091-0.16c-0.043-0.407,0.611-0.117,0.465-0.625c0.044-0.407-0.218-0.509-0.625-0.465
					c-0.611,0.48-0.393,2.487,0.16,2.807c-0.596,0.116-0.669,0.116-1.251,0c-0.131-0.844-1.498-0.96-1.105-1.876
					c-1.047,0.043-0.611,1.571-2.182,1.105c0,0.204,0,0.407,0,0.625c0.029,0.48,0.771,0.262,1.251,0.306
					c-0.116,0.465-0.902,0.247-0.945,0.785c-0.364-0.102-0.248-0.684-0.931-0.465c-0.146,0.116-0.247,0.276-0.32,0.465
					c0.596,0.756,0.916,1.804,1.251,2.822c-1.208-0.131-1.062,1.135-1.557,1.716c-0.291-0.174-0.538-0.407-0.786-0.625
					c-0.363,0.117-0.421,0.524-0.785,0.625c0.116,0.669,0.727,0.844,1.091,1.251c0.422-0.029,0.596-0.654,0.945-0.305
					c0.073,1.265-2.473-0.073-1.716,1.876c-1.716,1.688-3.84,1.92-5.804,0.32c-0.64,0.291-0.174,1.702-0.305,2.501
					c-0.48,0.117-0.306-0.436-0.786-0.32c-0.465,0.698,0.742,1.353,0.306,2.037c-1.018,0.146-0.786-0.989-1.716-0.931
					c-0.131,0.029-0.16,0.146-0.32,0.146c-0.16,0.684,0.334,0.727,0.48,1.105c-0.64,0.829-1.003,1.92-1.411,2.967
					c-0.582,0.058-0.407-0.625-1.105-0.465c-0.16,0.582,0.596,0.247,0.48,0.785c-0.8,0.073-0.189,0.334-0.16,0.786
					c-0.844-0.218-0.96,0.291-1.411,0.465c0-0.8-1.019-0.247-1.251-0.465c-0.015-0.451,0.087-1.033-0.16-1.251
					c-0.495,0.131-0.523,1.935,0.16,1.876c-0.015,0.407-0.669,0.16-0.465,0.785c-0.32-0.058-0.306-0.436-0.625-0.48
					c-0.771,0.204,0.131,1.222-0.32,1.571c-0.538,0.116-0.684-0.146-0.785-0.466c-0.786,1.105-2.72,1.28-2.502,2.967
					c-1.6,0.233-1.789,1.876-3.127,2.356c-0.393-0.698-0.742,0.524-1.731,0c-0.742,1.731-3.04,2.924-4.698,4.218
					c-0.887-0.015-1.571,0.189-1.876,0.786c-0.567-0.771-0.698-0.044-1.716,0.32c-0.582,0.189-1.266-0.233-1.105,0.931
					c-1.368-0.233-1.702,0.523-1.717,1.25c-0.611-0.771-1.381,0.349-2.501-0.465c-0.349,0.029-0.334,0.393-0.32,0.786
					c-1.353-0.262-1.745,0.451-2.342,0.931c-0.785,0.218-0.669-0.48-1.25-0.465c-0.64,0.146-0.611,0.96-1.105,1.251
					c-0.669,0-1.353,0-2.037,0c-0.32,0.043-0.043,0.698-0.306,0.785c-0.378-0.043-0.291-0.538-0.785-0.465
					c-0.276,0.873-2.313-0.015-2.502,0.931c-0.364,0.058-0.174-0.451-0.48-0.466c-0.742,0.248-1.862,1.44-2.807,0.466
					c-0.887,0.465-3.36,0.523-4.233,0c-0.32,0.043-0.043,0.698-0.32,0.785c-1.018,0.334-1.6-1.164-2.022,0
					c-0.291-0.349-0.654-0.611-1.411-0.465c0.058-0.378-0.291-0.334-0.16-0.786c-1.236,0.248-2.4,1.455-3.447,0
					c-0.567,0-1.149,0-1.716,0c0.116-0.538-0.175-0.654-0.32-0.931c-1.658,1.062-2.589-0.262-4.378-0.32
					c-0.451-0.655-1.382-0.815-2.356-0.946c-0.116-0.538,0.146-0.684,0.48-0.771c-0.087-0.553-1.033-0.232-1.571-0.32
					c-0.218-0.204-0.102-0.742-0.32-0.945c-0.364,0-0.451,0.276-0.931,0.16c-0.218-0.204-0.102-0.742-0.32-0.931
					c-0.539-0.073-0.873,0.058-1.251,0.146c-0.509-1.164-2.327-1.004-2.822-2.182c-0.364,0-0.728,0-1.091,0
					c0.029-0.815-0.509-1.353-1.091-1.105c0-0.364-0.276-0.451-0.16-0.931c-0.553-0.087-0.814,0.131-0.946,0.465
					c-1.033-1.207-2.516-1.963-3.127-3.607c-0.189-0.131-0.422-0.204-0.786-0.146c-0.771-1.484-1.469-3.011-3.127-3.607
					c-0.96-2.327-2.865-3.709-3.447-6.415c-0.436-0.364-0.974-0.596-0.785-1.571c-0.669-0.887-1.76-1.382-2.037-2.662
					c0.553,0.248,0.102-0.538,0.48-0.465c-0.873-1.178-1.309-2.764-2.196-3.913c0.567-1.542-1.236-1.425-0.785-3.287
					c-0.248-0.218-0.495-0.451-0.786-0.64c0.029-1.644-0.786-2.444-0.465-4.378c-0.465-0.96-1.716-1.92-1.105-3.447
					c0.058-0.363-0.451-0.174-0.465-0.465c-0.684-1.716-0.044-5.251-1.251-5.949c0.407-2.72,0.305-3.113,0-5.949
					c-0.625-0.16-0.248-1.309-0.786-1.571c0.8-0.989,0-2.429-0.465-3.127c0.349,0.087,0.218-0.306,0.465-0.32
					c0.087-0.553-0.553-0.378-0.465-0.931c1.658-2.284-1.716-4.567,0-6.575c-1.018-1.178-0.058-2.545-1.251-3.767
					c0-0.044,0-0.102,0-0.16c1.571-1.673,0.204-3.709,0.931-5.629c-0.117-0.248-0.495-0.233-0.466-0.625
					c0.334-1.324-0.043-2.095,0.786-3.288c-0.873-1.993,0.189-4.509,0.785-6.429c-0.131-0.334-0.974,0.029-0.785-0.625
					c0.538-0.713,0.116-3.782,0.785-5.164c-0.174-0.248-0.509-0.32-0.48-0.786c0.509-0.334,0.989-0.684,1.266-1.251
					c-1.411-1.571,1.149-3.214,0.146-4.378c0.116-0.509,0.742-0.524,0.786-1.105c-0.48-0.146-0.756-0.48-1.251-0.625
					c0.174-0.873,0.509-1.585,1.251-1.876c0.116-0.713-0.175-1.585,0-1.876c0.48-0.116,0.189,0.538,0.785,0.306
					c-0.146-0.466,0.334-1.585-0.32-1.557c-0.422-0.116,0.116,0.742-0.306,0.625c-0.495-0.043-0.931-0.931-0.465-1.411
					c0.553-0.539,0.422,0.48,1.091,0.32c-0.073-0.553-0.873-0.684,0-0.945c-0.043-0.582-0.829-0.422-0.785-1.091
					c0.262-0.335,0.843-0.306,0.785-0.946c0.087-0.567-0.931,0-0.785-0.625c0.232-0.48,0.684,0.131,1.105,0
					c-0.131-0.422-0.655-2.036,0.145-2.662c-0.174-0.334-0.669-0.378-0.465-1.091c1.004-1.309,1.818-2.778,2.502-4.393
					c-0.465-0.523-0.698-2.109-0.306-2.967c1.236,0.291-0.378,1.077,0.625,1.251c0.931-0.393,0.48-2.967,0-3.447
					c0.829-0.625,1.222-1.702,1.716-2.662c-0.087-0.276-0.742,0.015-0.785-0.32c0.407-0.262,0.32-1.033,0.32-1.717
					c1.077-0.058,1.6-1.236,2.037-2.036c0.073-0.437-0.858,0.116-0.786-0.32c-0.16-1.979,1.629-2.284,0.786-3.753
					c0.204-0.218,0.742-0.087,0.931-0.306c-0.16-0.712-0.727-0.96,0-1.411c-0.523,0.087-0.654-0.989-0.305-1.251
					c0.625-0.16,0.465,0.465,1.091,0.306c-0.073-1.004-0.189-1.295,0.32-1.876c-0.917-0.291-0.131-1.469,0-2.196
					c0.248-1.411,0.814-1.688,1.251-2.822c0.596-1.557,0.495-3.2,1.251-4.539c-0.334,0.029-0.495-0.131-0.465-0.465
					c0.465-0.785,1.105-1.396,0.931-2.822c0.364,0.058,0.611-0.029,0.786-0.16c-0.058-1.672,0.975-1.396,0.785-3.287
					c0.451-0.422,0.611-1.149,1.571-1.091c0.232-0.902,0-0.975-0.32-1.571c0.684-0.509,1.469-0.931,1.251-2.342
					c1.135-0.742,1.149-2.604,2.502-3.127c0.116-0.48-0.16-0.582-0.146-0.945c0.189-0.218,0.742-0.102,0.931-0.32
					c0-0.465,0-0.931,0-1.396c0.917,0.232,0.815-0.553,0.786-1.266c0.364,0.058,0.596-0.015,0.786-0.146
					c0.538-1.92,0.931-3.04,2.501-3.913c0.204-0.625-0.451-0.393-0.465-0.786c0.422-0.247,0.713-0.64,1.571-0.48
					c0.538-0.393,0.437-0.945,0.771-1.251c0.218,0.16,0.32,0.422,0.625,0.48c0.32-0.32,0.742-0.523,0.945-0.945
					c0.058,0,0.102,0,0.16,0c1.062,0.756,2.254,1.003,3.593,0.786c0.771,0.276,0.654,0.742,1.731,0.465
					c0.989,0.523,1.076,1.949,2.502,2.036c0.465,1.309,0.8,2.749,2.036,3.288c-0.349,0.8-0.829,1.469-0.786,2.662
					c-0.931,0.276-2.036,0.364-2.196,1.411c-1.236,0.218-1.731,1.178-2.342,2.036c-0.8-0.131-1.236,0.131-1.571,0.465
					c-0.116,0.48,0.437,0.306,0.32,0.786c-0.495-0.073-0.509,0.334-0.465,0.786c-0.975-0.087-0.989,0.785-1.105,1.571
					c-1.746,0.276-1.396,2.662-2.967,3.127c0,0.466,0,0.931,0,1.411c-1.469,0.989-2.356,2.545-2.822,4.538c-0.262,0-0.523,0-0.786,0
					c0,0.262,0,0.524,0,0.786c-0.785-0.204-0.669,0.48-1.25,0.465c0.189,1.964-1.862,1.688-1.251,4.073c-0.262,0-0.524,0-0.786,0
					c0.029,0.713,0.131,1.483-0.786,1.251c0.087,0.873-0.072,1.498-0.785,1.571c-0.043,0.349,0.043,0.582,0.32,0.625
					c-1.149,0.844-0.712,3.258-1.251,4.698c-0.189,0.174-0.553,0.174-0.945,0.16c0.058,0.363,0.247,0.582,0.16,1.091
					c-1.542,0.495-1.208,2.865-2.502,3.593c0.116,0.16,0.276,0.247,0.465,0.32c-0.363,0.451-0.975,0.174-1.251,0.945
					c0.742,1.585,0.698,5.236-1.25,5.469c-0.087,0.553,0.553,0.393,0.465,0.945c-0.437,0.131-0.437,0.713-0.945,0.786
					c0.102,0.727-0.204,1.876,0.16,2.342c-1.571,0.64-1.513,2.226-1.251,3.913c-0.232,0.087-0.393,0.233-0.625,0.32
					c0.044,0.32,0.422,0.305,0.625,0.465c-0.349,0.509,0.146,1.047-0.16,1.411c-0.437,0.029-0.364-0.465-0.771-0.465
					c-0.728,0.669-0.233,2.327-0.32,3.287c-0.989,0.349-1.614,1.818-0.785,2.662c-0.771,0.844-0.495,2.094-0.931,3.447
					c0.306,0.407,0.975,0.465,0.931,1.251c-0.64,0-0.814,0.276-1.411,0.625c0,0.363,0.276,0.465,0.16,0.931
					c-0.204,0.276-0.931,0.015-0.945,0.48c0.436,0.713,0.334,1.964,1.265,2.182c-0.189,0.756-1.076,0.814-0.785,2.036
					c-0.465,0.015-0.582,0.364-0.786,0.64c0.306,0.422,0.669,0.785,1.091,1.091c-0.058,0.451-0.32,0.713-0.785,0.786
					c-0.16,0.582,0.596,0.247,0.48,0.785c-1.077,0.073-2.589,1.615-0.786,1.876c-0.407,0.713-0.698,1.542,0,2.182
					c-0.567,0.233-0.771,0.495-1.251,0.48c1.309,1.368,0.48,4.058,0.306,6.109c-0.597,0.131-0.553-0.393-0.931-0.48
					c-0.611,0.858,0.349,3.534-0.625,4.073c0.408,0.218,1.004,0.247,1.251,0.625c-0.204,0.611-0.8-0.102-0.945,0.625
					c-0.087,0.974,0.829,0.945,0.945,1.73c-0.727-0.102-0.393,0.858-0.48,1.411c0.218,0.567,0.655-0.029,0.946,0.465
					c-0.844,1.033-0.364,4.044-0.466,5.324c-0.363,0.684-0.945,1.149-0.945,2.196c0.16,0.524,0.582,0.771,0.945,1.091
					c0.073,0.495-0.422,0.407-0.48,0.786c-0.043,0.364,0.465,0.174,0.48,0.465c0.16,1.062-0.596,1.426-0.48,2.822
					c1.571,2.051,0.422,5.92,2.037,7.986c-0.451,0.014-0.582,0.349-0.771,0.625c0.102,0.146,0.276,0.233,0.465,0.306
					c-0.043,0.378-0.538,0.306-0.465,0.786c1.236,0.902,0.989,3.287,1.716,4.698c0.087,0.552-0.553,0.393-0.465,0.945
					c1.251,2.211,1.091,7.505,2.822,9.236c0.16,0.582-0.334,0.509-0.48,0.785c0.218,0.364,0.654,0.495,0.945,0.786
					c0.349,2.167,0.334,4.131,1.716,5.469c-0.262,0.465-0.32,1.833,0.32,1.891c0.043,0.349-0.451,0.175-0.48,0.466
					c0.116,0.538,0.596,0.232,0.64-0.16c0.175,1.047,1.44,1.76,0.931,2.982c0.611,0.625,1.324,1.178,1.411,2.342
					c0.364,0,0.728,0,1.091,0c-0.014,0.611-0.625,0.625-0.771,1.091c1.164,0.116,0.553,1.033,1.716,1.105
					c0.043,0.364-0.451,0.174-0.465,0.465c0.363,1.847,1.73,2.545,2.182,3.913c0.422,0.117,0.305-0.32,0.48-0.465
					c0.422,0.669,0.654,1.527,0.625,2.662c1.92,0.945,2.182,3.549,4.538,4.073c0,0.407-0.058,0.887,0.16,1.091
					c3.025,0.291,3.651,2.08,5.629,3.287c0.509,0.146,0.32-0.407,0.625-0.465c1.28,0.436,3.302,0.989,4.698,0.785
					c0.465,0,0.204,0.742,0.48,0.931c0.887,0.218,0.989-0.349,1.556-0.465c0.466,0.116,0.567,0.582,0.946,0.785
					c0.567,0.146,0.16-0.684,0.465-0.785c1.149,0,2.298,0,3.447,0c0.204,0.32,0.247,0.8,0.786,0.785
					c0.334,0.029,0.072-0.553,0.145-0.785c1.964-0.291,5.105,0.436,6.429-0.786c0.814,0.756,1.033,0.029,1.716-0.465
					c1.585,0.305,3.098-0.728,4.393-1.571c0.494-0.131,0.48,0.247,0.785,0.32c0.407-0.422,0.96-0.698,1.396-1.091
					c0.538,0.204,1.193,0.538,1.731,0.305c0.16-0.582-0.596-0.247-0.465-0.785c1.833-0.334,3.375-0.728,4.538-2.037
					c3.098,0.131,4.146-1.804,6.415-2.501c0.102-0.524,0.393-0.858,0.625-1.251c0.64-0.131,0.8,0.232,1.411,0.16
					c0.946-1.353,3.491-1.105,3.913-2.981c0.32,0,0.625,0,0.945,0c0.393-0.8,1.425-0.917,2.342-1.571
					c1.251-0.873,1.731-1.818,3.287-2.501c0.334,0.146,0.465,0.48,0.946,0.48c0.523-0.306-0.276-0.553-0.16-0.946
					c1.353-0.902,2.633-1.847,3.447-3.287c0.422,0,0.829,0,1.251,0c1.033-1.483,2.734-1.746,3.913-3.287
					c1.396-0.102,2.109-2.153,3.913-2.356c0.131-0.175,0.218-0.422,0.16-0.786c1.498,0.306,1.338-1.062,2.356-1.251
					c-0.844-1.309,1.062-1.309,2.036-1.716c0.146,0.786-0.495,0.771-0.48,1.411c0.044,0.276,0.276,0.349,0.625,0.305
					c0.349-0.742,0.829-1.353,0.786-2.501c1.12-0.131,1.338-1.164,2.982-0.786c1.178-0.858,0.582-2.545,1.091-4.073
					c1.105,0.248,1.963-1.047,2.981-0.931c0.015-0.684-1.25-0.64-0.785-1.251c2.415,0.64,2.792-1.964,4.698-2.356
					c0.116-0.451,0.305-0.829,0.465-1.251c0.262,0,0.523,0,0.786,0c0.16-0.509,0.073-1.266,1.091-1.251
					c0.262-0.305,0.116-1.033,0.945-0.785c0.073-0.582,0.189-0.64,0.465-1.251c0.48-0.015,0.437,0.814,0.946,0.32
					c0.116-0.538-0.64-0.204-0.48-0.786c2.08-0.276,2.749-1.963,3.767-3.287c1.12,0.349,1.876-0.509,2.036-1.571
					c1.033,0.102,1.688-0.189,1.557-1.251c1.92-0.073,2.633-1.338,3.447-2.502c0.146,0.117,0.349,0.16,0.625,0.146
					C296.584,161.462,296.905,161.156,297.152,160.778z M173.443,133.68c0.291-0.189,0.32-1.44-0.306-1.251
					C173.268,132.822,172.832,133.782,173.443,133.68z"/>
				<path fill="#FFFFFF" d="M165.777,46c10.182,0,20.349,0,30.531,0c-0.204,0.422-0.625,0.625-0.945,0.945
					c-0.306-0.058-0.407-0.32-0.625-0.48c-0.334,0.306-0.233,0.858-0.771,1.251c-0.858-0.16-1.149,0.233-1.571,0.48
					c0.015,0.393,0.669,0.16,0.465,0.786c-1.571,0.873-1.963,1.993-2.501,3.913c-0.189,0.131-0.422,0.204-0.786,0.146
					c0.029,0.713,0.131,1.498-0.786,1.266c0,0.465,0,0.931,0,1.396c-0.189,0.218-0.742,0.102-0.931,0.32
					c-0.015,0.363,0.262,0.465,0.146,0.945c-1.353,0.523-1.367,2.385-2.502,3.127c0.218,1.411-0.567,1.833-1.251,2.342
					c0.32,0.596,0.553,0.669,0.32,1.571c-0.96-0.058-1.12,0.669-1.571,1.091c0.189,1.891-0.843,1.615-0.785,3.287
					c-0.175,0.131-0.422,0.218-0.786,0.16c0.175,1.425-0.465,2.037-0.931,2.822c-0.029,0.334,0.131,0.495,0.465,0.465
					c-0.756,1.338-0.655,2.982-1.251,4.539c-0.437,1.134-1.003,1.411-1.251,2.822c-0.131,0.727-0.917,1.905,0,2.196
					c-0.509,0.582-0.393,0.873-0.32,1.876c-0.625,0.16-0.466-0.466-1.091-0.306c-0.349,0.262-0.218,1.338,0.305,1.251
					c-0.727,0.451-0.16,0.698,0,1.411c-0.189,0.218-0.727,0.087-0.931,0.306c0.843,1.469-0.946,1.774-0.786,3.753
					c-0.073,0.436,0.858-0.117,0.786,0.32c-0.437,0.8-0.96,1.978-2.037,2.036c0,0.684,0.087,1.455-0.32,1.717
					c0.043,0.334,0.698,0.043,0.785,0.32c-0.494,0.96-0.887,2.036-1.716,2.662c0.48,0.48,0.931,3.055,0,3.447
					c-1.003-0.174,0.611-0.96-0.625-1.251c-0.393,0.858-0.16,2.444,0.306,2.967c-0.684,1.615-1.498,3.084-2.502,4.393
					c-0.204,0.712,0.291,0.756,0.465,1.091c-0.8,0.625-0.276,2.24-0.145,2.662c-0.422,0.131-0.873-0.48-1.105,0
					c-0.146,0.625,0.873,0.059,0.785,0.625c0.058,0.64-0.523,0.611-0.785,0.946c-0.044,0.669,0.742,0.509,0.785,1.091
					c-0.873,0.262-0.073,0.393,0,0.945c-0.669,0.16-0.538-0.858-1.091-0.32c-0.465,0.48-0.029,1.367,0.465,1.411
					c0.422,0.117-0.116-0.742,0.306-0.625c0.654-0.029,0.174,1.091,0.32,1.557c-0.596,0.232-0.305-0.422-0.785-0.306
					c-0.175,0.291,0.116,1.164,0,1.876c-0.742,0.291-1.077,1.003-1.251,1.876c0.495,0.146,0.771,0.48,1.251,0.625
					c-0.044,0.582-0.669,0.596-0.786,1.105c1.003,1.164-1.556,2.807-0.146,4.378c-0.276,0.567-0.756,0.917-1.266,1.251
					c-0.029,0.465,0.306,0.538,0.48,0.786c-0.669,1.382-0.247,4.451-0.785,5.164c-0.189,0.654,0.654,0.291,0.785,0.625
					c-0.596,1.92-1.658,4.436-0.785,6.429c-0.829,1.193-0.451,1.964-0.786,3.288c-0.029,0.393,0.349,0.378,0.466,0.625
					c-0.728,1.92,0.64,3.956-0.931,5.629C165.777,114.684,165.777,80.342,165.777,46z"/>
				<path fill="#FFFFFF" d="M173.137,132.429c0.625-0.189,0.597,1.062,0.306,1.251C172.832,133.782,173.268,132.822,173.137,132.429
					z"/>
			</g>
			<g>
			</g>
		</g>
	</g>
</g>
</svg>

