<?xml version="1.0" encoding="utf-8"?>
<!-- Generator: Adobe Illustrator 15.1.0, SVG Export Plug-In . SVG Version: 6.00 Build 0)  -->
<!DOCTYPE svg PUBLIC "-//W3C//DTD SVG 1.1//EN" "http://www.w3.org/Graphics/SVG/1.1/DTD/svg11.dtd">
<svg version="1.1" id="Calque_1" xmlns="http://www.w3.org/2000/svg" xmlns:xlink="http://www.w3.org/1999/xlink" x="0px" y="0px"
	 width="841.89px" height="595.28px" viewBox="0 0 841.89 595.28" enable-background="new 0 0 841.89 595.28" xml:space="preserve">
<g id="DSC_x5F_1021_x5B_1_x5D__1_">
	<g id="XMLID_2_">
		<g>
			<path fill="#FFFFFF" d="M796.29,507.55c0.01,0.26,0.03,0.521-0.18,0.55c-247.891,0-495.78,0-743.67,0c0-139.29,0-278.58,0-417.87
				c-0.02-0.26-0.03-0.52,0.18-0.55c247.83,0.12,496.14-0.24,743.67,0.18C796.29,229.08,796.29,368.34,796.29,507.55z
				 M777.95,206.27c0.649-3.09-3.561-7.91-4.73-3.27c0.9,0.74,0.28,3,0.91,4C775.91,206.94,776.33,206.56,777.95,206.27z
				 M775.04,236.6c0.979-1.79-0.98-2.75-2.54-3.09c-2.68-4.63,0.13-10.62,2.36-15.07c-0.65-2.18-2.87-3.74-5.091-3.27
				c-0.18,0.43-0.319,0.89-0.359,1.45c-3.5,3.02-0.76,9.58-5.45,10.36c0.61-1.23,0.521-2.97,0.91-3.82
				c0.63-1.39,0.35-2.64-0.101-3.63c0.171,0.11,0.551-0.14,0.641-0.18c-0.32-1.27,0.17-2.52-1.09-3.45
				c-0.051-1.67-1.221-4.52-3.261-4.18c-0.31-1.23-1.71-2.25-2.909-2c0.069-0.43-0.33-0.39-0.181-0.91
				c-2.1,0.23-3.779-0.71-5.45-0.9c-6.59-0.78-11.279,3.92-15.619,6.17c-0.4,0.38,0.159,0.59-0.181,0.91
				c-0.229-0.01-0.25-0.23-0.54-0.18c-4.63,4.57-7.63,15.69-2.729,22.52c3.25,4.51,8.939,2.56,14.89,0.18
				c1.601,0.19,3.09-0.44,3.09-1.27c3.221-0.3,4.891-2.38,7.99-3.45c0.23-0.59-0.59-0.14-0.36-0.73
				c0.591,0.11,0.841-0.12,1.271-0.18c1.33-2.18,4.21-2.82,5.63-4.9C766.94,232.1,769.57,237.14,775.04,236.6z M747.07,164.5
				c-1.15-0.66,0.239-2.7,0-4.17c-0.11-0.32-0.86,0.01-0.91-0.37c0.17-0.62-0.62-2.3-0.36-3.45c-0.78-0.05-0.78-1.84-1.81-2.18
				c-0.13-0.67,0.3-0.78,0.18-1.45c-0.59-0.37-1.76-0.55-1.46-1.27c-1.55,0.16-1.79-0.99-2.54-1.63c-2.12-0.12-4.5-0.67-5.63-0.73
				c-4.22-0.25-6.91,1.09-10.89,1.27c-0.391,0.4-0.71,0.87-1.091,1.27c-1.399-0.24-2.02,1.54-4,1.27
				c-0.76,1.63-1.989,1.67-3.63,2.36c0.021,0.46,0.34,0.57,0,0.91c-0.35,0.04-0.399-0.2-0.729-0.18c-1.311,1.9-3.32,3.1-4.9,4.72
				c-2.27,2.31-4.2,5.04-5.81,7.99c-0.69,0.04-0.471,0.98-1.09,1.09c-0.83,3.47-2.49,7.54-2.181,11.81c0.21,2.95,0.57,5.9,1.63,8.35
				c-0.069,0.35-0.52,0.33-0.359,0.91c1.04-0.02,0.51,0.35,0.359,0.91c0.57-0.09,0.74,0.22,0.91,0.54
				c-0.39-0.03-0.08,0.64-0.18,0.91c0.99,0.92,1.81,2.65,2,4.18c1.77,0.74,0.54,2.75,2.54,3.45c0.59,2.48,3.11,3.85,3.27,6.17
				c0.45-0.03,0.75,0.09,0.91,0.36c1.17,2.71,2.601,5.14,4.54,7.09c-0.359,0.9,0.13,1.56,0.72,1.63
				c-0.38,0.56,0.421,1.19,0.551,1.82c0.34,0.17,0.6-0.55,0.72,0c-0.01,2,1.53,3.26,1.28,4.9c0.779-0.18,0.5,0.71,0.899,0.91
				c-0.25-0.01-0.399,0.08-0.54,0.18c0.54,0.77,1.29,2.17,0.73,3.45c0.33,0.03,0.6,0.12,0.72,0.36c-0.86,0.56-0.12,2.5,0.36,2.91
				c-0.9,0.73-0.48,2.52-0.181,3.45c-0.52,1.39-0.859,3.31-0.54,4.54c-0.989,0.82-1.359,3.05-1.819,3.81
				c-1.29,1.2-2.15,2.81-3.271,4.18c-1.479,0.88-2.399,2.31-4.72,2.36c-13.24,5.27-24.54-6.2-23.06-18.89
				c0.369-0.53,0.649-1.16,0.54-2.18c3.369-6.43,9.09-10.52,15.8-13.62c0.56-0.28,1.84,0.15,1.819-0.72c-0.59-0.32-1.51-0.31-2-0.73
				c-6.689,1.86-13.67,4.97-16.71,11.08c-0.34-0.04-0.399,0.2-0.72,0.18c-0.15,0.51,0.25,0.47,0.18,0.91
				c-0.979-0.24-0.3,0.51-0.55,1.09c-0.05,0.12-0.5,0.23-0.54,0.36c-0.229,0.75-0.149,2.01-0.359,2.54
				c-0.17,0.42-0.601,0.78-0.91,1.09c-0.141,0.56,0.5,0.35,0.359,0.91c-0.409,0.7-0.71,1.65-0.18,2.36
				c-1.14,2.91,0.09,6.01,0.36,8.9c2.779,4.34,5.359,8.82,10.17,10.35c-0.22,0.59,0.59,0.14,0.37,0.73c1-0.31,1.229,0.48,1.63,0.73
				c1.55,0.94,4.55,1.3,5.99,1.27c0.81-0.02,2.149-0.12,2.909,0.18c3.71-0.65,8.78-1.11,11.98-3.27c0.68-0.45,3.18-2.31,3.64-2.91
				c0.33-0.43,0.42-0.43,0.721-0.72c0.699-0.67,1.229-1.73,1.46-2.54c0.85-0.52,2.34-1.81,1.449-2.91
				c0.24-0.06,0.351-0.26,0.721-0.18c0.699-2.47,0.72-5.08,1.46-6.72c-0.86-1.33-0.32-2.46-0.37-3.81
				c-0.021-0.86-0.53-1.54-0.72-2.55c-0.431-2.24-0.45-4.84-2-6.72c0.229-0.07,0.369-0.23,0.359-0.54
				c-2.21-4.38-5.55-8.41-7.439-12.35c-0.96,0.05-0.62-0.65-0.551-1.27c-0.81-0.83-1.29-1.98-2.359-2.54
				c0.149-0.63-0.271-0.7-0.181-1.28c-1.17,0.15-0.779-1.28-1.63-1.45c-0.67-2.16-2.22-4.89-3.64-6.9c0.02-0.29,0.47-0.14,0.37-0.54
				c-1.5-0.84-1.48-2.93-2.73-3.45c0.82-1.09-0.38-2.57-1.27-3.09c0.2-0.72-0.3-0.92,0.18-1.82c-0.189-0.35-0.83-0.25-1.09-0.54
				c0.99-0.48,0.36-1.61-0.18-2c1.239-0.44,0.79-3.09-0.36-3.27c0.32-0.17,0.97,0.01,0.91-0.54c-0.43-0.67-0.66-2.07-1.46-1.82
				c0.81-0.34,1.399-0.9,2.37-1.09c0.22-1.08-0.811-0.89-0.55-2c0.239,0,0.479,0,0.729,0c0.07-2.2,1.21-3.47-0.18-5.26
				c0.43-0.12,0.29-0.8,1.08-0.55c-0.051-0.42-0.38-0.78,0.189-0.91c0.271,0.03,0.67-0.06,0.721,0.18
				c-0.03,0.71-0.851,0.49-0.36,1.28c1.24,0.15,1.01-1.17,2.18-1.09c0.19-0.92-0.95-0.51-1.09-1.09c1.37-0.58,2.2-1.67,1.82-3.09
				c-0.28-0.03-0.681,0.06-0.73-0.18c1.03-0.06,0.431-1.75,1.271-2c0.22,0.45,0.31,1.02,0.91,1.09c0.72-0.55,0.859-1.68,2-1.82
				c0.189-0.79-0.62-0.59-0.551-1.27c2.9,0.9,3.33-3.14,5.63-3.27c0.21-0.57-0.279-0.44-0.359-0.72c0.18-0.24,0.3-0.55,0.54-0.73
				c0.58-0.03,0.609,0.48,1.27,0.36c0.561-0.32-0.49-0.56,0-0.72c1.53-0.48,2.41-1.59,4.36-1.64c-0.26-0.55-0.08-0.81,0.18-1.27
				c0.26,0.05,0.311,0.3,0.55,0.37c0.511-1.21,2.66-1.67,3.99-1.46c1.311-1.09,5.01-0.96,7.45-1.09c4.16-0.22,6.15,2.94,7.63,5.81
				c-0.11,1.58,0.54,3.68,0.54,5.45c0,3.1-0.92,5.78-1.45,8.54c-0.51,0.51-0.49,1.57-1.09,2c-0.15,0.51,0.25,0.47,0.18,0.9
				c-3.83,6.16-6.529,13.45-10.17,19.8c0.511,0.15,0.471-0.26,0.91-0.18c1.36-2.46,3.58-4.05,4.54-6.9
				c2.71-2.93,4.84-7.95,6.17-12.17c0.13-0.39,0.75-0.7,0.91-1.09c1.1-2.73,1.7-5.75,1.82-8.9
				C746.47,164.75,747.23,165.09,747.07,164.5z M656.81,235.33c-1.189-2.09-2.479-0.52-3.63,0.18c-0.25,0.16-0.55,0.02-0.91,0.18
				c-2.67,1.23-5.18,5.03-8.17,3.09c-0.18-0.24-0.18-0.67-0.359-0.91c0.25-0.84,1.12-1.06,1.27-2c-0.14-0.04-0.21-0.15-0.18-0.36
				c-1.7-0.12-1.76,1.22-3.45,1.45c-3.1-3.27,0.08-7.9,1.09-11.26c0.98-0.29,1.38-1.16,2.721-1.09c1.42,0.94,0.859,3.33,1.819,4.36
				c-0.75,0.6-1.22,2.66,0,2.91c0.37-0.54,1.13-1.45,0.54-2.36c0.9-0.18,1.01-2.26,0.91-3.82c-0.12-1.85-0.83-2.85-1.81-3.81
				c-1.99-0.41-3.4,0.67-5.45,0.73c-2,1.94-4.3,4.53-4.181,7.99c-0.479-0.05-0.779,0.06-0.729,0.54c0.63,0.29-0.43,1.16-0.54,1.82
				c1.2,1.17-0.43,3.52,1.09,4.18c-1.25,0.09,0.271,1.33,0,2.17c-1.26,0.81-1.88,2.25-4.18,2c-1.12-1.35-0.19-3.01-1.271-4.17
				c0.761-0.32,0.69-2.25,0.181-2.91c2.189-5,2.55-13.28,4.18-19.43c0-0.24-0.32-0.17-0.36-0.37c0.7-0.2,1.13-2.01,0.54-2.36
				c1.24-0.54,1.051-3.67,1.45-5.08c0.61-2.12,1.87-3.95,2.73-6.18c0.63-1.65,1.37-3.43,2-5.26c0.479-1.43,1.76-2.77,2.359-4.18
				c0.641-1.53,1.19-2.82,1.99-4.18c1.32-2.22,2.76-3.34,2.55-5.44c-0.439,0.07-0.399-0.34-0.91-0.19
				c-4.529,6.6-10.8,13.23-13.08,20.89c-1.05,0.56-0.34,1.8-1.27,2.36c0.21,0.03,0.52-0.03,0.55,0.18c-1.42,0.5-0.93,1.91-1.09,3.45
				c-0.91,0-0.82,1-1.46,1.27c-0.54,0.04-0.61-0.67-1.09-0.18c-1.09-1.97-3.561-2.1-5.08-3.27c-2.95,0.83-6.79-0.77-10.35-0.36
				c-3.57,0.41-6.12,1.75-9.261,2.18c-3.12,1.54-6.939,2.39-9.27,4.72c-5.63,2.9-9,8.06-12.53,13.08c-0.15-0.7-1.4-0.29-1.27-1.28
				c-1.471-0.02-2.391,0.65-3.091,0.91c-0.31,2.26-1.51,5.06-1.63,7.63c0.21,2.88,1.58,5.32,2.54,7.08
				c4.011,7.35,14.12,11.9,22.34,8.17c0.07,0.23,0.23,0.38,0.54,0.37c8.96-2.19,17.141-5.14,22.71-10.72
				c0.021,1.39,1.98,2.1,1.08,3.27c1.301,1.74,1.98,5.06,5.091,4c-0.07,1.09,1.06,0.18,0.909,1.09c0.721,0.06,1.011-0.33,1.811-0.18
				c0.01-1.94,2.59-1.29,3.27-2.55c0-0.3-0.5-0.1-0.54-0.36c1.141-0.07,1.79-0.63,2.721-0.91c-0.011,0.29-0.46,0.14-0.36,0.55
				c1.14,0.8,3.21,0.66,4.18,1.63c1.9-0.64,3.84-0.09,5.44-1.09c0.46-0.28,0.71-0.93,1.09-1.27c0.91-0.81,2.01-1.21,2.73-2
				c0.239-0.27,0.3-0.83,0.539-1.09c0.19-0.19,0.75-0.21,0.91-0.36C656.21,237.79,656.41,236.52,656.81,235.33z M606.15,410.94
				c0.63-1.431,2.54-2.11,2.359-3.99c-0.21-2.13-3.6-3.63-4.54-0.91C604.56,408.15,603.98,410.35,606.15,410.94z M604.69,430.19
				c0.239-3.03,2.199-5.48,2.18-7.44c-0.021-3.04-3.17-2.85-5.26-2.55c-1.92,3.95-2.74,7.49-3.271,11.81
				c-2.85,2.8-6.7,5.5-11.08,6.17c4.141-4.96,6.67-15.279,1.45-20.16c-2.32-2.159-5.7-3.989-9.44-4.72
				c-0.34,0.2-0.64,0.45-1.09,0.55c-12.1-0.26-21.14,7.15-23.25,17.98c-1.3-4.93-2.84-9.63-5.81-12.9
				c-0.66-1.949-2.061-2.75-3.271-4.18c-5.6-6.61-11.59-13.09-20.149-16.34c-4.69-3.42-10.01-6.21-15.62-8.72
				c-6.8-5.391-15.04-7.561-19.43-13.62c-0.99-1.36-2.32-3.5-2.551-5.45c-0.25-2.18,0.71-3.99,1.091-6.351
				c0.109-0.64-0.19-1.699,0-2.729c0.67-3.41,3.079-8.01,4.729-9.98c1.76-2.119,3.55-4.069,5.26-6.54
				c2.431-2.119,5.11-3.979,7.63-5.989c0.79-0.12,1.351-0.471,1.631-1.09c5.59-1.851,12.649-6.551,21.069-5.271
				c1.09,0.17,2.471,0.57,3.45,0.91c2.29,0.78,4.12,2.45,6.18,3.63c1.561,2.11,3.681,4.25,3.99,7.45c0.28,2.899-0.88,5.12-0.91,7.8
				c-3.31,7.54-6.38,15.04-11.08,20.89c-1.609,2.011-3.01,4.28-4.72,5.99c-1.28,1.29-3.05,1.98-3.99,3.63
				c0.721,1.16,1.011,2.761,2.54,2.73c0.891-0.021,2-1.55,2.91-2.181c1.2-0.85,2.351-1.369,3.08-2
				c5.73-4.899,9.72-12.699,13.08-20.34c1.92-4.37,4.25-9.17,4.18-13.8c-0.08-4.79-2.68-9.46-5.09-11.99
				c-1.43-1.5-3.92-3.81-5.63-4.54c-5.45-2.33-10.88-3.38-17.98-2.54c-8.079,0.96-14.88,5.46-20.88,8.9
				c0.03,0.45-0.1,0.75-0.37,0.91c-5.25,4.649-11.22,9.04-14.159,15.62c-0.351,0.779-0.261,1.67-0.551,2.54
				c-0.63,1.92-1.869,3.76-2.359,5.63c-1.94,7.53,2.09,14.75,6.899,18.52c2.78,2.181,4.551,3.41,7.271,5.271
				c3.63,2.479,7.479,4.359,11.439,6.54c7.54,4.14,16.591,7.77,22.881,13.069c2.13,1.79,4.01,3.71,5.989,5.99
				c3.851,4.431,9.09,10.29,9.08,17.26c0,4.351-1.43,8.33-2.899,12.351c-2.341,2.859-4.9,5.51-7.63,7.99
				c-5.131,2.54-11.4,5.54-18.341,6.35c-6.37,0.74-16.14,0.57-21.79-2c-3.449-1.56-5.89-4.16-9.08-5.81
				c-4.109-2.761-5.199-10.471-2.55-15.61c1.94-2.54,4.05-4.92,7.271-6.18c3.96-3.9,9.529-6.21,15.439-8.17
				c-5.26,0.05-13.13,1.239-19.069,2.899c-2.301,1.771-4.57,3.55-7.091,5.09c-1.159,1.38-1.909,3.17-3.449,4.181
				c-2.08,4.949-2.16,11.649,0.55,16.159c0.88,1.471,2.6,2.091,2.72,3.811c2.811,2.46,5.75,4.79,8.54,7.27
				c0.561-0.06,0.87,0.42,1.271,0c0.949,2.08,4,2.051,5.449,3.63c4.11,0.721,8.591,2.41,13.07,2.9c1.48,0.17,3.22-0.05,4.91,0
				c2.14,0.07,4.29,0.51,6.17,0.37c5.79-0.43,11.65-1.99,16.53-2.91c1.489-1.04,3.2-1.88,5.26-2.36c0.71-0.8,1.71-1.31,2.91-1.63
				c4.979-3.37,8.649-8.06,11.08-13.989c0.35-2.181,0.64-4.44,1.27-6.351c0.66,3.4,2.4,5.72,4.54,7.62c2.811,2.5,5.4,3.75,9.8,2.91
				c4.62-0.87,7.341-2.04,10.54-4.36c2.561-0.319,4.261-0.8,6.721-1.45c1.699-1.27,3.67-2.26,5.989-2.909
				c1.351-1.32,3.511-2.771,5.45-2.9c-0.24,3.07,1.43,9.04,4.9,8.71c2.56-0.229,1.96-3.05,1.64-4.9
				C604.4,436.54,604.48,432.89,604.69,430.19z M541.68,245.32c-0.26-1.78,1.67-2.11,1.271-3.45c-2.75,0.43-4.76,2.45-8.17,1.63
				c-3.12-6.08,2.189-11.93,3.08-17.98c0.25-1.69-0.08-3.05,0-4.72c-1.08-1.3-1.771-2.67-3.45-3.27
				c-0.101-0.03-2.641-0.38-2.72-0.36c-4.69,1.4-8.98,4.91-5.99,9.81c1.609-1.72,5.43-6.43,7.81-5.09c1.26,2.83-1.08,5.18-1.46,7.99
				c-2.91,3.67-3.77,8.48-2.18,13.62c0.6,0.61,1.02,1.4,1.46,2.18c1.66,0.72,2.77,2.05,4.9,2
				C538.4,247.62,540.19,246.22,541.68,245.32z M522.43,247.5c-0.22-1.13,0.511-1.31,0.721-2c-6.45-0.16-3.48-8.7-3.08-12.53
				c-0.58-1.22-2.021-0.93-2.73,0c-0.42,3.08-1.51,5.5-2,8.53c-2.46,1.84-3.939,4.65-8.71,4.18c-3.61-5.16,0.13-12.52,1.811-16.89
				c-1.04-0.17-1.311-1.34-2.36-1.27c-1.12,0.08-2.58,2.85-3.271,4.54c-1.25,3.09-1.29,6.56-1.63,8.72
				c-3.72,2.82-9.319,7.76-15.26,8.71c-3.41,0.55-5.82-0.93-6.35-4.35c7.899-1.4,14.77-5.31,16.89-13.08
				c-0.08-6.18-5.8-10.42-10.54-7.26c-2.37,0.85-4.24,2.26-4.54,4.35c-1.38-0.5-1.399,1.84-2.72,2c-0.45-1.35-2.561-2.05-3.271-2.9
				c-0.22-0.28-0.08-0.85-0.359-1.09c-1.41-1.23-3.53-1.1-5.811-1.27c-0.3,0-0.1,0.5-0.37,0.54c-1.76-1.58-3.18,0.08-5.08,0.36
				c-1.939,0.29-4.5,1.4-5.449,2.91c-0.79,0.19-1.07,0.22-1.63,0.73c-0.54,0.24,0.68,0.63,0,1.09c-0.66,0.1-0.54-0.56-1.091-0.55
				c-3.489,3.82-5.979,8.69-6.899,14.71c-2.24,1.15-4.38,2.41-7.09,3.09c-1.11,1.27-2.33,1.59-3.811,1.81
				c-16.19,2.48-25.25-4.74-26.88-19.25c-0.23-2.04-0.08-4.54,0-6.17c0.43-8.48,4.79-15.2,6.9-22.7c0.84-0.8,1.44-1.83,1.82-3.09
				c2.68-3.92,5.169-8.02,7.81-11.98c3.09-2.54,5.95-5.31,8.899-7.99c5.54-3.3,11.391-6.28,17.79-8.72c0.37,0,0.73,0,1.091,0
				c3.239-1.54,7.72-2.16,11.26-0.91c4.529,1.59,10.06,7.16,11.439,12.35c2.9,10.85-2.56,18.38-6.17,24.7
				c2.49-2.05,5.28-6.24,6.9-9.63c0.57-1.19,1.52-2.4,1.82-3.27c1.109-3.21,0.739-8.11-0.181-11.44c0.41-0.13,0.07-1.02,0.181-1.45
				c-0.12-0.31-0.551-0.3-0.73-0.55c-0.14-0.63,0.27-0.69,0.18-1.27c-0.47-0.67-1.6-0.7-1.81-1.63c0.31-0.34,0.63,0.32,0.54-0.55
				c-1.21-1.92-2.37-5.88-3.99-5.26c-0.28-1.64-1.92-2.34-3.09-3.27c-0.03-0.41-0.46,0.23-0.91,0c-2.02-2.04-5.03-1.69-8.35-2.18
				c-0.7-0.1-1.53-0.57-2.36-0.55c-2.87,0.1-7.729,1.44-11.08,2.73c-3.78,1.45-7.28,3.59-10.899,5.63
				c-7.94,4.46-13.761,9.99-18.891,15.8c-0.01,0.31,0.05,0.56,0.19,0.72c-0.8-0.13-0.75,0.59-1.27,0.73
				c-3.12,5.64-7.83,10.52-9.27,17.25c-0.68-0.13-0.39,0.7-0.9,0.73c-1.65,5.25-3.75,11.17-4.36,17.25
				c-0.17,1.65-0.13,3.55-0.18,5.27c-0.45,13.46,9.6,24.41,21.97,26.51c2.25,0.38,5.41,0.55,7.811,0.18
				c4.62-0.69,10.81-3.16,13.26-5.44c1.01,0.24,1.43-1.56,2.54-1.82c2.73,2.04,6.12,5.86,9.62,4.9c-0.05,0.48,0.38,0.47,0.73,0.55
				c0.05-0.86,2.279-0.78,3.27-0.36c1.31-0.95,2.99-1.15,5.08-1.64c0.479-0.24,0.189-0.96,0.37-1.09c0.68-0.26,0.34,0.5,0.899,0.36
				c0.261-0.34,0.301-0.91,0.73-1.09c0.3,0.37-0.021,0.24,0,0.73c1.43-0.86,1.65-1.94,3.45-2.54c-0.28-1.4,1.93-1.92,2.359-3.63
				c2.67,3.76,5.9,6.56,12.351,6.72c0.18-0.31,0.569-0.4,0.91-0.55c-0.021,0.33,0.18,0.43,0.54,0.36c2.92-1.1,4.96-2.13,7.63-3.26
				c0.229-0.59-0.59-0.14-0.36-0.73c0.69,0.12,0.69,0.2,1.45,0c1.28-1.69,2.62-3.31,4.18-4.72c1.4,2.05,3.34,4.39,6.351,4.36
				c1.409-0.02,2.46-1.34,3.819-0.73c0.73-1.2,1.8-2.07,3.08-2.72C517.17,248.43,519.55,248.51,522.43,247.5z M406.2,448.71
				c0.03-0.729-1.76-1.72-2-2.72c-0.45-1.92,0.52-6.101,1.09-9.08c0.61-3.12,2.92-7.74-0.54-8.72c-1.33-0.37-2.08,0.89-2.91,1.09
				c-0.72-3.44-2.79-6.16-6.17-6.53c-0.62-0.07-1.48,0.25-2,0.18c-0.73-0.1-1.26-0.71-2-0.729c-3.07-0.101-5.95,1.89-8.71,2.18
				c-2.39,2.15-4.41,4.67-6.54,7.08c-0.83,3.2-2.13,5.41-2.91,8.54c-1.18,4.76,0.17,10.8,3.82,13.44
				c5.51,3.97,11.61-1.07,14.89-4.181c2.43-2.31,4.55-4.979,6.53-7.08c0.36,3.5,1.99,7.4,4.91,7.811
				C405.19,450.2,406.17,449.72,406.2,448.71z M379.69,254.4c-0.2-0.68,0.68-0.29,0.54-0.91c-1.12-0.82-2.22-1.65-3.09-2.72
				c-1.45-3.23,0.13-7.38-0.54-10.9c-0.71-0.38-1.21-0.97-1.82-1.45c-0.55-0.03-0.81,0.64-1.27,0.18c0.04,1.07-0.94,1.25-1.09,2
				c-0.05,0.26,0.31,0.65,0.18,1.09c-0.84,2.91-2.19,7.4-4.35,8.89c-2.81,1.94-3.27-0.64-3.09-3.08c0.31-4.31,3.42-7.7,2.18-11.08
				c-1.2-0.34-2.12-0.09-3.45-0.18c-1.38,2.49-2.13,5.62-3.45,8.17c0.29,2.19,0.14,3.86,0.36,5.99c-1.13,1.78-3.06,2.76-4.9,3.82
				c-3.72-2.29-1.63-9.18-1.46-13.08c0.59-2.79,2.46-6.03,2.18-9.62c-0.6-0.85-2.02-0.89-2.54-1.82c-1.57-4.59-7.53-8.05-13.62-7.08
				c-0.88,0.14-1.91,0.89-2.91,0.9c-0.81,0.02-1.29-0.13-1.99,0.19c-3.77,1.69-7.24,4.24-9.99,6.17c0.01,0.32-0.04,0.57-0.18,0.73
				c-1.58,1.1-3.56,3.02-5.09,5.26c-1.22,1.8-3.01,4.88-3.63,6.72c-1,2.98-0.66,7.14,2.36,8.72c-1.63-1.98-2.14-8.58,1.27-8.35
				c0.61-0.4-0.55-0.98,0-1.27c0.43,0.05,0.68,0.28,1.27,0.18c-0.02-0.45-0.02-0.88,0.18-1.09c3.53-0.44,2.54-4.37,5.45-4.91
				c0.22-0.71-0.19-1,0.37-1.45c0.43-0.07,0.39,0.33,0.9,0.18c-0.4-1.63,2.28-0.73,2-2.72c0.92,0.12,0.91-0.79,1.64-0.36
				c0.51-1.92,3.15-1.7,4.35-2.91c2.39,0.15,3.22-1.71,5.09-1.09c2.45-1.11,8.3-1.42,9.08,2c0.2,0.88-0.48,1.68,0.18,2.72
				c-1.08,2.29-0.96,4.94-2.36,7.08c-0.13,0.5,0.36,0.37,0.36,0.73c-0.58,0.2-0.99,0.58-0.9,1.45c-0.25-0.05-0.35-0.25-0.73-0.18
				c-0.23,2.36-1.42,2.36-2,4c-0.52-0.53-0.57,0.35-1.27,0.18c-0.31,0.66-1.06,0.88-1.27,1.63c-0.27-0.21-0.46-0.21-0.73,0
				c-0.97,0.9-2.62,1.85-3.45,2.55c-1.2,1-2.82,1.33-4.17,1.99c-1.96,0.96-3.54,2.15-5.82,2.55c-1.13,0.19-1.33,0.54-1.99,0.72
				c-3.33,0.94-9.81,1.63-12.72-0.91c-2.97-3.47-1.28-12.41-8.71-10.35c0.57,10.91,9.06,17.8,18.52,17.07
				c10.52-0.8,18.45-8.16,24.88-13.07c1.47,4.52,3.44,10.21,9.63,9.99c1.14-1.01,1.61-1.57,3.08-2.18
				c-0.06-0.85-0.33-1.02,0.73-0.91c-0.24-0.83,0.02-0.57,0.36-1.09c1.43,0.49,2.55,0.77,4,1.63c2.07-0.41,2.87-0.26,5.08-0.9
				c0.25-0.42-0.47-0.69,0-0.73c1.48,0.52,1.93-0.92,2.18-1.45C376.12,252.27,376.77,254.47,379.69,254.4z M378.23,406.95
				c0.93-2.5-2.61-3.36-4.72-2.73c-2.04,0.61-6.01,4.92-7.26,8.54c-0.79,2.25-0.94,4.79-0.37,7.26c0.72,0.08,0.83,0.75,1.46,0.91
				c0.07-1.5,0.53-2.62,0.72-4c1.16-0.51,1.63-1.479,2.36-2.18c1.42-1.33,2.41-2.93,4-4.54
				C375.38,409.25,377.89,407.88,378.23,406.95z M372.97,453.62c0.11-4.71-5.99-0.11-7.63-2.73c1.31-1.689,3.29-4.62,3.81-7.81
				c0.08-0.44-0.29-1.03-0.18-1.63c0.09-0.49,0.54-0.9,0.55-1.271c0.01-0.56-0.34-2.33-0.55-3.449c-0.32-1.74-1.94-4.86-3.09-5.631
				c-2.47-1.67-5.09-0.199-7.44,1.271c-4.1,4.63-3.51,15.7-0.36,20.7c-2.82,2.54-7.41,6.63-11.99,6.72
				c-3.97,0.09-5.2-2.31-5.27-5.45c-0.1-5.109,1.58-10.96,3.27-16.34c1.33-4.23,3.45-8.37,4.18-12.17
				c2.09-10.9-7.78-16.68-18.34-11.62c-2.25,1.94-0.43,4.31,2.18,4.36c2.44,0.04,8.49-3.971,10.53-0.551
				c0.03,6.461-2.28,10.23-4,15.801c-0.58,1.899-0.88,3.989-1.45,6c-1.36,4.77-3.3,9.27-2.54,14.34c0.49,3.29,2.83,6.59,5.63,8.17
				c4.57,2.59,10.5,1.06,14.16-1.271c2.41-1.529,4.36-2.939,6.54-4.899c1.88,0.609,3.76,1.939,6.36,1.63
				C369.21,457.57,372.93,455.27,372.97,453.62z M334.47,364.63c0.99-1.64,1.24-3.93,1.09-5.63c-0.22-2.38-1.51-5.81-2.73-7.62
				c-0.45-0.68-1.63-2.04-2.54-2.91c-3.79-3.63-8.5-4.8-15.07-5.09c-7.13-0.31-12.87,1.33-17.8,2.37
				c-3.57,1.72-6.87,3.41-10.17,5.26c-3.26,1.83-6.05,4.41-9.63,5.811c-1.34,1.85-3.3,3.05-5.08,4.359
				c-5.49,4.04-10.02,9.2-14.16,14.53c-2.76,3.54-5.78,7.08-8.18,10.9c-2.45,3.89-3.84,8.31-6.53,12.159
				c0.04,0.771-0.48,0.98-0.37,1.82c-1.96,2.271-2.43,6.04-4.18,8.53c-2.08,9.68-4.94,18.74-4.35,30.149
				c0.28,5.54,1.36,8.98,2.36,13.08c0.48,0.24,0.73,0.721,1.09,1.091c1.98,5.52,5.34,9.67,8.9,13.619
				c6.62,4.641,13.73,10.71,24.33,10.171c5.15,1.21,9.26-0.08,13.26-1.271c1.86-0.56,3.85-1.27,5.45-2
				c10.21-4.7,19.99-10.91,27.24-17.979c1.02-2.12,3.06-3.33,4.54-5.091c2.33-2.77,3.94-6.12,6.35-8.89
				c0.02-1.92,2.56-4.38,0.91-5.63c-0.86,1.189-1.49,2.62-2.54,3.63c-0.88-1.19-0.68,1.05-2,0.54c-3.5,5.16-8.42,10.11-13.62,14.89
				c-3.56,3.271-7.71,6.69-12.53,8.721c-1.67,0.699-3.72,1.72-5.27,2c-0.79,0.14-1.59-0.141-2.36,0c-0.98,0.17-1.92,0.93-2.9,1.27
				c-1.41,0.48-1.69,0.24-2.91,0.36c-1.08,0.109-2.12,0.859-3.27,1.09c-7.18,1.45-13.47-1.49-19.07-3.08
				c-1.77-1.85-4.18-2.31-6.17-3.64c-3.4-2.261-6.64-5.71-8.72-9.62c-1.05-1.98-1.75-4.271-2.72-6.54c-0.98-2.28-2.23-3.78-2.36-6.9
				c-0.32-7.63,1.1-14.82,2.9-23.43c0.59-2.811,1.7-5.93,3.09-9.08c0.95-2.15,2.12-4.25,2.91-5.99c0.84-1.87,1.28-3.939,2.17-5.63
				c1.18-2.229,3-4.56,4.55-6.72c3.23-4.5,6.07-8.98,9.44-13.07c2.58-3.15,5.13-6.08,7.99-8.72c0.9-0.83,2-1.811,2.9-2.54
				c7.99-6.46,17.91-12.61,29.24-15.99c2.45-0.729,6.46-1.46,9.63-1.09c0.96,0.12,1.91,0.62,2.72,0.729
				c3.27,0.431,5.37,0.82,7.81,2.54c1.58,1.12,3.46,2.221,4.36,3.82C334.06,356.74,333.6,360.54,334.47,364.63z M270,259.85
				c0.48-0.66,4.29-3.4,1.63-4.54c-1.29-0.56-3.2,1.31-4.9,0.9c-1.47-0.35-2.99-3.32-3.45-5.08c-1.52-5.86,0.78-11.15,0.36-16.35
				c-0.96-2.92-4.99-1.5-7.44-1.45c0.76-2.5-1.02-4.23-3.82-3.63c-1.82,3.21-4.1,7.25-4.17,11.44c-0.53,0.57-0.95,1.78-0.55,2.72
				c-0.87,1.23-0.96,3.35-0.91,5.09c-1.06,3.06-1.59,5.88-1.27,9.08c0.63,0.4,0.76,1.3,1.09,2c0.84,0,0.91,0.78,1.82,0.72
				c0.52-0.2,0.92-0.52,1.45-0.72c-0.13-0.8,0.31-1.03,0.18-1.82c3.52-3.69,4.11-10.3,7.27-14.35
				C256.77,252.41,260.61,261.22,270,259.85z M242.03,230.43c-0.11-3.35-2.83-4.07-5.45-4.91c-1.48,1.94-0.51,5.84,1.27,7.09
				C239.3,231.86,240.94,231.81,242.03,230.43z M237.67,262.75c0.45-0.1,0.17-0.92,0.91-0.72c-0.08-0.92-0.66-0.39-0.91-0.91
				c-0.09-2.68-0.37-7.26-0.72-10.72c0.84-4.22,1.56-6.75,1.63-10.53c-1.27-1.12-2.42-1.62-4.18-1.27
				c-2.56,7.17-2.61,15.93-0.18,22.15c0.11,0.32,0.86-0.01,0.91,0.37c0,0.3-0.5,0.1-0.55,0.36
				C235.44,262.07,236.28,262.69,237.67,262.75z M228.23,245.14c0.08-3.8-1.22-6.53-3.27-9.08c-3.58-1.75-7.63-3.03-12.89-3.09
				c-0.03,0.21,0.03,0.51-0.19,0.54c-0.01-0.28,0.03-0.63-0.36-0.54c-6.84,0.24-12.61,2.8-15.44,7.63c-0.57-0.21-0.48-0.09-0.9,0.18
				c-0.66,0.61-0.52,2.03-1.64,2.18c-0.7-2.22,1.83-4.54,0.73-6.54c0.65-0.26,0.8-1.01,0.91-1.82c-1-1.74,1.35-4.35-0.37-5.81
				c0.72-0.37,0.45-0.84,1.27-1.27c-0.65-0.3-0.22-0.86,0-1.27c-0.9,0.05,0.34-1.85-0.9-2.18c0.12-0.73,0.74-0.95,0.72-1.82
				c-0.74-2.34-1.08-4.59-1.27-7.44c-1.2-0.78,0.1-3.82-1.27-4c0.33-0.05,0.06-1.28-0.18-2c-0.4-1.22-2.11-3.13-2.54-4.35
				c-0.37-1.03-0.97-2.24-1.82-2.55c0.21-0.26,0.21-0.45,0-0.72c-6.64-9.77-16.21-16.6-26.33-22.88c-5.04-2.04-9.28-4.09-14.89-5.27
				c-1.74-1.05-4.38-1.2-6.18-2.18c-0.59-0.22-0.14,0.59-0.72,0.36c-0.5-1.22-2.06-0.26-2.73-1.27c-0.03,0.22,0.03,0.52-0.18,0.55
				c-0.28-0.96-2.49-1.56-2.91-0.73c0.14-1.07-3.48-1.63-4.35-1.09c-0.78-0.75-2.35-1.17-3.45-0.73c-0.36-1.55-4.23-0.79-4-1.81
				c-4.06-0.41-5.92-3.19-8.54-4.54c0.55,0.18,0.33-0.41,0.37-0.73c-1.5-0.5-1.77-2.08-2.91-3.09c0.43-0.11-0.03-1.11,0.37-1.27
				c-1.37-0.5,0.04-2.75-1.09-3.81c1.41-0.57,0.57-2.21,0.9-3.45c0.28-1.04,1.62-1.85,1.27-3.09c1.74-2.56,3.02-5.58,5.45-7.44
				c0.05-1.29,1.31-1.36,1.46-2.55c3.59-3.18,7.37-6.18,11.62-8.71c0.03,0.21,0.29,0.19,0.54,0.18c2.18-1.85,5.56-2.93,8.36-2.73
				c0.33-0.15,0.5-0.46,0.91-0.54c1.76,0.26,3.64,0.11,4.9,1.09c0.24,0,0.16-0.32,0.36-0.36c0.81,0.32,1.2,0.75,2,0.54
				c0.33,1.25,1.93,1.22,2.72,2c0.76,1.45,0.88,2.56,1.46,3.99c-0.38,0.87-0.04,1.94,0.18,3.09c-0.64,1.42-0.82,3.3-1.46,4.72
				c0.56,0.96,1.18,1.85,2.91,1.64c1.46-2.43,2.73-4.94,1.82-8.54c1.12-1.11-0.15-3.39-0.37-5.45c-1.43-1.41-3.19-2.5-4.54-3.99
				c-3.26-0.92-5.87-2.19-9.98-1.82c-9.63,0.86-17.86,6.28-23.43,10.9c-4,2.96-7.9,6.02-10.72,10.17c0,0.3,0,0.6,0,0.91
				c-1.11,0.86-2.29,2.48-1.99,4.17c-1.86,1.4-1.09,3.58-1.82,6.18c1.47,0.55-0.66,2.84,0.73,3.08c-0.27,0.16-0.27,0.59-0.37,0.91
				c0.86,1.5,1.01,3.05,1.64,4.18c3.58,6.47,11.88,9.8,19.97,11.44c9.44,1.91,18.63,3.14,26.34,5.81c0.28-0.01,0.14-0.46,0.54-0.36
				c2.39,1.91,5.79,2.81,8.17,4.72c0.67,0.04,0.7,0.25,1.27,0c-0.12,1.18,1.55,2.06,3.09,2.18c-0.04,0.77,0.53,0.92,0.73,1.45
				c0.74-0.2,1.05,0.01,1.81,0.18c-0.2,1.9,1.87,1.53,2,3.09c1.26-0.1,1.51,0.79,1.64,1.82c1.06-0.04,1.2,0.77,1.27,1.27
				c0.71,0.28,0.93,0.11,0.91,0.91c0.57,0.2,0.44-0.29,0.72-0.37c0.36,1.77,2.58,1.66,2.54,3.82c0.33,0.55,0.72-0.67,1.09,0
				c-0.74,1.52,2.06,1.92,1.09,3.08c0.51,0.91,1.56,1.05,1.82,2c0.96,3.46,2.52,5.15,2.72,8.72c0.28,0.03,0.67-0.07,0.73,0.18
				c-0.48,1.44,0.34,3.16,0.18,5.45c0.86,0.15,0.61,1.77,0.91,2.54c-0.29,0.02-0.63-0.02-0.54,0.36c-0.42,1.97,0.63,3.33-0.19,4.54
				c0.31,0.25,0.29,0.81,0.55,1.09c-0.89,3.3-2.21,6.47-1.82,8.9c-1.52,0.25-1.38,3.69-2.9,4.54c-0.09,0.57,0.55,0.41,0.36,1.09
				c-1.39,1.45-2.03,3.66-2.91,5.63c-1.46,0.9-2.94,2.54-2.54,4.72c-0.3,0-0.6,0-0.91,0c-1.01,1.06-1.41,2.73-2.36,4
				c-0.18,0.25-0.82,0.33-1.09,0.73c-1.51,2.22-3.96,4.04-5.44,5.99c-1.98,1.19-4.21,3.03-5.45,4.36
				c-3.89,1.85-7.13,4.08-11.81,4.72c-2.32,0.32-3.84,1.62-5.63,1.81c-0.25,0.03-0.61-0.24-0.9-0.18
				c-6.16,1.22-11.44,2.01-17.8,1.82c-5.86-0.17-14.1-0.34-19.98-1.45c-1.01-0.19-2.12,0.11-3.09,0c-1.73-0.2-3.57-0.73-5.08-1.09
				c-10.05-2.4-15.74-9.28-20.16-18.35c-2.93-18.6,9.14-26.6,20.16-33.05c2-0.48,3-1.96,5.27-2.18c2.11-1.17,4.93-2.55,7.26-2.9
				c0.03-0.22-0.03-0.52,0.18-0.55c1.08,0.49,1.37-0.29,2-0.72c0.21,0.21,0.64,0.2,1.09,0.18c0.51-0.8,1.39-0.15,2-0.91
				c3.06,0.25,5.93-0.81,8.89-1.09c2.64-0.25,5.56,0.42,8.36-1.09c-8.3-2.1-18.44-0.62-26.15,1.64c-1.79,0.52-3.55,0.8-4.91,1.27
				c-4.4,1.52-8.68,4.86-12.89,5.81c-8.6,6.48-16.12,14.02-19.43,25.79c0.21,0.08,0.41,0.19,0.54,0.36
				c-1.17,3.52,0.09,7.98,1.46,11.8c0.53,0.02,0.67,0.42,0.9,0.73c6.05,16.62,27.21,20.67,44.5,21.97c0.03-0.21-0.03-0.51,0.18-0.54
				c4.46,1.42,9.16,0.92,13.98,0.73c2.32-0.1,3.95-0.67,5.45-0.91c2.19-0.36,4.54-0.33,6.72-0.73c2.89-0.52,6.12-1.5,8.17-2.18
				c1.47-0.48,3.21-0.08,4-1.09c0.55-0.13,0.53,0.32,1.09,0.18c0.12-0.48,0.54-0.66,0.91-0.9c3.58-1.02,6.81-2.39,9.44-4.36
				c0.87-0.12,0.65-0.39,1.63-0.18c3.47-2.7,7.18-4.39,9.99-7.45c0.36,0.3,0.23-0.02,0.73,0c0.2-0.57-0.05-0.48,0.18-0.91
				c2.54-1.01,4.1-3.82,6.36-4.54c0.51-1.03,0.62-1.36,0.9-2.54c0.22,0.21,0.65,0.21,1.09,0.18c0.1-2.2,2.74-1.87,2.91-3.99
				c1.16,0.13,0.98-1.08,1.63-1.46c1.23,2.24,1.46,4.83,2.55,7.45c2.58,4.19,6.03,7.48,11.26,8.35c5.62,0.94,10.73-2.56,14.89-3.99
				c0.6-1.19,1.59-2.18,3.08-2.91c0.05-0.74,0.74-0.96,0.37-1.63c1.1-0.05,1.08-1.22,2-1.46
				C225.33,252.16,228.15,249.09,228.23,245.14z"/>
			<path fill="#FFFFFF" d="M773.22,203c1.17-4.64,5.38,0.18,4.73,3.27c-1.62,0.29-2.04,0.67-3.82,0.73
				C773.5,206,774.12,203.74,773.22,203z"/>
			<path fill="#FFFFFF" d="M772.5,233.51c1.56,0.34,3.52,1.3,2.54,3.09c-5.47,0.54-8.1-4.5-9.08-9.62c-1.42,2.08-4.3,2.72-5.63,4.9
				c-0.43,0.06-0.68,0.29-1.271,0.18c-0.229,0.59,0.591,0.14,0.36,0.73c-3.1,1.07-4.77,3.15-7.99,3.45c0,0.83-1.489,1.46-3.09,1.27
				c-5.95,2.38-11.64,4.33-14.89-0.18c-4.9-6.83-1.9-17.95,2.729-22.52c0.29-0.05,0.311,0.17,0.54,0.18
				c0.34-0.32-0.22-0.53,0.181-0.91c4.34-2.25,9.029-6.95,15.619-6.17c1.671,0.19,3.351,1.13,5.45,0.9
				c-0.149,0.52,0.25,0.48,0.181,0.91c1.199-0.25,2.6,0.77,2.909,2c2.04-0.34,3.21,2.51,3.261,4.18c1.26,0.93,0.77,2.18,1.09,3.45
				c-0.09,0.04-0.47,0.29-0.641,0.18c-0.02-0.06-0.05-0.12-0.079-0.18c0.01,0.1,0.029,0.15,0.079,0.18
				c0.45,0.99,0.73,2.24,0.101,3.63c-0.39,0.85-0.3,2.59-0.91,3.82c4.69-0.78,1.95-7.34,5.45-10.36c0.04-0.56,0.18-1.02,0.359-1.45
				c2.221-0.47,4.44,1.09,5.091,3.27C772.63,222.89,769.82,228.88,772.5,233.51z M760.33,227.16c2.2-3.46,2.92-8.8,1.63-12.72
				c-2.9-3.84-8.12-3.25-13.07-1.81c-1.449,0.97-2.939,1.78-4.359,2.72s-2.61,2.16-4.181,2.91c0.311,0.89-0.979,1.32-1.27,2.18
				c-1.1,1.69-2.78,3-3.09,5.08c-1.01,6.85,6.189,10.64,12.899,9.08C752.55,233.75,758.53,229.99,760.33,227.16z"/>
			<path fill="#FFFFFF" d="M764.69,219.35c0.029,0.06,0.06,0.12,0.079,0.18C764.72,219.5,764.7,219.45,764.69,219.35z"/>
			<path fill="#FFFFFF" d="M761.96,214.44c1.29,3.92,0.57,9.26-1.63,12.72c-1.8,2.83-7.78,6.59-11.44,7.44
				c-6.71,1.56-13.909-2.23-12.899-9.08c0.31-2.08,1.99-3.39,3.09-5.08c0.29-0.86,1.58-1.29,1.27-2.18
				c1.57-0.75,2.761-1.97,4.181-2.91s2.91-1.75,4.359-2.72C753.84,211.19,759.06,210.6,761.96,214.44z"/>
			<path fill="#FFFFFF" d="M747.07,160.33c0.239,1.47-1.15,3.51,0,4.17c0.16,0.59-0.601,0.25-0.54,0.73
				c-0.12,3.15-0.721,6.17-1.82,8.9c-0.16,0.39-0.78,0.7-0.91,1.09c-1.33,4.22-3.46,9.24-6.17,12.17c-0.96,2.85-3.18,4.44-4.54,6.9
				c-0.439-0.08-0.399,0.33-0.91,0.18c3.641-6.35,6.34-13.64,10.17-19.8c0.07-0.43-0.33-0.39-0.18-0.9c0.6-0.43,0.58-1.49,1.09-2
				c0.53-2.76,1.45-5.44,1.45-8.54c0-1.77-0.65-3.87-0.54-5.45c-1.479-2.87-3.47-6.03-7.63-5.81c-2.44,0.13-6.14,0-7.45,1.09
				c-1.33-0.21-3.479,0.25-3.99,1.46c-0.239-0.07-0.29-0.32-0.55-0.37c-0.26,0.46-0.439,0.72-0.18,1.27
				c-1.95,0.05-2.83,1.16-4.36,1.64c-0.49,0.16,0.561,0.4,0,0.72c-0.66,0.12-0.689-0.39-1.27-0.36c-0.24,0.18-0.36,0.49-0.54,0.73
				c0.08,0.28,0.569,0.15,0.359,0.72c-2.3,0.13-2.729,4.17-5.63,3.27c-0.069,0.68,0.74,0.48,0.551,1.27
				c-1.141,0.14-1.28,1.27-2,1.82c-0.601-0.07-0.69-0.64-0.91-1.09c-0.84,0.25-0.24,1.94-1.271,2c0.05,0.24,0.45,0.15,0.73,0.18
				c0.38,1.42-0.45,2.51-1.82,3.09c0.14,0.58,1.28,0.17,1.09,1.09c-1.17-0.08-0.939,1.24-2.18,1.09c-0.49-0.79,0.33-0.57,0.36-1.28
				c-0.051-0.24-0.45-0.15-0.721-0.18c-0.569,0.13-0.24,0.49-0.189,0.91c-0.79-0.25-0.65,0.43-1.08,0.55
				c1.39,1.79,0.25,3.06,0.18,5.26c-0.25,0-0.49,0-0.729,0c-0.261,1.11,0.77,0.92,0.55,2c-0.971,0.19-1.561,0.75-2.37,1.09
				c0.8-0.25,1.03,1.15,1.46,1.82c0.06,0.55-0.59,0.37-0.91,0.54c1.15,0.18,1.6,2.83,0.36,3.27c0.54,0.39,1.17,1.52,0.18,2
				c0.26,0.29,0.9,0.19,1.09,0.54c-0.479,0.9,0.021,1.1-0.18,1.82c0.89,0.52,2.09,2,1.27,3.09c1.25,0.52,1.23,2.61,2.73,3.45
				c0.1,0.4-0.351,0.25-0.37,0.54c1.42,2.01,2.97,4.74,3.64,6.9c0.851,0.17,0.46,1.6,1.63,1.45c-0.09,0.58,0.33,0.65,0.181,1.28
				c1.069,0.56,1.55,1.71,2.359,2.54c-0.069,0.62-0.409,1.32,0.551,1.27c1.89,3.94,5.229,7.97,7.439,12.35
				c0.01,0.31-0.13,0.47-0.359,0.54c1.55,1.88,1.569,4.48,2,6.72c0.189,1.01,0.699,1.69,0.72,2.55c0.05,1.35-0.49,2.48,0.37,3.81
				c-0.74,1.64-0.761,4.25-1.46,6.72c-0.37-0.08-0.48,0.12-0.721,0.18c0.891,1.1-0.6,2.39-1.449,2.91
				c-0.23,0.81-0.761,1.87-1.46,2.54c-0.301,0.29-0.391,0.29-0.721,0.72c-0.46,0.6-2.96,2.46-3.64,2.91
				c-3.2,2.16-8.271,2.62-11.98,3.27c-0.76-0.3-2.1-0.2-2.909-0.18c-1.44,0.03-4.44-0.33-5.99-1.27c-0.4-0.25-0.63-1.04-1.63-0.73
				c0.22-0.59-0.59-0.14-0.37-0.73c-4.811-1.53-7.391-6.01-10.17-10.35c-0.271-2.89-1.5-5.99-0.36-8.9
				c-0.53-0.71-0.229-1.66,0.18-2.36c0.141-0.56-0.5-0.35-0.359-0.91c0.31-0.31,0.74-0.67,0.91-1.09c0.21-0.53,0.13-1.79,0.359-2.54
				c0.04-0.13,0.49-0.24,0.54-0.36c0.25-0.58-0.43-1.33,0.55-1.09c0.07-0.44-0.33-0.4-0.18-0.91c0.32,0.02,0.38-0.22,0.72-0.18
				c3.04-6.11,10.021-9.22,16.71-11.08c0.49,0.42,1.41,0.41,2,0.73c0.021,0.87-1.26,0.44-1.819,0.72
				c-6.71,3.1-12.431,7.19-15.8,13.62c0.109,1.02-0.171,1.65-0.54,2.18c-1.48,12.69,9.819,24.16,23.06,18.89
				c2.32-0.05,3.24-1.48,4.72-2.36c1.12-1.37,1.98-2.98,3.271-4.18c0.46-0.76,0.83-2.99,1.819-3.81
				c-0.319-1.23,0.021-3.15,0.54-4.54c-0.3-0.93-0.72-2.72,0.181-3.45c-0.48-0.41-1.221-2.35-0.36-2.91
				c-0.12-0.24-0.39-0.33-0.72-0.36c0.56-1.28-0.19-2.68-0.73-3.45c0.141-0.1,0.29-0.19,0.54-0.18c-0.399-0.2-0.12-1.09-0.899-0.91
				c0.25-1.64-1.29-2.9-1.28-4.9c-0.12-0.55-0.38,0.17-0.72,0c-0.13-0.63-0.931-1.26-0.551-1.82c-0.59-0.07-1.079-0.73-0.72-1.63
				c-1.939-1.95-3.37-4.38-4.54-7.09c-0.16-0.27-0.46-0.39-0.91-0.36c-0.159-2.32-2.68-3.69-3.27-6.17c-2-0.7-0.771-2.71-2.54-3.45
				c-0.19-1.53-1.01-3.26-2-4.18c0.1-0.27-0.21-0.94,0.18-0.91c-0.17-0.32-0.34-0.63-0.91-0.54c0.15-0.56,0.681-0.93-0.359-0.91
				c-0.16-0.58,0.29-0.56,0.359-0.91c-1.06-2.45-1.42-5.4-1.63-8.35c-0.31-4.27,1.351-8.34,2.181-11.81
				c0.619-0.11,0.399-1.05,1.09-1.09c1.609-2.95,3.54-5.68,5.81-7.99c1.58-1.62,3.59-2.82,4.9-4.72c0.33-0.02,0.38,0.22,0.729,0.18
				c0.34-0.34,0.021-0.45,0-0.91c1.641-0.69,2.87-0.73,3.63-2.36c1.98,0.27,2.601-1.51,4-1.27c0.381-0.4,0.7-0.87,1.091-1.27
				c3.979-0.18,6.67-1.52,10.89-1.27c1.13,0.06,3.51,0.61,5.63,0.73c0.75,0.64,0.99,1.79,2.54,1.63c-0.3,0.72,0.87,0.9,1.46,1.27
				c0.12,0.67-0.31,0.78-0.18,1.45c1.029,0.34,1.029,2.13,1.81,2.18c-0.26,1.15,0.53,2.83,0.36,3.45
				C746.21,160.34,746.96,160.01,747.07,160.33z"/>
			<path fill="#FFFFFF" d="M653.18,235.51c1.15-0.7,2.44-2.27,3.63-0.18c-0.399,1.19-0.6,2.46-1.63,3.45
				c-0.16,0.15-0.72,0.17-0.91,0.36c-0.239,0.26-0.3,0.82-0.539,1.09c-0.721,0.79-1.82,1.19-2.73,2c-0.38,0.34-0.63,0.99-1.09,1.27
				c-1.601,1-3.54,0.45-5.44,1.09c-0.97-0.97-3.04-0.83-4.18-1.63c-0.1-0.41,0.35-0.26,0.36-0.55c-0.931,0.28-1.58,0.84-2.721,0.91
				c0.04,0.26,0.54,0.06,0.54,0.36c-0.68,1.26-3.26,0.61-3.27,2.55c-0.8-0.15-1.09,0.24-1.811,0.18c0.15-0.91-0.979,0-0.909-1.09
				c-3.11,1.06-3.79-2.26-5.091-4c0.9-1.17-1.06-1.88-1.08-3.27c-5.569,5.58-13.75,8.53-22.71,10.72c-0.31,0.01-0.47-0.14-0.54-0.37
				c-8.22,3.73-18.329-0.82-22.34-8.17c-0.96-1.76-2.33-4.2-2.54-7.08c0.12-2.57,1.32-5.37,1.63-7.63c0.7-0.26,1.62-0.93,3.091-0.91
				c-0.131,0.99,1.119,0.58,1.27,1.28c3.53-5.02,6.9-10.18,12.53-13.08c2.33-2.33,6.149-3.18,9.27-4.72
				c3.141-0.43,5.69-1.77,9.261-2.18c3.56-0.41,7.399,1.19,10.35,0.36c1.52,1.17,3.99,1.3,5.08,3.27c0.479-0.49,0.55,0.22,1.09,0.18
				c0.64-0.27,0.55-1.27,1.46-1.27c0.16-1.54-0.33-2.95,1.09-3.45c-0.03-0.21-0.34-0.15-0.55-0.18c0.93-0.56,0.22-1.8,1.27-2.36
				c2.28-7.66,8.551-14.29,13.08-20.89c0.511-0.15,0.471,0.26,0.91,0.19c0.21,2.1-1.229,3.22-2.55,5.44
				c-0.8,1.36-1.35,2.65-1.99,4.18c-0.6,1.41-1.88,2.75-2.359,4.18c-0.63,1.83-1.37,3.61-2,5.26c-0.86,2.23-2.12,4.06-2.73,6.18
				c-0.399,1.41-0.21,4.54-1.45,5.08c0.59,0.35,0.16,2.16-0.54,2.36c0.04,0.2,0.36,0.13,0.36,0.37c-1.63,6.15-1.99,14.43-4.18,19.43
				c0.51,0.66,0.58,2.59-0.181,2.91c1.08,1.16,0.15,2.82,1.271,4.17c2.3,0.25,2.92-1.19,4.18-2c0.271-0.84-1.25-2.08,0-2.17
				c-1.52-0.66,0.11-3.01-1.09-4.18c0.11-0.66,1.17-1.53,0.54-1.82c-0.05-0.48,0.25-0.59,0.729-0.54
				c-0.119-3.46,2.181-6.05,4.181-7.99c2.05-0.06,3.46-1.14,5.45-0.73c0.979,0.96,1.689,1.96,1.81,3.81
				c0.1,1.56-0.01,3.64-0.91,3.82c0.59,0.91-0.17,1.82-0.54,2.36c-1.22-0.25-0.75-2.31,0-2.91c-0.96-1.03-0.399-3.42-1.819-4.36
				c-1.341-0.07-1.74,0.8-2.721,1.09c-1.01,3.36-4.189,7.99-1.09,11.26c1.69-0.23,1.75-1.57,3.45-1.45
				c-0.03,0.21,0.04,0.32,0.18,0.36c-0.149,0.94-1.02,1.16-1.27,2c0.18,0.24,0.18,0.67,0.359,0.91c2.99,1.94,5.5-1.86,8.17-3.09
				C652.63,235.53,652.93,235.67,653.18,235.51z M630.3,215.72c0.141-1.12-0.26-2.34,0.181-3.09c-1.631-0.27-2.69-2.61-4.9-3.09
				c-1.82-0.39-3.54,0.34-5.271-0.36c-0.04,0.2-0.199,0.28-0.359,0.36c-5.12,0.02-7.95,1.42-12.53,3.09
				c-0.56,0.13-0.54-0.31-1.09-0.18c-0.17,0.56-0.78,0.68-1.09,1.09c-2.11,0.38-4.07,2.45-6.36,3.27c-0.81,1.24-2.04,2.07-3.45,2.72
				c0.221,0.02,0.431,0.05,0.37,0.36c-1.68,0.75-2.12,2.73-4,3.27c-0.12,1.34-0.88,2.03-1.819,2.54c-0.23,0.8-0.431,1.62-1.45,1.64
				c0,0.42,0,0.85,0,1.27c-0.73,0.23-1.101,0.84-2,0.91c-0.3,0.36,0.02,0.23,0,0.72c-1.46,0.38-1.5,2.19-1.271,3.45
				c0.32,1.77,2.181,3.95,2.36,5.82c3.38,4.17,8.93,5.11,14.35,4.54c9.69-1.03,17.87-5.74,23.79-10.54
				c1.11-1.91,1.24-4.15,2.181-5.45c-0.37-0.67,0.06-1.14,0.359-1.63c-0.53-0.82,0.12-1.64,0.55-2.72
				c-0.239-1.02-0.029-2.85,0.721-3.45C629.24,218.92,630.1,217.3,630.3,215.72z"/>
			<path fill="#FFFFFF" d="M630.48,212.63c-0.44,0.75-0.04,1.97-0.181,3.09c-0.2,1.58-1.06,3.2-0.729,4.54
				c-0.75,0.6-0.96,2.43-0.721,3.45c-0.43,1.08-1.08,1.9-0.55,2.72c-0.3,0.49-0.729,0.96-0.359,1.63c-0.94,1.3-1.07,3.54-2.181,5.45
				c-5.92,4.8-14.1,9.51-23.79,10.54c-5.42,0.57-10.97-0.37-14.35-4.54c-0.18-1.87-2.04-4.05-2.36-5.82
				c-0.229-1.26-0.189-3.07,1.271-3.45c0.02-0.49-0.3-0.36,0-0.72c0.899-0.07,1.27-0.68,2-0.91c0-0.42,0-0.85,0-1.27
				c1.02-0.02,1.22-0.84,1.45-1.64c0.939-0.51,1.699-1.2,1.819-2.54c1.88-0.54,2.32-2.52,4-3.27c0.061-0.31-0.149-0.34-0.37-0.36
				c1.41-0.65,2.641-1.48,3.45-2.72c2.29-0.82,4.25-2.89,6.36-3.27c0.31-0.41,0.92-0.53,1.09-1.09c0.55-0.13,0.53,0.31,1.09,0.18
				c4.58-1.67,7.41-3.07,12.53-3.09c0.16-0.08,0.319-0.16,0.359-0.36c1.73,0.7,3.45-0.03,5.271,0.36
				C627.79,210.02,628.85,212.36,630.48,212.63z"/>
			<path fill="#FFFFFF" d="M608.51,406.95c0.181,1.88-1.729,2.56-2.359,3.99c-2.17-0.591-1.591-2.79-2.181-4.9
				C604.91,403.32,608.3,404.82,608.51,406.95z"/>
			<path fill="#FFFFFF" d="M606.87,422.75c0.02,1.96-1.94,4.41-2.18,7.44c-0.21,2.699-0.29,6.35,0.189,9.079
				c0.32,1.851,0.92,4.671-1.64,4.9c-3.471,0.33-5.141-5.64-4.9-8.71c-1.939,0.13-4.1,1.58-5.45,2.9
				c-2.319,0.649-4.29,1.64-5.989,2.909c-2.46,0.65-4.16,1.131-6.721,1.45c-3.199,2.32-5.92,3.49-10.54,4.36
				c-4.399,0.84-6.989-0.41-9.8-2.91c-2.14-1.9-3.88-4.22-4.54-7.62c-0.63,1.91-0.92,4.17-1.27,6.351
				c-2.431,5.93-6.101,10.619-11.08,13.989c-1.2,0.32-2.2,0.83-2.91,1.63c-2.06,0.48-3.771,1.32-5.26,2.36
				c-4.88,0.92-10.74,2.48-16.53,2.91c-1.88,0.14-4.03-0.3-6.17-0.37c-1.69-0.05-3.43,0.17-4.91,0c-4.479-0.49-8.96-2.18-13.07-2.9
				c-1.449-1.579-4.5-1.55-5.449-3.63c-0.4,0.42-0.71-0.06-1.271,0c-2.79-2.479-5.729-4.81-8.54-7.27
				c-0.12-1.72-1.84-2.34-2.72-3.811c-2.71-4.51-2.63-11.21-0.55-16.159c1.54-1.011,2.29-2.801,3.449-4.181
				c2.521-1.54,4.79-3.319,7.091-5.09c5.939-1.66,13.81-2.85,19.069-2.899c-5.91,1.96-11.479,4.27-15.439,8.17
				c-3.221,1.26-5.33,3.64-7.271,6.18c-2.649,5.14-1.56,12.85,2.55,15.61c3.19,1.649,5.631,4.25,9.08,5.81
				c5.65,2.57,15.42,2.74,21.79,2c6.94-0.81,13.21-3.81,18.341-6.35c2.729-2.48,5.289-5.131,7.63-7.99
				c1.47-4.021,2.899-8,2.899-12.351c0.01-6.97-5.229-12.829-9.08-17.26c-1.979-2.28-3.859-4.2-5.989-5.99
				c-6.29-5.3-15.341-8.93-22.881-13.069c-3.96-2.181-7.81-4.061-11.439-6.54c-2.72-1.86-4.49-3.09-7.271-5.271
				c-4.81-3.77-8.84-10.989-6.899-18.52c0.49-1.87,1.729-3.71,2.359-5.63c0.29-0.87,0.2-1.761,0.551-2.54
				c2.939-6.58,8.909-10.971,14.159-15.62c0.271-0.16,0.4-0.46,0.37-0.91c6-3.44,12.801-7.94,20.88-8.9
				c7.101-0.84,12.53,0.21,17.98,2.54c1.71,0.73,4.2,3.04,5.63,4.54c2.41,2.53,5.01,7.2,5.09,11.99c0.07,4.63-2.26,9.43-4.18,13.8
				c-3.36,7.641-7.35,15.44-13.08,20.34c-0.729,0.631-1.88,1.15-3.08,2c-0.91,0.631-2.02,2.16-2.91,2.181
				c-1.529,0.03-1.819-1.57-2.54-2.73c0.94-1.649,2.71-2.34,3.99-3.63c1.71-1.71,3.11-3.979,4.72-5.99
				c4.7-5.85,7.771-13.35,11.08-20.89c0.03-2.68,1.19-4.9,0.91-7.8c-0.31-3.2-2.43-5.34-3.99-7.45c-2.06-1.18-3.89-2.85-6.18-3.63
				c-0.979-0.34-2.36-0.74-3.45-0.91c-8.42-1.28-15.479,3.42-21.069,5.271c-0.28,0.619-0.841,0.97-1.631,1.09
				c-2.52,2.01-5.199,3.87-7.63,5.989c-1.71,2.471-3.5,4.421-5.26,6.54c-1.65,1.971-4.06,6.57-4.729,9.98
				c-0.19,1.03,0.109,2.09,0,2.729c-0.381,2.36-1.341,4.171-1.091,6.351c0.23,1.95,1.561,4.09,2.551,5.45
				c4.39,6.06,12.63,8.229,19.43,13.62c5.61,2.51,10.93,5.3,15.62,8.72c8.56,3.25,14.55,9.729,20.149,16.34
				c1.21,1.43,2.61,2.23,3.271,4.18c2.97,3.271,4.51,7.971,5.81,12.9c2.11-10.83,11.15-18.24,23.25-17.98
				c0.45-0.1,0.75-0.35,1.09-0.55c3.74,0.73,7.12,2.561,9.44,4.72c5.22,4.881,2.69,15.2-1.45,20.16c4.38-0.67,8.23-3.37,11.08-6.17
				c0.53-4.319,1.351-7.859,3.271-11.81C603.7,419.9,606.85,419.71,606.87,422.75z M582.54,435.82c3.8-2.62,5.89-9.09,3.63-14.71
				c-7.35-6.551-17.979,0.62-21.61,6.359c-1.55,2.45-3.319,6.391-1.27,8.9c2.52,1.96,5.479,3.47,9.81,3.63
				c2.37-0.38,4.351-2,6.53-3.09C580.58,436.44,581.67,436.42,582.54,435.82z M552.76,441.27c0.09-0.439,0.351-1.079,0-1.64
				C552.48,440.37,552.22,440.77,552.76,441.27z"/>
			<path fill="#FFFFFF" d="M586.17,421.11c2.26,5.62,0.17,12.09-3.63,14.71c-0.87,0.6-1.96,0.62-2.91,1.09
				c-2.18,1.09-4.16,2.71-6.53,3.09c-4.33-0.16-7.29-1.67-9.81-3.63c-2.05-2.51-0.28-6.45,1.27-8.9
				C568.19,421.73,578.82,414.56,586.17,421.11z"/>
			<path fill="#FFFFFF" d="M552.76,439.63c0.351,0.561,0.09,1.2,0,1.64C552.22,440.77,552.48,440.37,552.76,439.63z"/>
			<path fill="#FFFFFF" d="M542.95,241.87c0.399,1.34-1.53,1.67-1.271,3.45c-1.489,0.9-3.279,2.3-5.449,2.36
				c-2.131,0.05-3.24-1.28-4.9-2c-0.44-0.78-0.86-1.57-1.46-2.18c-1.59-5.14-0.73-9.95,2.18-13.62c0.38-2.81,2.72-5.16,1.46-7.99
				c-2.38-1.34-6.2,3.37-7.81,5.09c-2.99-4.9,1.3-8.41,5.99-9.81c0.079-0.02,2.619,0.33,2.72,0.36c1.68,0.6,2.37,1.97,3.45,3.27
				c-0.08,1.67,0.25,3.03,0,4.72c-0.891,6.05-6.2,11.9-3.08,17.98C538.19,244.32,540.2,242.3,542.95,241.87z"/>
			<path fill="#FFFFFF" d="M523.15,245.5c-0.21,0.69-0.94,0.87-0.721,2c-2.88,1.01-5.26,0.93-7.09-1.27
				c-1.28,0.65-2.35,1.52-3.08,2.72c-1.359-0.61-2.41,0.71-3.819,0.73c-3.011,0.03-4.95-2.31-6.351-4.36
				c-1.56,1.41-2.899,3.03-4.18,4.72c-0.76,0.2-0.76,0.12-1.45,0c-0.229,0.59,0.59,0.14,0.36,0.73c-2.67,1.13-4.71,2.16-7.63,3.26
				c-0.36,0.07-0.561-0.03-0.54-0.36c-0.341,0.15-0.73,0.24-0.91,0.55c-6.45-0.16-9.681-2.96-12.351-6.72
				c-0.43,1.71-2.64,2.23-2.359,3.63c-1.8,0.6-2.021,1.68-3.45,2.54c-0.021-0.49,0.3-0.36,0-0.73c-0.43,0.18-0.47,0.75-0.73,1.09
				c-0.56,0.14-0.22-0.62-0.899-0.36c-0.181,0.13,0.109,0.85-0.37,1.09c-2.09,0.49-3.771,0.69-5.08,1.64
				c-0.99-0.42-3.22-0.5-3.27,0.36c-0.351-0.08-0.78-0.07-0.73-0.55c-3.5,0.96-6.89-2.86-9.62-4.9c-1.11,0.26-1.53,2.06-2.54,1.82
				c-2.45,2.28-8.64,4.75-13.26,5.44c-2.4,0.37-5.561,0.2-7.811-0.18c-12.37-2.1-22.419-13.05-21.97-26.51
				c0.05-1.72,0.01-3.62,0.18-5.27c0.61-6.08,2.71-12,4.36-17.25c0.51-0.03,0.22-0.86,0.9-0.73c1.44-6.73,6.15-11.61,9.27-17.25
				c0.52-0.14,0.47-0.86,1.27-0.73c-0.14-0.16-0.2-0.41-0.19-0.72c5.13-5.81,10.95-11.34,18.891-15.8
				c3.619-2.04,7.119-4.18,10.899-5.63c3.351-1.29,8.21-2.63,11.08-2.73c0.83-0.02,1.66,0.45,2.36,0.55
				c3.319,0.49,6.33,0.14,8.35,2.18c0.45,0.23,0.88-0.41,0.91,0c1.17,0.93,2.81,1.63,3.09,3.27c1.62-0.62,2.78,3.34,3.99,5.26
				c0.09,0.87-0.23,0.21-0.54,0.55c0.21,0.93,1.34,0.96,1.81,1.63c0.09,0.58-0.319,0.64-0.18,1.27c0.18,0.25,0.61,0.24,0.73,0.55
				c-0.11,0.43,0.229,1.32-0.181,1.45c0.92,3.33,1.29,8.23,0.181,11.44c-0.301,0.87-1.25,2.08-1.82,3.27
				c-1.62,3.39-4.41,7.58-6.9,9.63c3.61-6.32,9.07-13.85,6.17-24.7c-1.38-5.19-6.91-10.76-11.439-12.35
				c-3.54-1.25-8.021-0.63-11.26,0.91c-0.36,0-0.721,0-1.091,0c-6.399,2.44-12.25,5.42-17.79,8.72c-2.949,2.68-5.81,5.45-8.899,7.99
				c-2.641,3.96-5.13,8.06-7.81,11.98c-0.38,1.26-0.98,2.29-1.82,3.09c-2.11,7.5-6.47,14.22-6.9,22.7c-0.08,1.63-0.23,4.13,0,6.17
				c1.63,14.51,10.69,21.73,26.88,19.25c1.48-0.22,2.7-0.54,3.811-1.81c2.71-0.68,4.85-1.94,7.09-3.09
				c0.92-6.02,3.41-10.89,6.899-14.71c0.551-0.01,0.431,0.65,1.091,0.55c0.68-0.46-0.54-0.85,0-1.09c0.56-0.51,0.84-0.54,1.63-0.73
				c0.949-1.51,3.51-2.62,5.449-2.91c1.9-0.28,3.32-1.94,5.08-0.36c0.271-0.04,0.07-0.54,0.37-0.54c2.28,0.17,4.4,0.04,5.811,1.27
				c0.279,0.24,0.14,0.81,0.359,1.09c0.71,0.85,2.82,1.55,3.271,2.9c1.32-0.16,1.34-2.5,2.72-2c0.3-2.09,2.17-3.5,4.54-4.35
				c4.74-3.16,10.46,1.08,10.54,7.26c-2.12,7.77-8.99,11.68-16.89,13.08c0.529,3.42,2.939,4.9,6.35,4.35
				c5.94-0.95,11.54-5.89,15.26-8.71c0.34-2.16,0.38-5.63,1.63-8.72c0.69-1.69,2.15-4.46,3.271-4.54c1.05-0.07,1.32,1.1,2.36,1.27
				c-1.681,4.37-5.421,11.73-1.811,16.89c4.771,0.47,6.25-2.34,8.71-4.18c0.49-3.03,1.58-5.45,2-8.53c0.71-0.93,2.15-1.22,2.73,0
				C519.67,236.8,516.7,245.34,523.15,245.5z M480.3,240.78c5.29-1.02,13.21-4.42,12.71-10.9c-0.29-3.75-5.13-1.31-6.359,0
				c-1.25,1.34-2.66,2.81-3.811,3.81C482.49,235.76,479.94,238.2,480.3,240.78z M471.03,245.5c3.33-4.95,6.59-12.13,1.09-16.53
				c-2.811-0.43-4.95,1.27-6.351,1.09c-0.56,0.23-0.68,0.9-1.27,1.09c-4.29,1.35-7.58,5.26-10.17,8.9
				c-0.42,2.49-1.96,4.96-1.64,7.27c0.25,1.8,1.819,2.57,2.18,4.35c5.38,0.98,9.17-1.42,12.89-3.27
				C468.73,247.31,469.48,246,471.03,245.5z"/>
			<path fill="#FFFFFF" d="M493.01,229.88c0.5,6.48-7.42,9.88-12.71,10.9c-0.359-2.58,2.19-5.02,2.54-7.09
				c1.15-1,2.561-2.47,3.811-3.81C487.88,228.57,492.72,226.13,493.01,229.88z"/>
			<path fill="#FFFFFF" d="M472.12,228.97c5.5,4.4,2.24,11.58-1.09,16.53c-1.55,0.5-2.3,1.81-3.271,2.9
				c-3.72,1.85-7.51,4.25-12.89,3.27c-0.36-1.78-1.93-2.55-2.18-4.35c-0.32-2.31,1.22-4.78,1.64-7.27c2.59-3.64,5.88-7.55,10.17-8.9
				c0.59-0.19,0.71-0.86,1.27-1.09C467.17,230.24,469.31,228.54,472.12,228.97z"/>
			<path fill="#FFFFFF" d="M404.2,445.99c0.24,1,2.03,1.99,2,2.72c-0.03,1.01-1.01,1.49-2.54,1.28c-2.92-0.41-4.55-4.311-4.91-7.811
				c-1.98,2.101-4.1,4.771-6.53,7.08c-3.28,3.11-9.38,8.15-14.89,4.181c-3.65-2.641-5-8.681-3.82-13.44
				c0.78-3.13,2.08-5.34,2.91-8.54c2.13-2.41,4.15-4.93,6.54-7.08c2.76-0.29,5.64-2.28,8.71-2.18c0.74,0.02,1.27,0.63,2,0.729
				c0.52,0.07,1.38-0.25,2-0.18c3.38,0.37,5.45,3.09,6.17,6.53c0.83-0.2,1.58-1.46,2.91-1.09c3.46,0.979,1.15,5.6,0.54,8.72
				C404.72,439.89,403.75,444.07,404.2,445.99z M391.85,445.63c2.46-3.57,8.06-6.97,7.45-13.439c-0.09-0.94-0.55-3.551-1.45-4.54
				c-1.25-1.37-5.21-1.67-7.63-0.73c-1.38,0.54-2.69,1.96-4.18,3.45c-2.32,2.34-4.89,6.13-5.99,9.26
				c-1.17,3.351-2.36,9.11,0.54,10.36C385.08,449.26,388.02,447,391.85,445.63z"/>
			<path fill="#FFFFFF" d="M399.3,432.19c0.61,6.47-4.99,9.869-7.45,13.439c-3.83,1.37-6.77,3.63-11.26,4.36
				c-2.9-1.25-1.71-7.01-0.54-10.36c1.1-3.13,3.67-6.92,5.99-9.26c1.49-1.49,2.8-2.91,4.18-3.45c2.42-0.939,6.38-0.64,7.63,0.73
				C398.75,428.64,399.21,431.25,399.3,432.19z"/>
			<path fill="#FFFFFF" d="M380.23,253.49c0.14,0.62-0.74,0.23-0.54,0.91c-2.92,0.07-3.57-2.13-6.18-2.36
				c-0.25,0.53-0.7,1.97-2.18,1.45c-0.47,0.04,0.25,0.31,0,0.73c-2.21,0.64-3.01,0.49-5.08,0.9c-1.45-0.86-2.57-1.14-4-1.63
				c-0.34,0.52-0.6,0.26-0.36,1.09c-1.06-0.11-0.79,0.06-0.73,0.91c-1.47,0.61-1.94,1.17-3.08,2.18c-6.19,0.22-8.16-5.47-9.63-9.99
				c-6.43,4.91-14.36,12.27-24.88,13.07c-9.46,0.73-17.95-6.16-18.52-17.07c7.43-2.06,5.74,6.88,8.71,10.35
				c2.91,2.54,9.39,1.85,12.72,0.91c0.66-0.18,0.86-0.53,1.99-0.72c2.28-0.4,3.86-1.59,5.82-2.55c1.35-0.66,2.97-0.99,4.17-1.99
				c0.83-0.7,2.48-1.65,3.45-2.55c0.27-0.21,0.46-0.21,0.73,0c0.21-0.75,0.96-0.97,1.27-1.63c0.7,0.17,0.75-0.71,1.27-0.18
				c0.58-1.64,1.77-1.64,2-4c0.38-0.07,0.48,0.13,0.73,0.18c-0.09-0.87,0.32-1.25,0.9-1.45c0-0.36-0.49-0.23-0.36-0.73
				c1.4-2.14,1.28-4.79,2.36-7.08c-0.66-1.04,0.02-1.84-0.18-2.72c-0.78-3.42-6.63-3.11-9.08-2c-1.87-0.62-2.7,1.24-5.09,1.09
				c-1.2,1.21-3.84,0.99-4.35,2.91c-0.73-0.43-0.72,0.48-1.64,0.36c0.28,1.99-2.4,1.09-2,2.72c-0.51,0.15-0.47-0.25-0.9-0.18
				c-0.56,0.45-0.15,0.74-0.37,1.45c-2.91,0.54-1.92,4.47-5.45,4.91c-0.2,0.21-0.2,0.64-0.18,1.09c-0.59,0.1-0.84-0.13-1.27-0.18
				c-0.55,0.29,0.61,0.87,0,1.27c-3.41-0.23-2.9,6.37-1.27,8.35c-3.02-1.58-3.36-5.74-2.36-8.72c0.62-1.84,2.41-4.92,3.63-6.72
				c1.53-2.24,3.51-4.16,5.09-5.26c0.14-0.16,0.19-0.41,0.18-0.73c2.75-1.93,6.22-4.48,9.99-6.17c0.7-0.32,1.18-0.17,1.99-0.19
				c1-0.01,2.03-0.76,2.91-0.9c6.09-0.97,12.05,2.49,13.62,7.08c0.52,0.93,1.94,0.97,2.54,1.82c0.28,3.59-1.59,6.83-2.18,9.62
				c-0.17,3.9-2.26,10.79,1.46,13.08c1.84-1.06,3.77-2.04,4.9-3.82c-0.22-2.13-0.07-3.8-0.36-5.99c1.32-2.55,2.07-5.68,3.45-8.17
				c1.33,0.09,2.25-0.16,3.45,0.18c1.24,3.38-1.87,6.77-2.18,11.08c-0.18,2.44,0.28,5.02,3.09,3.08c2.16-1.49,3.51-5.98,4.35-8.89
				c0.13-0.44-0.23-0.83-0.18-1.09c0.15-0.75,1.13-0.93,1.09-2c0.46,0.46,0.72-0.21,1.27-0.18c0.61,0.48,1.11,1.07,1.82,1.45
				c0.67,3.52-0.91,7.67,0.54,10.9C378.01,251.84,379.11,252.67,380.23,253.49z"/>
			<path fill="#FFFFFF" d="M373.51,404.22c2.11-0.63,5.65,0.23,4.72,2.73c-0.34,0.93-2.85,2.3-3.81,3.26
				c-1.59,1.61-2.58,3.21-4,4.54c-0.73,0.7-1.2,1.67-2.36,2.18c-0.19,1.38-0.65,2.5-0.72,4c-0.63-0.16-0.74-0.83-1.46-0.91
				c-0.57-2.47-0.42-5.01,0.37-7.26C367.5,409.14,371.47,404.83,373.51,404.22z"/>
			<path fill="#FFFFFF" d="M365.34,450.89c1.64,2.62,7.74-1.979,7.63,2.73c-0.04,1.649-3.76,3.95-5.63,4.17
				c-2.6,0.31-4.48-1.021-6.36-1.63c-2.18,1.96-4.13,3.37-6.54,4.899c-3.66,2.33-9.59,3.86-14.16,1.271
				c-2.8-1.58-5.14-4.88-5.63-8.17c-0.76-5.07,1.18-9.57,2.54-14.34c0.57-2.011,0.87-4.101,1.45-6c1.72-5.57,4.03-9.34,4-15.801
				c-2.04-3.42-8.09,0.591-10.53,0.551c-2.61-0.051-4.43-2.42-2.18-4.36c10.56-5.06,20.43,0.72,18.34,11.62
				c-0.73,3.8-2.85,7.939-4.18,12.17c-1.69,5.38-3.37,11.23-3.27,16.34c0.07,3.141,1.3,5.54,5.27,5.45
				c4.58-0.09,9.17-4.18,11.99-6.72c-3.15-5-3.74-16.07,0.36-20.7c2.35-1.47,4.97-2.94,7.44-1.271c1.15,0.771,2.77,3.891,3.09,5.631
				c0.21,1.119,0.56,2.89,0.55,3.449c-0.01,0.37-0.46,0.78-0.55,1.271c-0.11,0.6,0.26,1.189,0.18,1.63
				C368.63,446.27,366.65,449.2,365.34,450.89z M362.43,447.08c2.31-2.32,3.33-8,1.09-11.08C362,439.38,361.18,443.53,362.43,447.08
				z"/>
			<path fill="#FFFFFF" d="M363.52,436c2.24,3.08,1.22,8.76-1.09,11.08C361.18,443.53,362,439.38,363.52,436z"/>
			<path fill="#FFFFFF" d="M335.56,359c0.15,1.7-0.1,3.99-1.09,5.63c-0.87-4.09-0.41-7.89-2-10.71c-0.9-1.6-2.78-2.7-4.36-3.82
				c-2.44-1.72-4.54-2.109-7.81-2.54c-0.81-0.109-1.76-0.609-2.72-0.729c-3.17-0.37-7.18,0.36-9.63,1.09
				c-11.33,3.38-21.25,9.53-29.24,15.99c-0.9,0.729-2,1.71-2.9,2.54c-2.86,2.64-5.41,5.569-7.99,8.72
				c-3.37,4.09-6.21,8.57-9.44,13.07c-1.55,2.16-3.37,4.49-4.55,6.72c-0.89,1.69-1.33,3.76-2.17,5.63
				c-0.79,1.74-1.96,3.84-2.91,5.99c-1.39,3.15-2.5,6.27-3.09,9.08c-1.8,8.609-3.22,15.8-2.9,23.43c0.13,3.12,1.38,4.62,2.36,6.9
				c0.97,2.27,1.67,4.56,2.72,6.54c2.08,3.91,5.32,7.359,8.72,9.62c1.99,1.33,4.4,1.79,6.17,3.64c5.6,1.59,11.89,4.53,19.07,3.08
				c1.15-0.23,2.19-0.98,3.27-1.09c1.22-0.12,1.5,0.12,2.91-0.36c0.98-0.34,1.92-1.1,2.9-1.27c0.77-0.141,1.57,0.14,2.36,0
				c1.55-0.28,3.6-1.301,5.27-2c4.82-2.03,8.97-5.45,12.53-8.721c5.2-4.779,10.12-9.729,13.62-14.89c1.32,0.51,1.12-1.73,2-0.54
				c1.05-1.01,1.68-2.44,2.54-3.63c1.65,1.25-0.89,3.71-0.91,5.63c-2.41,2.77-4.02,6.12-6.35,8.89
				c-1.48,1.761-3.52,2.971-4.54,5.091c-7.25,7.069-17.03,13.279-27.24,17.979c-1.6,0.73-3.59,1.44-5.45,2
				c-4,1.19-8.11,2.48-13.26,1.271c-10.6,0.539-17.71-5.53-24.33-10.171c-3.56-3.949-6.92-8.1-8.9-13.619
				c-0.36-0.37-0.61-0.851-1.09-1.091c-1-4.1-2.08-7.54-2.36-13.08c-0.59-11.409,2.27-20.47,4.35-30.149
				c1.75-2.49,2.22-6.26,4.18-8.53c-0.11-0.84,0.41-1.05,0.37-1.82c2.69-3.85,4.08-8.27,6.53-12.159c2.4-3.82,5.42-7.36,8.18-10.9
				c4.14-5.33,8.67-10.49,14.16-14.53c1.78-1.31,3.74-2.51,5.08-4.359c3.58-1.4,6.37-3.98,9.63-5.811c3.3-1.85,6.6-3.54,10.17-5.26
				c4.93-1.04,10.67-2.68,17.8-2.37c6.57,0.29,11.28,1.46,15.07,5.09c0.91,0.87,2.09,2.23,2.54,2.91
				C334.05,353.19,335.34,356.62,335.56,359z"/>
			<path fill="#FFFFFF" d="M271.63,255.31c2.66,1.14-1.15,3.88-1.63,4.54c-9.39,1.37-13.23-7.44-12.71-15.99
				c-3.16,4.05-3.75,10.66-7.27,14.35c0.13,0.79-0.31,1.02-0.18,1.82c-0.53,0.2-0.93,0.52-1.45,0.72c-0.91,0.06-0.98-0.72-1.82-0.72
				c-0.33-0.7-0.46-1.6-1.09-2c-0.32-3.2,0.21-6.02,1.27-9.08c-0.05-1.74,0.04-3.86,0.91-5.09c-0.4-0.94,0.02-2.15,0.55-2.72
				c0.07-4.19,2.35-8.23,4.17-11.44c2.8-0.6,4.58,1.13,3.82,3.63c2.45-0.05,6.48-1.47,7.44,1.45c0.42,5.2-1.88,10.49-0.36,16.35
				c0.46,1.76,1.98,4.73,3.45,5.08C268.43,256.62,270.34,254.75,271.63,255.31z"/>
			<path fill="#FFFFFF" d="M236.58,225.52c2.62,0.84,5.34,1.56,5.45,4.91c-1.09,1.38-2.73,1.43-4.18,2.18
				C236.07,231.36,235.1,227.46,236.58,225.52z"/>
			<path fill="#FFFFFF" d="M238.58,262.03c-0.74-0.2-0.46,0.62-0.91,0.72c-1.39-0.06-2.23-0.68-3.09-1.27
				c0.05-0.26,0.55-0.06,0.55-0.36c-0.05-0.38-0.8-0.05-0.91-0.37c-2.43-6.22-2.38-14.98,0.18-22.15c1.76-0.35,2.91,0.15,4.18,1.27
				c-0.07,3.78-0.79,6.31-1.63,10.53c0.35,3.46,0.63,8.04,0.72,10.72C237.92,261.64,238.5,261.11,238.58,262.03z"/>
			<path fill="#FFFFFF" d="M224.96,236.06c2.05,2.55,3.35,5.28,3.27,9.08c-0.08,3.95-2.9,7.02-3.81,9.98c-0.92,0.24-0.9,1.41-2,1.46
				c0.37,0.67-0.32,0.89-0.37,1.63c-1.49,0.73-2.48,1.72-3.08,2.91c-4.16,1.43-9.27,4.93-14.89,3.99
				c-5.23-0.87-8.68-4.16-11.26-8.35c-1.09-2.62-1.32-5.21-2.55-7.45c-0.65,0.38-0.47,1.59-1.63,1.46
				c-0.17,2.12-2.81,1.79-2.91,3.99c-0.44,0.03-0.87,0.03-1.09-0.18c-0.28,1.18-0.39,1.51-0.9,2.54c-2.26,0.72-3.82,3.53-6.36,4.54
				c-0.23,0.43,0.02,0.34-0.18,0.91c-0.5-0.02-0.37,0.3-0.73,0c-2.81,3.06-6.52,4.75-9.99,7.45c-0.98-0.21-0.76,0.06-1.63,0.18
				c-2.63,1.97-5.86,3.34-9.44,4.36c-0.37,0.24-0.79,0.42-0.91,0.9c-0.56,0.14-0.54-0.31-1.09-0.18c-0.79,1.01-2.53,0.61-4,1.09
				c-2.05,0.68-5.28,1.66-8.17,2.18c-2.18,0.4-4.53,0.37-6.72,0.73c-1.5,0.24-3.13,0.81-5.45,0.91c-4.82,0.19-9.52,0.69-13.98-0.73
				c-0.21,0.03-0.15,0.33-0.18,0.54c-17.29-1.3-38.45-5.35-44.5-21.97c-0.23-0.31-0.37-0.71-0.9-0.73
				c-1.37-3.82-2.63-8.28-1.46-11.8c-0.13-0.17-0.33-0.28-0.54-0.36c3.31-11.77,10.83-19.31,19.43-25.79
				c4.21-0.95,8.49-4.29,12.89-5.81c1.36-0.47,3.12-0.75,4.91-1.27c7.71-2.26,17.85-3.74,26.15-1.64c-2.8,1.51-5.72,0.84-8.36,1.09
				c-2.96,0.28-5.83,1.34-8.89,1.09c-0.61,0.76-1.49,0.11-2,0.91c-0.45,0.02-0.88,0.03-1.09-0.18c-0.63,0.43-0.92,1.21-2,0.72
				c-0.21,0.03-0.15,0.33-0.18,0.55c-2.33,0.35-5.15,1.73-7.26,2.9c-2.27,0.22-3.27,1.7-5.27,2.18
				c-11.02,6.45-23.09,14.45-20.16,33.05c4.42,9.07,10.11,15.95,20.16,18.35c1.51,0.36,3.35,0.89,5.08,1.09
				c0.97,0.11,2.08-0.19,3.09,0c5.88,1.11,14.12,1.28,19.98,1.45c6.36,0.19,11.64-0.6,17.8-1.82c0.29-0.06,0.65,0.21,0.9,0.18
				c1.79-0.19,3.31-1.49,5.63-1.81c4.68-0.64,7.92-2.87,11.81-4.72c1.24-1.33,3.47-3.17,5.45-4.36c1.48-1.95,3.93-3.77,5.44-5.99
				c0.27-0.4,0.91-0.48,1.09-0.73c0.95-1.27,1.35-2.94,2.36-4c0.31,0,0.61,0,0.91,0c-0.4-2.18,1.08-3.82,2.54-4.72
				c0.88-1.97,1.52-4.18,2.91-5.63c0.19-0.68-0.45-0.52-0.36-1.09c1.52-0.85,1.38-4.29,2.9-4.54c-0.39-2.43,0.93-5.6,1.82-8.9
				c-0.26-0.28-0.24-0.84-0.55-1.09c0.82-1.21-0.23-2.57,0.19-4.54c-0.09-0.38,0.25-0.34,0.54-0.36c-0.3-0.77-0.05-2.39-0.91-2.54
				c0.16-2.29-0.66-4.01-0.18-5.45c-0.06-0.25-0.45-0.15-0.73-0.18c-0.2-3.57-1.76-5.26-2.72-8.72c-0.26-0.95-1.31-1.09-1.82-2
				c0.97-1.16-1.83-1.56-1.09-3.08c-0.37-0.67-0.76,0.55-1.09,0c0.04-2.16-2.18-2.05-2.54-3.82c-0.28,0.08-0.15,0.57-0.72,0.37
				c0.02-0.8-0.2-0.63-0.91-0.91c-0.07-0.5-0.21-1.31-1.27-1.27c-0.13-1.03-0.38-1.92-1.64-1.82c-0.13-1.56-2.2-1.19-2-3.09
				c-0.76-0.17-1.07-0.38-1.81-0.18c-0.2-0.53-0.77-0.68-0.73-1.45c-1.54-0.12-3.21-1-3.09-2.18c-0.57,0.25-0.6,0.04-1.27,0
				c-2.38-1.91-5.78-2.81-8.17-4.72c-0.4-0.1-0.26,0.35-0.54,0.36c-7.71-2.67-16.9-3.9-26.34-5.81
				c-8.09-1.64-16.39-4.97-19.97-11.44c-0.63-1.13-0.78-2.68-1.64-4.18c0.1-0.32,0.1-0.75,0.37-0.91c-1.39-0.24,0.74-2.53-0.73-3.08
				c0.73-2.6-0.04-4.78,1.82-6.18c-0.3-1.69,0.88-3.31,1.99-4.17c0-0.31,0-0.61,0-0.91c2.82-4.15,6.72-7.21,10.72-10.17
				c5.57-4.62,13.8-10.04,23.43-10.9c4.11-0.37,6.72,0.9,9.98,1.82c1.35,1.49,3.11,2.58,4.54,3.99c0.22,2.06,1.49,4.34,0.37,5.45
				c0.91,3.6-0.36,6.11-1.82,8.54c-1.73,0.21-2.35-0.68-2.91-1.64c0.64-1.42,0.82-3.3,1.46-4.72c-0.22-1.15-0.56-2.22-0.18-3.09
				c-0.58-1.43-0.7-2.54-1.46-3.99c-0.79-0.78-2.39-0.75-2.72-2c-0.8,0.21-1.19-0.22-2-0.54c-0.2,0.04-0.12,0.36-0.36,0.36
				c-1.26-0.98-3.14-0.83-4.9-1.09c-0.41,0.08-0.58,0.39-0.91,0.54c-2.8-0.2-6.18,0.88-8.36,2.73c-0.25,0.01-0.51,0.03-0.54-0.18
				c-4.25,2.53-8.03,5.53-11.62,8.71c-0.15,1.19-1.41,1.26-1.46,2.55c-2.43,1.86-3.71,4.88-5.45,7.44c0.35,1.24-0.99,2.05-1.27,3.09
				c-0.33,1.24,0.51,2.88-0.9,3.45c1.13,1.06-0.28,3.31,1.09,3.81c-0.4,0.16,0.06,1.16-0.37,1.27c1.14,1.01,1.41,2.59,2.91,3.09
				c-0.04,0.32,0.18,0.91-0.37,0.73c2.62,1.35,4.48,4.13,8.54,4.54c-0.23,1.02,3.64,0.26,4,1.81c1.1-0.44,2.67-0.02,3.45,0.73
				c0.87-0.54,4.49,0.02,4.35,1.09c0.42-0.83,2.63-0.23,2.91,0.73c0.21-0.03,0.15-0.33,0.18-0.55c0.67,1.01,2.23,0.05,2.73,1.27
				c0.58,0.23,0.13-0.58,0.72-0.36c1.8,0.98,4.44,1.13,6.18,2.18c5.61,1.18,9.85,3.23,14.89,5.27
				c10.12,6.28,19.69,13.11,26.33,22.88c0.21,0.27,0.21,0.46,0,0.72c0.85,0.31,1.45,1.52,1.82,2.55c0.43,1.22,2.14,3.13,2.54,4.35
				c0.24,0.72,0.51,1.95,0.18,2c1.37,0.18,0.07,3.22,1.27,4c0.19,2.85,0.53,5.1,1.27,7.44c0.02,0.87-0.6,1.09-0.72,1.82
				c1.24,0.33,0,2.23,0.9,2.18c-0.22,0.41-0.65,0.97,0,1.27c-0.82,0.43-0.55,0.9-1.27,1.27c1.72,1.46-0.63,4.07,0.37,5.81
				c-0.11,0.81-0.26,1.56-0.91,1.82c1.1,2-1.43,4.32-0.73,6.54c1.12-0.15,0.98-1.57,1.64-2.18c0.42-0.27,0.33-0.39,0.9-0.18
				c2.83-4.83,8.6-7.39,15.44-7.63c0.39-0.09,0.35,0.26,0.36,0.54c0.22-0.03,0.16-0.33,0.19-0.54
				C217.33,233.03,221.38,234.31,224.96,236.06z M224.42,245.5c0.24-1.97-0.16-4.8-1.09-6.18c-0.97-1.41-2.79-1.38-4.36-1.63
				c-2.1-0.33-4.34-0.5-6.72,0.18c-2.45,0.7-4.45,2.14-5.63,3.63c-3.87,1.85-9.16,7-8.36,12.53c0.49,3.36,3.48,4.54,6.36,6
				c4.42,0.86,8.29-1.65,12.17-2.91c1.7-1.75,3.38-3.52,4.72-5.63c0.24,0.24,0.67,0.24,0.91,0
				C222.91,249.45,224.14,247.7,224.42,245.5z"/>
			<path fill="#FFFFFF" d="M223.33,239.32c0.93,1.38,1.33,4.21,1.09,6.18c-0.28,2.2-1.51,3.95-2,5.99c-0.24,0.24-0.67,0.24-0.91,0
				c-1.34,2.11-3.02,3.88-4.72,5.63c-3.88,1.26-7.75,3.77-12.17,2.91c-2.88-1.46-5.87-2.64-6.36-6c-0.8-5.53,4.49-10.68,8.36-12.53
				c1.18-1.49,3.18-2.93,5.63-3.63c2.38-0.68,4.62-0.51,6.72-0.18C220.54,237.94,222.36,237.91,223.33,239.32z"/>
		</g>
		<g>
			<path fill="none" stroke="#000000" d="M552.76,439.63c0.351,0.561,0.09,1.2,0,1.64C552.22,440.77,552.48,440.37,552.76,439.63z"
				/>
			<path fill="none" stroke="#000000" d="M586.17,421.11c2.26,5.62,0.17,12.09-3.63,14.71c-0.87,0.6-1.96,0.62-2.91,1.09
				c-2.18,1.09-4.16,2.71-6.53,3.09c-4.33-0.16-7.29-1.67-9.81-3.63c-2.05-2.51-0.28-6.45,1.27-8.9
				C568.19,421.73,578.82,414.56,586.17,421.11z"/>
			<path fill="none" stroke="#000000" d="M630.48,212.63c-0.44,0.75-0.04,1.97-0.181,3.09c-0.2,1.58-1.06,3.2-0.729,4.54
				c-0.75,0.6-0.96,2.43-0.721,3.45c-0.43,1.08-1.08,1.9-0.55,2.72c-0.3,0.49-0.729,0.96-0.359,1.63c-0.94,1.3-1.07,3.54-2.181,5.45
				c-5.92,4.8-14.1,9.51-23.79,10.54c-5.42,0.57-10.97-0.37-14.35-4.54c-0.18-1.87-2.04-4.05-2.36-5.82
				c-0.229-1.26-0.189-3.07,1.271-3.45c0.02-0.49-0.3-0.36,0-0.72c0.899-0.07,1.27-0.68,2-0.91c0-0.42,0-0.85,0-1.27
				c1.02-0.02,1.22-0.84,1.45-1.64c0.939-0.51,1.699-1.2,1.819-2.54c1.88-0.54,2.32-2.52,4-3.27c0.061-0.31-0.149-0.34-0.37-0.36
				c1.41-0.65,2.641-1.48,3.45-2.72c2.29-0.82,4.25-2.89,6.36-3.27c0.31-0.41,0.92-0.53,1.09-1.09c0.55-0.13,0.53,0.31,1.09,0.18
				c4.58-1.67,7.41-3.07,12.53-3.09c0.16-0.08,0.319-0.16,0.359-0.36c1.73,0.7,3.45-0.03,5.271,0.36
				C627.79,210.02,628.85,212.36,630.48,212.63z"/>
			<path fill="none" stroke="#000000" d="M472.12,228.97c5.5,4.4,2.24,11.58-1.09,16.53c-1.55,0.5-2.3,1.81-3.271,2.9
				c-3.72,1.85-7.51,4.25-12.89,3.27c-0.36-1.78-1.93-2.55-2.18-4.35c-0.32-2.31,1.22-4.78,1.64-7.27c2.59-3.64,5.88-7.55,10.17-8.9
				c0.59-0.19,0.71-0.86,1.27-1.09C467.17,230.24,469.31,228.54,472.12,228.97z"/>
			<path fill="none" stroke="#000000" d="M480.3,240.78c-0.359-2.58,2.19-5.02,2.54-7.09c1.15-1,2.561-2.47,3.811-3.81
				c1.229-1.31,6.069-3.75,6.359,0C493.51,236.36,485.59,239.76,480.3,240.78z"/>
			<path fill="none" stroke="#000000" d="M222.42,251.49c-0.24,0.24-0.67,0.24-0.91,0c-1.34,2.11-3.02,3.88-4.72,5.63
				c-3.88,1.26-7.75,3.77-12.17,2.91c-2.88-1.46-5.87-2.64-6.36-6c-0.8-5.53,4.49-10.68,8.36-12.53c1.18-1.49,3.18-2.93,5.63-3.63
				c2.38-0.68,4.62-0.51,6.72-0.18c1.57,0.25,3.39,0.22,4.36,1.63c0.93,1.38,1.33,4.21,1.09,6.18
				C224.14,247.7,222.91,249.45,222.42,251.49z"/>
			<path fill="none" stroke="#000000" d="M401.84,429.28c0.83-0.2,1.58-1.46,2.91-1.09c3.46,0.979,1.15,5.6,0.54,8.72
				c-0.57,2.979-1.54,7.16-1.09,9.08c0.24,1,2.03,1.99,2,2.72c-0.03,1.01-1.01,1.49-2.54,1.28c-2.92-0.41-4.55-4.311-4.91-7.811
				c-1.98,2.101-4.1,4.771-6.53,7.08c-3.28,3.11-9.38,8.15-14.89,4.181c-3.65-2.641-5-8.681-3.82-13.44
				c0.78-3.13,2.08-5.34,2.91-8.54c2.13-2.41,4.15-4.93,6.54-7.08c2.76-0.29,5.64-2.28,8.71-2.18c0.74,0.02,1.27,0.63,2,0.729
				c0.52,0.07,1.38-0.25,2-0.18C399.05,423.12,401.12,425.84,401.84,429.28z"/>
			<path fill="none" stroke="#000000" d="M358.08,453.07c-3.15-5-3.74-16.07,0.36-20.7c2.35-1.47,4.97-2.94,7.44-1.271
				c1.15,0.771,2.77,3.891,3.09,5.631c0.21,1.119,0.56,2.89,0.55,3.449c-0.01,0.37-0.46,0.78-0.55,1.271
				c-0.11,0.6,0.26,1.189,0.18,1.63c-0.52,3.189-2.5,6.12-3.81,7.81c1.64,2.62,7.74-1.979,7.63,2.73
				c-0.04,1.649-3.76,3.95-5.63,4.17c-2.6,0.31-4.48-1.021-6.36-1.63c-2.18,1.96-4.13,3.37-6.54,4.899
				c-3.66,2.33-9.59,3.86-14.16,1.271c-2.8-1.58-5.14-4.88-5.63-8.17c-0.76-5.07,1.18-9.57,2.54-14.34c0.57-2.011,0.87-4.101,1.45-6
				c1.72-5.57,4.03-9.34,4-15.801c-2.04-3.42-8.09,0.591-10.53,0.551c-2.61-0.051-4.43-2.42-2.18-4.36
				c10.56-5.06,20.43,0.72,18.34,11.62c-0.73,3.8-2.85,7.939-4.18,12.17c-1.69,5.38-3.37,11.23-3.27,16.34
				c0.07,3.141,1.3,5.54,5.27,5.45C350.67,459.7,355.26,455.61,358.08,453.07z"/>
			<path fill="none" stroke="#000000" d="M606.15,410.94c-2.17-0.591-1.591-2.79-2.181-4.9c0.94-2.72,4.33-1.22,4.54,0.91
				C608.69,408.83,606.78,409.51,606.15,410.94z"/>
			<path fill="none" stroke="#000000" d="M367.34,420.93c-0.63-0.16-0.74-0.83-1.46-0.91c-0.57-2.47-0.42-5.01,0.37-7.26
				c1.25-3.62,5.22-7.93,7.26-8.54c2.11-0.63,5.65,0.23,4.72,2.73c-0.34,0.93-2.85,2.3-3.81,3.26c-1.59,1.61-2.58,3.21-4,4.54
				c-0.73,0.7-1.2,1.67-2.36,2.18C367.87,418.31,367.41,419.43,367.34,420.93z"/>
			<path fill="none" stroke="#000000" d="M334.47,364.63c-0.87-4.09-0.41-7.89-2-10.71c-0.9-1.6-2.78-2.7-4.36-3.82
				c-2.44-1.72-4.54-2.109-7.81-2.54c-0.81-0.109-1.76-0.609-2.72-0.729c-3.17-0.37-7.18,0.36-9.63,1.09
				c-11.33,3.38-21.25,9.53-29.24,15.99c-0.9,0.729-2,1.71-2.9,2.54c-2.86,2.64-5.41,5.569-7.99,8.72
				c-3.37,4.09-6.21,8.57-9.44,13.07c-1.55,2.16-3.37,4.49-4.55,6.72c-0.89,1.69-1.33,3.76-2.17,5.63
				c-0.79,1.74-1.96,3.84-2.91,5.99c-1.39,3.15-2.5,6.27-3.09,9.08c-1.8,8.609-3.22,15.8-2.9,23.43c0.13,3.12,1.38,4.62,2.36,6.9
				c0.97,2.27,1.67,4.56,2.72,6.54c2.08,3.91,5.32,7.359,8.72,9.62c1.99,1.33,4.4,1.79,6.17,3.64c5.6,1.59,11.89,4.53,19.07,3.08
				c1.15-0.23,2.19-0.98,3.27-1.09c1.22-0.12,1.5,0.12,2.91-0.36c0.98-0.34,1.92-1.1,2.9-1.27c0.77-0.141,1.57,0.14,2.36,0
				c1.55-0.28,3.6-1.301,5.27-2c4.82-2.03,8.97-5.45,12.53-8.721c5.2-4.779,10.12-9.729,13.62-14.89c1.32,0.51,1.12-1.73,2-0.54
				c1.05-1.01,1.68-2.44,2.54-3.63c1.65,1.25-0.89,3.71-0.91,5.63c-2.41,2.77-4.02,6.12-6.35,8.89
				c-1.48,1.761-3.52,2.971-4.54,5.091c-7.25,7.069-17.03,13.279-27.24,17.979c-1.6,0.73-3.59,1.44-5.45,2
				c-4,1.19-8.11,2.48-13.26,1.271c-10.6,0.539-17.71-5.53-24.33-10.171c-3.56-3.949-6.92-8.1-8.9-13.619
				c-0.36-0.37-0.61-0.851-1.09-1.091c-1-4.1-2.08-7.54-2.36-13.08c-0.59-11.409,2.27-20.47,4.35-30.149
				c1.75-2.49,2.22-6.26,4.18-8.53c-0.11-0.84,0.41-1.05,0.37-1.82c2.69-3.85,4.08-8.27,6.53-12.159c2.4-3.82,5.42-7.36,8.18-10.9
				c4.14-5.33,8.67-10.49,14.16-14.53c1.78-1.31,3.74-2.51,5.08-4.359c3.58-1.4,6.37-3.98,9.63-5.811c3.3-1.85,6.6-3.54,10.17-5.26
				c4.93-1.04,10.67-2.68,17.8-2.37c6.57,0.29,11.28,1.46,15.07,5.09c0.91,0.87,2.09,2.23,2.54,2.91c1.22,1.811,2.51,5.24,2.73,7.62
				C335.71,360.7,335.46,362.99,334.47,364.63z"/>
			<path fill="none" stroke="#000000" d="M522.43,382.97c0.94-1.649,2.71-2.34,3.99-3.63c1.71-1.71,3.11-3.979,4.72-5.99
				c4.7-5.85,7.771-13.35,11.08-20.89c0.03-2.68,1.19-4.9,0.91-7.8c-0.31-3.2-2.43-5.34-3.99-7.45c-2.06-1.18-3.89-2.85-6.18-3.63
				c-0.979-0.34-2.36-0.74-3.45-0.91c-8.42-1.28-15.479,3.42-21.069,5.271c-0.28,0.619-0.841,0.97-1.631,1.09
				c-2.52,2.01-5.199,3.87-7.63,5.989c-1.71,2.471-3.5,4.421-5.26,6.54c-1.65,1.971-4.06,6.57-4.729,9.98
				c-0.19,1.03,0.109,2.09,0,2.729c-0.381,2.36-1.341,4.171-1.091,6.351c0.23,1.95,1.561,4.09,2.551,5.45
				c4.39,6.06,12.63,8.229,19.43,13.62c5.61,2.51,10.93,5.3,15.62,8.72c8.56,3.25,14.55,9.729,20.149,16.34
				c1.21,1.43,2.61,2.23,3.271,4.18c2.97,3.271,4.51,7.971,5.81,12.9c2.11-10.83,11.15-18.24,23.25-17.98
				c0.45-0.1,0.75-0.35,1.09-0.55c3.74,0.73,7.12,2.561,9.44,4.72c5.22,4.881,2.69,15.2-1.45,20.16c4.38-0.67,8.23-3.37,11.08-6.17
				c0.53-4.319,1.351-7.859,3.271-11.81c2.09-0.3,5.239-0.49,5.26,2.55c0.02,1.96-1.94,4.41-2.18,7.44
				c-0.21,2.699-0.29,6.35,0.189,9.079c0.32,1.851,0.92,4.671-1.64,4.9c-3.471,0.33-5.141-5.64-4.9-8.71
				c-1.939,0.13-4.1,1.58-5.45,2.9c-2.319,0.649-4.29,1.64-5.989,2.909c-2.46,0.65-4.16,1.131-6.721,1.45
				c-3.199,2.32-5.92,3.49-10.54,4.36c-4.399,0.84-6.989-0.41-9.8-2.91c-2.14-1.9-3.88-4.22-4.54-7.62
				c-0.63,1.91-0.92,4.17-1.27,6.351c-2.431,5.93-6.101,10.619-11.08,13.989c-1.2,0.32-2.2,0.83-2.91,1.63
				c-2.06,0.48-3.771,1.32-5.26,2.36c-4.88,0.92-10.74,2.48-16.53,2.91c-1.88,0.14-4.03-0.3-6.17-0.37c-1.69-0.05-3.43,0.17-4.91,0
				c-4.479-0.49-8.96-2.18-13.07-2.9c-1.449-1.579-4.5-1.55-5.449-3.63c-0.4,0.42-0.71-0.06-1.271,0
				c-2.79-2.479-5.729-4.81-8.54-7.27c-0.12-1.72-1.84-2.34-2.72-3.811c-2.71-4.51-2.63-11.21-0.55-16.159
				c1.54-1.011,2.29-2.801,3.449-4.181c2.521-1.54,4.79-3.319,7.091-5.09c5.939-1.66,13.81-2.85,19.069-2.899
				c-5.91,1.96-11.479,4.27-15.439,8.17c-3.221,1.26-5.33,3.64-7.271,6.18c-2.649,5.14-1.56,12.85,2.55,15.61
				c3.19,1.649,5.631,4.25,9.08,5.81c5.65,2.57,15.42,2.74,21.79,2c6.94-0.81,13.21-3.81,18.341-6.35
				c2.729-2.48,5.289-5.131,7.63-7.99c1.47-4.021,2.899-8,2.899-12.351c0.01-6.97-5.229-12.829-9.08-17.26
				c-1.979-2.28-3.859-4.2-5.989-5.99c-6.29-5.3-15.341-8.93-22.881-13.069c-3.96-2.181-7.81-4.061-11.439-6.54
				c-2.72-1.86-4.49-3.09-7.271-5.271c-4.81-3.77-8.84-10.989-6.899-18.52c0.49-1.87,1.729-3.71,2.359-5.63
				c0.29-0.87,0.2-1.761,0.551-2.54c2.939-6.58,8.909-10.971,14.159-15.62c0.271-0.16,0.4-0.46,0.37-0.91
				c6-3.44,12.801-7.94,20.88-8.9c7.101-0.84,12.53,0.21,17.98,2.54c1.71,0.73,4.2,3.04,5.63,4.54c2.41,2.53,5.01,7.2,5.09,11.99
				c0.07,4.63-2.26,9.43-4.18,13.8c-3.36,7.641-7.35,15.44-13.08,20.34c-0.729,0.631-1.88,1.15-3.08,2
				c-0.91,0.631-2.02,2.16-2.91,2.181C523.44,385.73,523.15,384.13,522.43,382.97z"/>
			<path fill="none" stroke="#000000" d="M237.67,261.12c0.25,0.52,0.83-0.01,0.91,0.91c-0.74-0.2-0.46,0.62-0.91,0.72
				c-1.39-0.06-2.23-0.68-3.09-1.27c0.05-0.26,0.55-0.06,0.55-0.36c-0.05-0.38-0.8-0.05-0.91-0.37c-2.43-6.22-2.38-14.98,0.18-22.15
				c1.76-0.35,2.91,0.15,4.18,1.27c-0.07,3.78-0.79,6.31-1.63,10.53C237.3,253.86,237.58,258.44,237.67,261.12z"/>
			<path fill="none" stroke="#000000" d="M256.2,233.33c2.45-0.05,6.48-1.47,7.44,1.45c0.42,5.2-1.88,10.49-0.36,16.35
				c0.46,1.76,1.98,4.73,3.45,5.08c1.7,0.41,3.61-1.46,4.9-0.9c2.66,1.14-1.15,3.88-1.63,4.54c-9.39,1.37-13.23-7.44-12.71-15.99
				c-3.16,4.05-3.75,10.66-7.27,14.35c0.13,0.79-0.31,1.02-0.18,1.82c-0.53,0.2-0.93,0.52-1.45,0.72c-0.91,0.06-0.98-0.72-1.82-0.72
				c-0.33-0.7-0.46-1.6-1.09-2c-0.32-3.2,0.21-6.02,1.27-9.08c-0.05-1.74,0.04-3.86,0.91-5.09c-0.4-0.94,0.02-2.15,0.55-2.72
				c0.07-4.19,2.35-8.23,4.17-11.44C255.18,229.1,256.96,230.83,256.2,233.33z"/>
			<path fill="none" stroke="#000000" d="M237.85,232.61c-1.78-1.25-2.75-5.15-1.27-7.09c2.62,0.84,5.34,1.56,5.45,4.91
				C240.94,231.81,239.3,231.86,237.85,232.61z"/>
			<path fill="none" stroke="#000000" d="M321.75,240.78c-0.2,0.21-0.2,0.64-0.18,1.09c-0.59,0.1-0.84-0.13-1.27-0.18
				c-0.55,0.29,0.61,0.87,0,1.27c-3.41-0.23-2.9,6.37-1.27,8.35c-3.02-1.58-3.36-5.74-2.36-8.72c0.62-1.84,2.41-4.92,3.63-6.72
				c1.53-2.24,3.51-4.16,5.09-5.26c0.14-0.16,0.19-0.41,0.18-0.73c2.75-1.93,6.22-4.48,9.99-6.17c0.7-0.32,1.18-0.17,1.99-0.19
				c1-0.01,2.03-0.76,2.91-0.9c6.09-0.97,12.05,2.49,13.62,7.08c0.52,0.93,1.94,0.97,2.54,1.82c0.28,3.59-1.59,6.83-2.18,9.62
				c-0.17,3.9-2.26,10.79,1.46,13.08c1.84-1.06,3.77-2.04,4.9-3.82c-0.22-2.13-0.07-3.8-0.36-5.99c1.32-2.55,2.07-5.68,3.45-8.17
				c1.33,0.09,2.25-0.16,3.45,0.18c1.24,3.38-1.87,6.77-2.18,11.08c-0.18,2.44,0.28,5.02,3.09,3.08c2.16-1.49,3.51-5.98,4.35-8.89
				c0.13-0.44-0.23-0.83-0.18-1.09c0.15-0.75,1.13-0.93,1.09-2c0.46,0.46,0.72-0.21,1.27-0.18c0.61,0.48,1.11,1.07,1.82,1.45
				c0.67,3.52-0.91,7.67,0.54,10.9c0.87,1.07,1.97,1.9,3.09,2.72c0.14,0.62-0.74,0.23-0.54,0.91c-2.92,0.07-3.57-2.13-6.18-2.36
				c-0.25,0.53-0.7,1.97-2.18,1.45c-0.47,0.04,0.25,0.31,0,0.73c-2.21,0.64-3.01,0.49-5.08,0.9c-1.45-0.86-2.57-1.14-4-1.63
				c-0.34,0.52-0.6,0.26-0.36,1.09c-1.06-0.11-0.79,0.06-0.73,0.91c-1.47,0.61-1.94,1.17-3.08,2.18c-6.19,0.22-8.16-5.47-9.63-9.99
				c-6.43,4.91-14.36,12.27-24.88,13.07c-9.46,0.73-17.95-6.16-18.52-17.07c7.43-2.06,5.74,6.88,8.71,10.35
				c2.91,2.54,9.39,1.85,12.72,0.91c0.66-0.18,0.86-0.53,1.99-0.72c2.28-0.4,3.86-1.59,5.82-2.55c1.35-0.66,2.97-0.99,4.17-1.99
				c0.83-0.7,2.48-1.65,3.45-2.55c0.27-0.21,0.46-0.21,0.73,0c0.21-0.75,0.96-0.97,1.27-1.63c0.7,0.17,0.75-0.71,1.27-0.18
				c0.58-1.64,1.77-1.64,2-4c0.38-0.07,0.48,0.13,0.73,0.18c-0.09-0.87,0.32-1.25,0.9-1.45c0-0.36-0.49-0.23-0.36-0.73
				c1.4-2.14,1.28-4.79,2.36-7.08c-0.66-1.04,0.02-1.84-0.18-2.72c-0.78-3.42-6.63-3.11-9.08-2c-1.87-0.62-2.7,1.24-5.09,1.09
				c-1.2,1.21-3.84,0.99-4.35,2.91c-0.73-0.43-0.72,0.48-1.64,0.36c0.28,1.99-2.4,1.09-2,2.72c-0.51,0.15-0.47-0.25-0.9-0.18
				c-0.56,0.45-0.15,0.74-0.37,1.45C324.29,236.41,325.28,240.34,321.75,240.78z"/>
			<path fill="none" stroke="#000000" d="M542.95,241.87c0.399,1.34-1.53,1.67-1.271,3.45c-1.489,0.9-3.279,2.3-5.449,2.36
				c-2.131,0.05-3.24-1.28-4.9-2c-0.44-0.78-0.86-1.57-1.46-2.18c-1.59-5.14-0.73-9.95,2.18-13.62c0.38-2.81,2.72-5.16,1.46-7.99
				c-2.38-1.34-6.2,3.37-7.81,5.09c-2.99-4.9,1.3-8.41,5.99-9.81c0.079-0.02,2.619,0.33,2.72,0.36c1.68,0.6,2.37,1.97,3.45,3.27
				c-0.08,1.67,0.25,3.03,0,4.72c-0.891,6.05-6.2,11.9-3.08,17.98C538.19,244.32,540.2,242.3,542.95,241.87z"/>
			<path fill="none" stroke="#000000" d="M764.77,219.53c0.45,0.99,0.73,2.24,0.101,3.63c-0.39,0.85-0.3,2.59-0.91,3.82
				c4.69-0.78,1.95-7.34,5.45-10.36c0.04-0.56,0.18-1.02,0.359-1.45c2.221-0.47,4.44,1.09,5.091,3.27
				c-2.23,4.45-5.04,10.44-2.36,15.07c1.56,0.34,3.52,1.3,2.54,3.09c-5.47,0.54-8.1-4.5-9.08-9.62c-1.42,2.08-4.3,2.72-5.63,4.9
				c-0.43,0.06-0.68,0.29-1.271,0.18c-0.229,0.59,0.591,0.14,0.36,0.73c-3.1,1.07-4.77,3.15-7.99,3.45c0,0.83-1.489,1.46-3.09,1.27
				c-5.95,2.38-11.64,4.33-14.89-0.18c-4.9-6.83-1.9-17.95,2.729-22.52c0.29-0.05,0.311,0.17,0.54,0.18
				c0.34-0.32-0.22-0.53,0.181-0.91c4.34-2.25,9.029-6.95,15.619-6.17c1.671,0.19,3.351,1.13,5.45,0.9
				c-0.149,0.52,0.25,0.48,0.181,0.91c1.199-0.25,2.6,0.77,2.909,2c2.04-0.34,3.21,2.51,3.261,4.18c1.26,0.93,0.77,2.18,1.09,3.45
				C765.32,219.39,764.94,219.64,764.77,219.53z"/>
			<path fill="none" stroke="#000000" d="M764.77,219.53c-0.05-0.03-0.069-0.08-0.079-0.18
				C764.72,219.41,764.75,219.47,764.77,219.53z"/>
			<path fill="none" stroke="#000000" d="M777.95,206.27c-1.62,0.29-2.04,0.67-3.82,0.73c-0.63-1-0.01-3.26-0.91-4
				C774.39,198.36,778.6,203.18,777.95,206.27z"/>
			<path fill="none" stroke="#000000" d="M649.01,181.76c0.21,2.1-1.229,3.22-2.55,5.44c-0.8,1.36-1.35,2.65-1.99,4.18
				c-0.6,1.41-1.88,2.75-2.359,4.18c-0.63,1.83-1.37,3.61-2,5.26c-0.86,2.23-2.12,4.06-2.73,6.18c-0.399,1.41-0.21,4.54-1.45,5.08
				c0.59,0.35,0.16,2.16-0.54,2.36c0.04,0.2,0.36,0.13,0.36,0.37c-1.63,6.15-1.99,14.43-4.18,19.43c0.51,0.66,0.58,2.59-0.181,2.91
				c1.08,1.16,0.15,2.82,1.271,4.17c2.3,0.25,2.92-1.19,4.18-2c0.271-0.84-1.25-2.08,0-2.17c-1.52-0.66,0.11-3.01-1.09-4.18
				c0.11-0.66,1.17-1.53,0.54-1.82c-0.05-0.48,0.25-0.59,0.729-0.54c-0.119-3.46,2.181-6.05,4.181-7.99
				c2.05-0.06,3.46-1.14,5.45-0.73c0.979,0.96,1.689,1.96,1.81,3.81c0.1,1.56-0.01,3.64-0.91,3.82c0.59,0.91-0.17,1.82-0.54,2.36
				c-1.22-0.25-0.75-2.31,0-2.91c-0.96-1.03-0.399-3.42-1.819-4.36c-1.341-0.07-1.74,0.8-2.721,1.09
				c-1.01,3.36-4.189,7.99-1.09,11.26c1.69-0.23,1.75-1.57,3.45-1.45c-0.03,0.21,0.04,0.32,0.18,0.36c-0.149,0.94-1.02,1.16-1.27,2
				c0.18,0.24,0.18,0.67,0.359,0.91c2.99,1.94,5.5-1.86,8.17-3.09c0.36-0.16,0.66-0.02,0.91-0.18c1.15-0.7,2.44-2.27,3.63-0.18
				c-0.399,1.19-0.6,2.46-1.63,3.45c-0.16,0.15-0.72,0.17-0.91,0.36c-0.239,0.26-0.3,0.82-0.539,1.09c-0.721,0.79-1.82,1.19-2.73,2
				c-0.38,0.34-0.63,0.99-1.09,1.27c-1.601,1-3.54,0.45-5.44,1.09c-0.97-0.97-3.04-0.83-4.18-1.63c-0.1-0.41,0.35-0.26,0.36-0.55
				c-0.931,0.28-1.58,0.84-2.721,0.91c0.04,0.26,0.54,0.06,0.54,0.36c-0.68,1.26-3.26,0.61-3.27,2.55
				c-0.8-0.15-1.09,0.24-1.811,0.18c0.15-0.91-0.979,0-0.909-1.09c-3.11,1.06-3.79-2.26-5.091-4c0.9-1.17-1.06-1.88-1.08-3.27
				c-5.569,5.58-13.75,8.53-22.71,10.72c-0.31,0.01-0.47-0.14-0.54-0.37c-8.22,3.73-18.329-0.82-22.34-8.17
				c-0.96-1.76-2.33-4.2-2.54-7.08c0.12-2.57,1.32-5.37,1.63-7.63c0.7-0.26,1.62-0.93,3.091-0.91c-0.131,0.99,1.119,0.58,1.27,1.28
				c3.53-5.02,6.9-10.18,12.53-13.08c2.33-2.33,6.149-3.18,9.27-4.72c3.141-0.43,5.69-1.77,9.261-2.18
				c3.56-0.41,7.399,1.19,10.35,0.36c1.52,1.17,3.99,1.3,5.08,3.27c0.479-0.49,0.55,0.22,1.09,0.18c0.64-0.27,0.55-1.27,1.46-1.27
				c0.16-1.54-0.33-2.95,1.09-3.45c-0.03-0.21-0.34-0.15-0.55-0.18c0.93-0.56,0.22-1.8,1.27-2.36c2.28-7.66,8.551-14.29,13.08-20.89
				C648.61,181.42,648.57,181.83,649.01,181.76z"/>
			<path fill="none" stroke="#000000" d="M479.57,245.14c0.529,3.42,2.939,4.9,6.35,4.35c5.94-0.95,11.54-5.89,15.26-8.71
				c0.34-2.16,0.38-5.63,1.63-8.72c0.69-1.69,2.15-4.46,3.271-4.54c1.05-0.07,1.32,1.1,2.36,1.27
				c-1.681,4.37-5.421,11.73-1.811,16.89c4.771,0.47,6.25-2.34,8.71-4.18c0.49-3.03,1.58-5.45,2-8.53c0.71-0.93,2.15-1.22,2.73,0
				c-0.4,3.83-3.37,12.37,3.08,12.53c-0.21,0.69-0.94,0.87-0.721,2c-2.88,1.01-5.26,0.93-7.09-1.27c-1.28,0.65-2.35,1.52-3.08,2.72
				c-1.359-0.61-2.41,0.71-3.819,0.73c-3.011,0.03-4.95-2.31-6.351-4.36c-1.56,1.41-2.899,3.03-4.18,4.72
				c-0.76,0.2-0.76,0.12-1.45,0c-0.229,0.59,0.59,0.14,0.36,0.73c-2.67,1.13-4.71,2.16-7.63,3.26c-0.36,0.07-0.561-0.03-0.54-0.36
				c-0.341,0.15-0.73,0.24-0.91,0.55c-6.45-0.16-9.681-2.96-12.351-6.72c-0.43,1.71-2.64,2.23-2.359,3.63
				c-1.8,0.6-2.021,1.68-3.45,2.54c-0.021-0.49,0.3-0.36,0-0.73c-0.43,0.18-0.47,0.75-0.73,1.09c-0.56,0.14-0.22-0.62-0.899-0.36
				c-0.181,0.13,0.109,0.85-0.37,1.09c-2.09,0.49-3.771,0.69-5.08,1.64c-0.99-0.42-3.22-0.5-3.27,0.36
				c-0.351-0.08-0.78-0.07-0.73-0.55c-3.5,0.96-6.89-2.86-9.62-4.9c-1.11,0.26-1.53,2.06-2.54,1.82c-2.45,2.28-8.64,4.75-13.26,5.44
				c-2.4,0.37-5.561,0.2-7.811-0.18c-12.37-2.1-22.419-13.05-21.97-26.51c0.05-1.72,0.01-3.62,0.18-5.27
				c0.61-6.08,2.71-12,4.36-17.25c0.51-0.03,0.22-0.86,0.9-0.73c1.44-6.73,6.15-11.61,9.27-17.25c0.52-0.14,0.47-0.86,1.27-0.73
				c-0.14-0.16-0.2-0.41-0.19-0.72c5.13-5.81,10.95-11.34,18.891-15.8c3.619-2.04,7.119-4.18,10.899-5.63
				c3.351-1.29,8.21-2.63,11.08-2.73c0.83-0.02,1.66,0.45,2.36,0.55c3.319,0.49,6.33,0.14,8.35,2.18c0.45,0.23,0.88-0.41,0.91,0
				c1.17,0.93,2.81,1.63,3.09,3.27c1.62-0.62,2.78,3.34,3.99,5.26c0.09,0.87-0.23,0.21-0.54,0.55c0.21,0.93,1.34,0.96,1.81,1.63
				c0.09,0.58-0.319,0.64-0.18,1.27c0.18,0.25,0.61,0.24,0.73,0.55c-0.11,0.43,0.229,1.32-0.181,1.45
				c0.92,3.33,1.29,8.23,0.181,11.44c-0.301,0.87-1.25,2.08-1.82,3.27c-1.62,3.39-4.41,7.58-6.9,9.63
				c3.61-6.32,9.07-13.85,6.17-24.7c-1.38-5.19-6.91-10.76-11.439-12.35c-3.54-1.25-8.021-0.63-11.26,0.91c-0.36,0-0.721,0-1.091,0
				c-6.399,2.44-12.25,5.42-17.79,8.72c-2.949,2.68-5.81,5.45-8.899,7.99c-2.641,3.96-5.13,8.06-7.81,11.98
				c-0.38,1.26-0.98,2.29-1.82,3.09c-2.11,7.5-6.47,14.22-6.9,22.7c-0.08,1.63-0.23,4.13,0,6.17c1.63,14.51,10.69,21.73,26.88,19.25
				c1.48-0.22,2.7-0.54,3.811-1.81c2.71-0.68,4.85-1.94,7.09-3.09c0.92-6.02,3.41-10.89,6.899-14.71
				c0.551-0.01,0.431,0.65,1.091,0.55c0.68-0.46-0.54-0.85,0-1.09c0.56-0.51,0.84-0.54,1.63-0.73c0.949-1.51,3.51-2.62,5.449-2.91
				c1.9-0.28,3.32-1.94,5.08-0.36c0.271-0.04,0.07-0.54,0.37-0.54c2.28,0.17,4.4,0.04,5.811,1.27c0.279,0.24,0.14,0.81,0.359,1.09
				c0.71,0.85,2.82,1.55,3.271,2.9c1.32-0.16,1.34-2.5,2.72-2c0.3-2.09,2.17-3.5,4.54-4.35c4.74-3.16,10.46,1.08,10.54,7.26
				C494.34,239.83,487.47,243.74,479.57,245.14z"/>
			<path fill="none" stroke="#000000" d="M684.24,230.24c0.31-0.31,0.74-0.67,0.91-1.09c0.21-0.53,0.13-1.79,0.359-2.54
				c0.04-0.13,0.49-0.24,0.54-0.36c0.25-0.58-0.43-1.33,0.55-1.09c0.07-0.44-0.33-0.4-0.18-0.91c0.32,0.02,0.38-0.22,0.72-0.18
				c3.04-6.11,10.021-9.22,16.71-11.08c0.49,0.42,1.41,0.41,2,0.73c0.021,0.87-1.26,0.44-1.819,0.72
				c-6.71,3.1-12.431,7.19-15.8,13.62c0.109,1.02-0.171,1.65-0.54,2.18c-1.48,12.69,9.819,24.16,23.06,18.89
				c2.32-0.05,3.24-1.48,4.72-2.36c1.12-1.37,1.98-2.98,3.271-4.18c0.46-0.76,0.83-2.99,1.819-3.81
				c-0.319-1.23,0.021-3.15,0.54-4.54c-0.3-0.93-0.72-2.72,0.181-3.45c-0.48-0.41-1.221-2.35-0.36-2.91
				c-0.12-0.24-0.39-0.33-0.72-0.36c0.56-1.28-0.19-2.68-0.73-3.45c0.141-0.1,0.29-0.19,0.54-0.18c-0.399-0.2-0.12-1.09-0.899-0.91
				c0.25-1.64-1.29-2.9-1.28-4.9c-0.12-0.55-0.38,0.17-0.72,0c-0.13-0.63-0.931-1.26-0.551-1.82c-0.59-0.07-1.079-0.73-0.72-1.63
				c-1.939-1.95-3.37-4.38-4.54-7.09c-0.16-0.27-0.46-0.39-0.91-0.36c-0.159-2.32-2.68-3.69-3.27-6.17c-2-0.7-0.771-2.71-2.54-3.45
				c-0.19-1.53-1.01-3.26-2-4.18c0.1-0.27-0.21-0.94,0.18-0.91c-0.17-0.32-0.34-0.63-0.91-0.54c0.15-0.56,0.681-0.93-0.359-0.91
				c-0.16-0.58,0.29-0.56,0.359-0.91c-1.06-2.45-1.42-5.4-1.63-8.35c-0.31-4.27,1.351-8.34,2.181-11.81
				c0.619-0.11,0.399-1.05,1.09-1.09c1.609-2.95,3.54-5.68,5.81-7.99c1.58-1.62,3.59-2.82,4.9-4.72c0.33-0.02,0.38,0.22,0.729,0.18
				c0.34-0.34,0.021-0.45,0-0.91c1.641-0.69,2.87-0.73,3.63-2.36c1.98,0.27,2.601-1.51,4-1.27c0.381-0.4,0.7-0.87,1.091-1.27
				c3.979-0.18,6.67-1.52,10.89-1.27c1.13,0.06,3.51,0.61,5.63,0.73c0.75,0.64,0.99,1.79,2.54,1.63c-0.3,0.72,0.87,0.9,1.46,1.27
				c0.12,0.67-0.31,0.78-0.18,1.45c1.029,0.34,1.029,2.13,1.81,2.18c-0.26,1.15,0.53,2.83,0.36,3.45c0.05,0.38,0.8,0.05,0.91,0.37
				c0.239,1.47-1.15,3.51,0,4.17c0.16,0.59-0.601,0.25-0.54,0.73c-0.12,3.15-0.721,6.17-1.82,8.9c-0.16,0.39-0.78,0.7-0.91,1.09
				c-1.33,4.22-3.46,9.24-6.17,12.17c-0.96,2.85-3.18,4.44-4.54,6.9c-0.439-0.08-0.399,0.33-0.91,0.18
				c3.641-6.35,6.34-13.64,10.17-19.8c0.07-0.43-0.33-0.39-0.18-0.9c0.6-0.43,0.58-1.49,1.09-2c0.53-2.76,1.45-5.44,1.45-8.54
				c0-1.77-0.65-3.87-0.54-5.45c-1.479-2.87-3.47-6.03-7.63-5.81c-2.44,0.13-6.14,0-7.45,1.09c-1.33-0.21-3.479,0.25-3.99,1.46
				c-0.239-0.07-0.29-0.32-0.55-0.37c-0.26,0.46-0.439,0.72-0.18,1.27c-1.95,0.05-2.83,1.16-4.36,1.64c-0.49,0.16,0.561,0.4,0,0.72
				c-0.66,0.12-0.689-0.39-1.27-0.36c-0.24,0.18-0.36,0.49-0.54,0.73c0.08,0.28,0.569,0.15,0.359,0.72
				c-2.3,0.13-2.729,4.17-5.63,3.27c-0.069,0.68,0.74,0.48,0.551,1.27c-1.141,0.14-1.28,1.27-2,1.82
				c-0.601-0.07-0.69-0.64-0.91-1.09c-0.84,0.25-0.24,1.94-1.271,2c0.05,0.24,0.45,0.15,0.73,0.18c0.38,1.42-0.45,2.51-1.82,3.09
				c0.14,0.58,1.28,0.17,1.09,1.09c-1.17-0.08-0.939,1.24-2.18,1.09c-0.49-0.79,0.33-0.57,0.36-1.28
				c-0.051-0.24-0.45-0.15-0.721-0.18c-0.569,0.13-0.24,0.49-0.189,0.91c-0.79-0.25-0.65,0.43-1.08,0.55
				c1.39,1.79,0.25,3.06,0.18,5.26c-0.25,0-0.49,0-0.729,0c-0.261,1.11,0.77,0.92,0.55,2c-0.971,0.19-1.561,0.75-2.37,1.09
				c0.8-0.25,1.03,1.15,1.46,1.82c0.06,0.55-0.59,0.37-0.91,0.54c1.15,0.18,1.6,2.83,0.36,3.27c0.54,0.39,1.17,1.52,0.18,2
				c0.26,0.29,0.9,0.19,1.09,0.54c-0.479,0.9,0.021,1.1-0.18,1.82c0.89,0.52,2.09,2,1.27,3.09c1.25,0.52,1.23,2.61,2.73,3.45
				c0.1,0.4-0.351,0.25-0.37,0.54c1.42,2.01,2.97,4.74,3.64,6.9c0.851,0.17,0.46,1.6,1.63,1.45c-0.09,0.58,0.33,0.65,0.181,1.28
				c1.069,0.56,1.55,1.71,2.359,2.54c-0.069,0.62-0.409,1.32,0.551,1.27c1.89,3.94,5.229,7.97,7.439,12.35
				c0.01,0.31-0.13,0.47-0.359,0.54c1.55,1.88,1.569,4.48,2,6.72c0.189,1.01,0.699,1.69,0.72,2.55c0.05,1.35-0.49,2.48,0.37,3.81
				c-0.74,1.64-0.761,4.25-1.46,6.72c-0.37-0.08-0.48,0.12-0.721,0.18c0.891,1.1-0.6,2.39-1.449,2.91
				c-0.23,0.81-0.761,1.87-1.46,2.54c-0.301,0.29-0.391,0.29-0.721,0.72c-0.46,0.6-2.96,2.46-3.64,2.91
				c-3.2,2.16-8.271,2.62-11.98,3.27c-0.76-0.3-2.1-0.2-2.909-0.18c-1.44,0.03-4.44-0.33-5.99-1.27c-0.4-0.25-0.63-1.04-1.63-0.73
				c0.22-0.59-0.59-0.14-0.37-0.73c-4.811-1.53-7.391-6.01-10.17-10.35c-0.271-2.89-1.5-5.99-0.36-8.9
				c-0.53-0.71-0.229-1.66,0.18-2.36C684.74,230.59,684.1,230.8,684.24,230.24z"/>
			<path fill="none" stroke="#000000" d="M127.08,167.95c1.1-0.44,2.67-0.02,3.45,0.73c0.87-0.54,4.49,0.02,4.35,1.09
				c0.42-0.83,2.63-0.23,2.91,0.73c0.21-0.03,0.15-0.33,0.18-0.55c0.67,1.01,2.23,0.05,2.73,1.27c0.58,0.23,0.13-0.58,0.72-0.36
				c1.8,0.98,4.44,1.13,6.18,2.18c5.61,1.18,9.85,3.23,14.89,5.27c10.12,6.28,19.69,13.11,26.33,22.88c0.21,0.27,0.21,0.46,0,0.72
				c0.85,0.31,1.45,1.52,1.82,2.55c0.43,1.22,2.14,3.13,2.54,4.35c0.24,0.72,0.51,1.95,0.18,2c1.37,0.18,0.07,3.22,1.27,4
				c0.19,2.85,0.53,5.1,1.27,7.44c0.02,0.87-0.6,1.09-0.72,1.82c1.24,0.33,0,2.23,0.9,2.18c-0.22,0.41-0.65,0.97,0,1.27
				c-0.82,0.43-0.55,0.9-1.27,1.27c1.72,1.46-0.63,4.07,0.37,5.81c-0.11,0.81-0.26,1.56-0.91,1.82c1.1,2-1.43,4.32-0.73,6.54
				c1.12-0.15,0.98-1.57,1.64-2.18c0.42-0.27,0.33-0.39,0.9-0.18c2.83-4.83,8.6-7.39,15.44-7.63c0.39-0.09,0.35,0.26,0.36,0.54
				c0.22-0.03,0.16-0.33,0.19-0.54c5.26,0.06,9.31,1.34,12.89,3.09c2.05,2.55,3.35,5.28,3.27,9.08c-0.08,3.95-2.9,7.02-3.81,9.98
				c-0.92,0.24-0.9,1.41-2,1.46c0.37,0.67-0.32,0.89-0.37,1.63c-1.49,0.73-2.48,1.72-3.08,2.91c-4.16,1.43-9.27,4.93-14.89,3.99
				c-5.23-0.87-8.68-4.16-11.26-8.35c-1.09-2.62-1.32-5.21-2.55-7.45c-0.65,0.38-0.47,1.59-1.63,1.46
				c-0.17,2.12-2.81,1.79-2.91,3.99c-0.44,0.03-0.87,0.03-1.09-0.18c-0.28,1.18-0.39,1.51-0.9,2.54c-2.26,0.72-3.82,3.53-6.36,4.54
				c-0.23,0.43,0.02,0.34-0.18,0.91c-0.5-0.02-0.37,0.3-0.73,0c-2.81,3.06-6.52,4.75-9.99,7.45c-0.98-0.21-0.76,0.06-1.63,0.18
				c-2.63,1.97-5.86,3.34-9.44,4.36c-0.37,0.24-0.79,0.42-0.91,0.9c-0.56,0.14-0.54-0.31-1.09-0.18c-0.79,1.01-2.53,0.61-4,1.09
				c-2.05,0.68-5.28,1.66-8.17,2.18c-2.18,0.4-4.53,0.37-6.72,0.73c-1.5,0.24-3.13,0.81-5.45,0.91c-4.82,0.19-9.52,0.69-13.98-0.73
				c-0.21,0.03-0.15,0.33-0.18,0.54c-17.29-1.3-38.45-5.35-44.5-21.97c-0.23-0.31-0.37-0.71-0.9-0.73
				c-1.37-3.82-2.63-8.28-1.46-11.8c-0.13-0.17-0.33-0.28-0.54-0.36c3.31-11.77,10.83-19.31,19.43-25.79
				c4.21-0.95,8.49-4.29,12.89-5.81c1.36-0.47,3.12-0.75,4.91-1.27c7.71-2.26,17.85-3.74,26.15-1.64c-2.8,1.51-5.72,0.84-8.36,1.09
				c-2.96,0.28-5.83,1.34-8.89,1.09c-0.61,0.76-1.49,0.11-2,0.91c-0.45,0.02-0.88,0.03-1.09-0.18c-0.63,0.43-0.92,1.21-2,0.72
				c-0.21,0.03-0.15,0.33-0.18,0.55c-2.33,0.35-5.15,1.73-7.26,2.9c-2.27,0.22-3.27,1.7-5.27,2.18
				c-11.02,6.45-23.09,14.45-20.16,33.05c4.42,9.07,10.11,15.95,20.16,18.35c1.51,0.36,3.35,0.89,5.08,1.09
				c0.97,0.11,2.08-0.19,3.09,0c5.88,1.11,14.12,1.28,19.98,1.45c6.36,0.19,11.64-0.6,17.8-1.82c0.29-0.06,0.65,0.21,0.9,0.18
				c1.79-0.19,3.31-1.49,5.63-1.81c4.68-0.64,7.92-2.87,11.81-4.72c1.24-1.33,3.47-3.17,5.45-4.36c1.48-1.95,3.93-3.77,5.44-5.99
				c0.27-0.4,0.91-0.48,1.09-0.73c0.95-1.27,1.35-2.94,2.36-4c0.31,0,0.61,0,0.91,0c-0.4-2.18,1.08-3.82,2.54-4.72
				c0.88-1.97,1.52-4.18,2.91-5.63c0.19-0.68-0.45-0.52-0.36-1.09c1.52-0.85,1.38-4.29,2.9-4.54c-0.39-2.43,0.93-5.6,1.82-8.9
				c-0.26-0.28-0.24-0.84-0.55-1.09c0.82-1.21-0.23-2.57,0.19-4.54c-0.09-0.38,0.25-0.34,0.54-0.36c-0.3-0.77-0.05-2.39-0.91-2.54
				c0.16-2.29-0.66-4.01-0.18-5.45c-0.06-0.25-0.45-0.15-0.73-0.18c-0.2-3.57-1.76-5.26-2.72-8.72c-0.26-0.95-1.31-1.09-1.82-2
				c0.97-1.16-1.83-1.56-1.09-3.08c-0.37-0.67-0.76,0.55-1.09,0c0.04-2.16-2.18-2.05-2.54-3.82c-0.28,0.08-0.15,0.57-0.72,0.37
				c0.02-0.8-0.2-0.63-0.91-0.91c-0.07-0.5-0.21-1.31-1.27-1.27c-0.13-1.03-0.38-1.92-1.64-1.82c-0.13-1.56-2.2-1.19-2-3.09
				c-0.76-0.17-1.07-0.38-1.81-0.18c-0.2-0.53-0.77-0.68-0.73-1.45c-1.54-0.12-3.21-1-3.09-2.18c-0.57,0.25-0.6,0.04-1.27,0
				c-2.38-1.91-5.78-2.81-8.17-4.72c-0.4-0.1-0.26,0.35-0.54,0.36c-7.71-2.67-16.9-3.9-26.34-5.81
				c-8.09-1.64-16.39-4.97-19.97-11.44c-0.63-1.13-0.78-2.68-1.64-4.18c0.1-0.32,0.1-0.75,0.37-0.91c-1.39-0.24,0.74-2.53-0.73-3.08
				c0.73-2.6-0.04-4.78,1.82-6.18c-0.3-1.69,0.88-3.31,1.99-4.17c0-0.31,0-0.61,0-0.91c2.82-4.15,6.72-7.21,10.72-10.17
				c5.57-4.62,13.8-10.04,23.43-10.9c4.11-0.37,6.72,0.9,9.98,1.82c1.35,1.49,3.11,2.58,4.54,3.99c0.22,2.06,1.49,4.34,0.37,5.45
				c0.91,3.6-0.36,6.11-1.82,8.54c-1.73,0.21-2.35-0.68-2.91-1.64c0.64-1.42,0.82-3.3,1.46-4.72c-0.22-1.15-0.56-2.22-0.18-3.09
				c-0.58-1.43-0.7-2.54-1.46-3.99c-0.79-0.78-2.39-0.75-2.72-2c-0.8,0.21-1.19-0.22-2-0.54c-0.2,0.04-0.12,0.36-0.36,0.36
				c-1.26-0.98-3.14-0.83-4.9-1.09c-0.41,0.08-0.58,0.39-0.91,0.54c-2.8-0.2-6.18,0.88-8.36,2.73c-0.25,0.01-0.51,0.03-0.54-0.18
				c-4.25,2.53-8.03,5.53-11.62,8.71c-0.15,1.19-1.41,1.26-1.46,2.55c-2.43,1.86-3.71,4.88-5.45,7.44c0.35,1.24-0.99,2.05-1.27,3.09
				c-0.33,1.24,0.51,2.88-0.9,3.45c1.13,1.06-0.28,3.31,1.09,3.81c-0.4,0.16,0.06,1.16-0.37,1.27c1.14,1.01,1.41,2.59,2.91,3.09
				c-0.04,0.32,0.18,0.91-0.37,0.73c2.62,1.35,4.48,4.13,8.54,4.54C122.85,167.16,126.72,166.4,127.08,167.95z"/>
			<path fill="none" stroke="#000000" d="M52.62,89.68c247.83,0.12,496.14-0.24,743.67,0.18c0,139.22,0,278.48,0,417.69
				c0.01,0.26,0.03,0.521-0.18,0.55c-247.891,0-495.78,0-743.67,0c0-139.29,0-278.58,0-417.87C52.42,89.97,52.41,89.71,52.62,89.68z
				"/>
			<path fill="none" stroke="#000000" d="M363.52,436c2.24,3.08,1.22,8.76-1.09,11.08C361.18,443.53,362,439.38,363.52,436z"/>
			<path fill="none" stroke="#000000" d="M380.59,449.99c-2.9-1.25-1.71-7.01-0.54-10.36c1.1-3.13,3.67-6.92,5.99-9.26
				c1.49-1.49,2.8-2.91,4.18-3.45c2.42-0.939,6.38-0.64,7.63,0.73c0.9,0.989,1.36,3.6,1.45,4.54c0.61,6.47-4.99,9.869-7.45,13.439
				C388.02,447,385.08,449.26,380.59,449.99z"/>
			<path fill="none" stroke="#000000" d="M761.96,214.44c1.29,3.92,0.57,9.26-1.63,12.72c-1.8,2.83-7.78,6.59-11.44,7.44
				c-6.71,1.56-13.909-2.23-12.899-9.08c0.31-2.08,1.99-3.39,3.09-5.08c0.29-0.86,1.58-1.29,1.27-2.18
				c1.57-0.75,2.761-1.97,4.181-2.91s2.91-1.75,4.359-2.72C753.84,211.19,759.06,210.6,761.96,214.44z"/>
		</g>
	</g>
</g>
</svg>
